<?xml version="1.0" encoding="UTF-8"?>
<svg width="204px" height="270px" viewBox="0 0 204 270" version="1.1" xmlns="http://www.w3.org/2000/svg" xmlns:xlink="http://www.w3.org/1999/xlink">
    <!-- Generator: Sketch 51.1 (57501) - http://www.bohemiancoding.com/sketch -->
    <title>Customer Order</title>
    <desc>Created with Sketch.</desc>
    <defs></defs>
    <g id="Icons" stroke="none" stroke-width="1" fill="none" fill-rule="evenodd">
        <path d="M141.511958,21.701781 C162.311709,21.6835097 171.554756,21.6889835 183.072162,21.7469805 C190.73952,21.6419819 198.169823,26.2070891 201.592025,33.0353629 C203.445995,36.4353822 204.003,39.9677027 203.999988,45.3807903 C203.999653,45.9827712 203.995177,46.4657324 203.982186,47.5301735 C203.962067,49.178662 203.95844,49.8947956 203.97356,50.810118 C203.961365,80.3350378 203.956622,110.956296 203.956622,149.233869 C203.956622,162.904445 203.957045,173.84164 203.958316,198.447323 C203.959585,223.02163 203.960009,233.960223 203.96001,247.603928 C204.404982,255.843232 199.893578,263.931424 192.645515,267.585594 C189.85943,269.154577 186.791215,269.78672 182.660637,269.944507 C181.726262,269.980199 180.99009,269.990432 179.344963,270 C167.836238,269.945759 158.947875,269.941236 138.945783,269.961591 C118.935664,269.981955 110.041952,269.977429 98.9853593,269.920229 C91.9277766,270.100757 85.1112463,266.179909 81.2360242,260.05969 C77.1995099,258.951204 73.2535616,255.331221 71.7632828,250.837551 C60.7737679,220.743612 51.615368,195.559221 32.5416572,143.031941 C32.0650948,141.71953 32.0650948,141.71953 31.5885339,140.407121 C16.7661759,99.5875893 10.0502005,81.107149 1.73794847,58.288419 C-2.25215209,49.2756956 0.827219022,38.0350558 8.93610701,32.5493083 C10.7295271,31.3689126 12.4639891,30.5676865 15.5133668,29.3775161 C15.6998692,29.3047243 15.8717322,29.2378936 16.2271389,29.099807 C26.6608689,25.3470143 35.0743881,22.2843899 53.4142638,15.5800593 C54.779282,15.0810613 54.779282,15.0810613 56.1443266,14.5820766 C73.1876824,8.35213471 82.4514766,4.98306404 92.7833851,1.2752349 C99.9526412,-1.4501686 108.494588,0.294350504 114.042727,5.53914333 C117.164615,8.29186611 118.81106,11.4463317 120.919514,17.4308206 C121.024578,17.7290264 121.123639,18.0120693 121.324785,18.5875906 C121.782743,19.8967885 122.042838,20.6213363 122.350774,21.4270856 C127.529994,21.7127026 132.135221,21.7100179 141.511958,21.701781 Z M110.495315,18.4228312 C109.303974,14.3506005 105.981439,10.8820011 101.686092,10.2524368 C95.708597,9.71613886 90.3227459,13.2684834 84.7742609,14.9446121 C85.3169834,18.02556 85.5648194,22.2395429 82.0364847,23.6414049 C68.6605719,29.0955653 54.87915,33.513146 41.4070798,38.7423687 C38.6507674,39.5305641 35.6643601,41.3126212 32.775469,40.069203 C30.7214251,39.2580762 29.9103602,37.0260488 28.6190226,35.4168787 C24.0233583,37.135632 19.2353791,38.4045098 14.914283,40.7598128 C10.3050421,43.5523774 8.93383601,49.8587915 11.1684899,54.6195279 L80.0648841,244.220435 C79.9688178,177.505372 80.070921,110.777979 80.0179965,44.063526 C79.3811075,35.213934 85.4383281,26.4864989 94.0566554,24.3283928 C96.5771097,23.7311811 99.165318,23.6904621 101.726425,23.6361702 C105.311914,23.6523151 108.897404,23.6632441 112.482862,23.6703672 L110.495315,18.4228312 Z M88.1620448,43.9142231 L88.1620448,247.672008 C88.0129857,251.282424 89.1512553,255.055717 92.0917852,257.349553 C95.0729676,260.064151 99.327928,259.846983 103.095058,259.901275 C129.776641,259.724826 156.458224,259.982713 183.139806,259.779118 C189.468043,259.96914 194.508952,253.874866 193.858512,247.712727 L193.858512,43.9277961 C194.129528,39.693022 192.19176,35.2953719 188.370426,33.2322769 C182.936544,30.680554 176.66251,32.1735833 170.876306,31.8478315 C170.334273,34.9289011 169.128249,38.9736533 165.334017,39.0822372 C150.902384,39.625157 136.443649,39.0550912 121.998465,39.3536971 C119.13924,39.1501022 115.724431,39.8016059 113.434341,37.6434999 C111.78114,36.1776165 111.78114,33.8023426 111.117149,31.8478315 C106.211749,31.8885505 101.279247,31.4406417 96.4144997,32.1735833 C91.1296763,33.2187039 87.6877658,38.6750474 88.1620448,43.9142231 Z" id="Customer-Order" fill="#FFFFFF" fill-rule="nonzero"></path>
    </g>
</svg>