<?xml version="1.0" encoding="UTF-8"?>
<svg width="240px" height="240px" viewBox="0 0 240 240" version="1.1" xmlns="http://www.w3.org/2000/svg" xmlns:xlink="http://www.w3.org/1999/xlink">
    <!-- Generator: Sketch 51.1 (57501) - http://www.bohemiancoding.com/sketch -->
    <title>Customer Voice</title>
    <desc>Created with Sketch.</desc>
    <defs></defs>
    <g id="Icons" stroke="none" stroke-width="1" fill="none" fill-rule="evenodd">
        <path d="M70.9265625,0 L73.4203125,0 C87.4546875,0.253125 101.409375,4.6359375 112.964062,12.628125 C126.0375,21.553125 136.045312,34.89375 140.873437,49.9734375 C145.95,65.596875 145.471875,82.96875 139.495312,98.2734375 C134.779687,110.5125 126.609375,121.36875 116.221875,129.365625 C104.610937,138.379687 90.1640625,143.667187 75.478125,144.28125 C60.28125,145.017188 44.878125,140.784375 32.240625,132.3 C18.8859375,123.464062 8.615625,110.053125 3.6375,94.8234375 C1.3359375,87.9375 0.178125,80.6953125 0,73.44375 L0,70.921875 C0.2015625,62.2265625 1.8703125,53.55 5.11875,45.46875 C10.55625,31.7015625 20.41875,19.753125 32.8171875,11.68125 C44.071875,4.275 57.46875,0.2625 70.9265625,0 Z M48.5484375,44.90625 C44.784375,45.290625 41.484375,48.3140625 40.8046875,52.0359375 C40.1671875,54.975 41.128125,58.2 43.3078125,60.2765625 C45.9046875,62.9484375 50.221875,63.61875 53.5453125,61.978125 C56.7515625,60.4734375 58.8421875,56.953125 58.621875,53.4140625 C58.5328125,48.365625 53.5453125,44.1375 48.5484375,44.90625 Z M92.053125,45.2390625 C88.209375,46.3828125 85.425,50.3296875 85.753125,54.346875 C85.8609375,57.1078125 87.3515625,59.746875 89.64375,61.2796875 C92.85,63.609375 97.5796875,63.3046875 100.565625,60.740625 C103.44375,58.3546875 104.540625,54.084375 103.153125,50.6109375 C101.578125,46.284375 96.43125,43.7671875 92.053125,45.2390625 Z M36.3375,85.2 C32.2875,86.5171875 30.1453125,91.6359375 32.08125,95.4375 C36.9375,104.207812 44.8078125,111.24375 54.01875,115.18125 C63.965625,119.535937 75.4734375,120.13125 85.8234375,116.873437 C96.80625,113.45625 106.429687,105.810937 112.096875,95.784375 C113.221875,93.684375 113.296875,91.0359375 112.214062,88.9078125 C110.671875,85.715625 106.701562,83.94375 103.3125,85.0828125 C101.198437,85.6828125 99.5859375,87.3328125 98.5640625,89.2265625 C94.959375,95.0484375 89.4,99.6703125 82.95,102.009375 C76.2375,104.545312 68.6296875,104.615625 61.875,102.178125 C55.0125,99.7828125 49.0734375,94.8703125 45.421875,88.584375 C43.7015625,85.471875 39.6890625,83.896875 36.3375,85.2 Z M155.807813,96.646875 C168.173438,94.5 181.096875,95.75625 192.867188,100.101562 C204.2625,104.310937 214.546875,111.46875 222.46875,120.679687 C233.460938,133.29375 239.723438,149.845312 240,166.565625 L240,169.054687 C239.728125,184.771875 234.20625,200.348437 224.376563,212.629687 C215.15625,224.282812 202.270313,233.010937 187.982813,237.121875 C181.846875,238.93125 175.4625,239.821875 169.073438,240 L166.560938,240 C158.5875,239.798437 150.623438,238.40625 143.132813,235.65 C126.375,229.617187 112.082813,217.092187 103.860938,201.295312 C96.5578125,187.476562 94.0125,171.234375 96.6234375,155.835937 C110.821875,151.720312 123.890625,143.835937 134.259375,133.307812 C144.290625,123.103125 151.85625,110.41875 155.807813,96.646875 Z M189.164062,140.53125 C185.132812,141.023438 181.748437,144.520313 181.392187,148.565625 C180.876562,152.760938 183.764062,157.054688 187.851562,158.1375 C191.920312,159.421875 196.664062,157.307813 198.464062,153.45 C200.001562,150.4125 199.565625,146.526563 197.442187,143.878125 C195.510937,141.421875 192.2625,140.08125 189.164062,140.53125 Z M142.242188,140.9625 C139.007813,142.110938 136.523438,145.209375 136.265625,148.654687 C135.8625,152.446875 138.173438,156.346875 141.721875,157.767188 C144.473438,158.990625 147.834375,158.657813 150.314063,156.946875 C152.60625,155.414062 154.110938,152.765625 154.251563,150.009375 C154.476563,146.601562 152.5875,143.123437 149.540625,141.548438 C147.3375,140.315625 144.614063,140.128125 142.242188,140.9625 Z M164.60625,174.979688 C159.65625,175.242188 154.70625,176.057813 150.032812,177.740625 C141.660937,180.585938 134.19375,186.220313 129.464062,193.725 C128.123437,195.932813 126.609375,198.379687 127.05,201.084375 C127.359375,204.792188 130.814062,207.80625 134.5125,207.73125 C137.151562,207.740625 139.776562,206.245313 141.004687,203.8875 C144.323437,196.570313 151.95,192.089063 159.623437,190.659375 C167.4,189.248438 175.715625,189.651563 183.014062,192.8625 C187.814062,195.079688 192.210937,198.665625 194.446875,203.55 C196.096875,207.065625 200.732812,208.715625 204.229687,206.995313 C207.76875,205.448438 209.653125,200.9625 208.082812,197.385938 C204.914062,190.410938 199.242187,184.729688 192.6375,180.9375 C184.2,176.08125 174.229687,174.510938 164.60625,174.979688 Z" id="Customer-Voice" fill="#FFFFFF" fill-rule="nonzero"></path>
    </g>
</svg>