<?xml version="1.0" encoding="UTF-8"?>
<svg width="260px" height="194px" viewBox="0 0 260 194" version="1.1" xmlns="http://www.w3.org/2000/svg" xmlns:xlink="http://www.w3.org/1999/xlink">
    <!-- Generator: Sketch 51.1 (57501) - http://www.bohemiancoding.com/sketch -->
    <title>KDS</title>
    <desc>Created with Sketch.</desc>
    <defs></defs>
    <g id="Icons" stroke="none" stroke-width="1" fill="none" fill-rule="evenodd">
        <path d="M7.89311618,7.91665805 C13.1555858,2.64596394 19.4816084,0 26.8729488,0 L233.131169,0 C240.519568,0 246.842649,2.64006567 252.108649,7.91665805 C257.372883,13.1967894 260,19.5350704 260,26.9468365 L260,167.055523 C260,174.465519 257.372883,180.808519 252.108649,186.085701 C246.842649,191.361704 240.523098,194 233.131169,194 L26.8723605,194 C19.4816084,194 13.1573505,191.361704 7.89311618,186.085701 C2.63005831,180.808519 0,174.465519 0,167.055523 L0,26.9462467 C0,19.5344806 2.63005831,13.1967894 7.89311618,7.91665805 Z M246.06322,89.4224925 C243.931997,87.2908577 241.413706,86.2209115 238.505994,86.2209115 C235.594753,86.2209115 233.070579,87.2908577 230.948768,89.4224925 C228.81872,91.5541273 227.752226,94.081536 227.752226,97.0011797 C227.752226,99.9196437 228.819309,102.444693 230.948768,104.580457 C233.071168,106.713861 235.595341,107.779678 238.505994,107.779678 C241.413706,107.779678 243.933761,106.713861 246.06322,104.580457 C248.18915,102.447052 249.252115,99.922003 249.252115,97.0011797 C249.252115,94.0809462 248.18915,91.5535374 246.06322,89.4224925 Z M211.848732,21.7515152 L27.0898124,21.7515152 C25.6338978,21.7515152 24.3738699,22.2841289 23.3109051,23.3499463 C22.2449991,24.4198925 21.7155756,25.6791732 21.7155756,27.1407645 L21.7155756,167.249451 C21.7155756,168.708683 22.2467639,169.970913 23.3109051,171.03791 C24.3738699,172.104907 25.6338978,172.63752 27.0898124,172.63752 L211.848732,172.63752 C213.306412,172.63752 214.56644,172.104317 215.629404,171.03791 C216.692369,169.971502 217.224146,168.708683 217.224146,167.249451 L217.224146,27.1407645 C217.224146,25.6791732 216.696487,24.4193027 215.629404,23.3499463 C214.562322,22.2882577 213.306412,21.7515152 211.848732,21.7515152 Z M67,38 L166,38 C168.209139,38 170,39.790861 170,42 L170,54 C170,56.209139 168.209139,58 166,58 L67,58 C64.790861,58 63,56.209139 63,54 L63,42 C63,39.790861 64.790861,38 67,38 Z M42,38 L54,38 C56.209139,38 58,39.790861 58,42 L58,54 C58,56.209139 56.209139,58 54,58 L42,58 C39.790861,58 38,56.209139 38,54 L38,42 C38,39.790861 39.790861,38 42,38 Z M185,38 L197,38 C199.209139,38 201,39.790861 201,42 L201,54 C201,56.209139 199.209139,58 197,58 L185,58 C182.790861,58 181,56.209139 181,54 L181,42 C181,39.790861 182.790861,38 185,38 Z M67,68 L166,68 C168.209139,68 170,69.790861 170,72 L170,84 C170,86.209139 168.209139,88 166,88 L67,88 C64.790861,88 63,86.209139 63,84 L63,72 C63,69.790861 64.790861,68 67,68 Z M42,68 L54,68 C56.209139,68 58,69.790861 58,72 L58,84 C58,86.209139 56.209139,88 54,88 L42,88 C39.790861,88 38,86.209139 38,84 L38,72 C38,69.790861 39.790861,68 42,68 Z M185,68 L197,68 C199.209139,68 201,69.790861 201,72 L201,84 C201,86.209139 199.209139,88 197,88 L185,88 C182.790861,88 181,86.209139 181,84 L181,72 C181,69.790861 182.790861,68 185,68 Z M67,98 L166,98 C168.209139,98 170,99.790861 170,102 L170,114 C170,116.209139 168.209139,118 166,118 L67,118 C64.790861,118 63,116.209139 63,114 L63,102 C63,99.790861 64.790861,98 67,98 Z M42,98 L54,98 C56.209139,98 58,99.790861 58,102 L58,114 C58,116.209139 56.209139,118 54,118 L42,118 C39.790861,118 38,116.209139 38,114 L38,102 C38,99.790861 39.790861,98 42,98 Z M185,98 L197,98 C199.209139,98 201,99.790861 201,102 L201,114 C201,116.209139 199.209139,118 197,118 L185,118 C182.790861,118 181,116.209139 181,114 L181,102 C181,99.790861 182.790861,98 185,98 Z" id="KDS" fill="#ffffff" fill-rule="nonzero"></path>
    </g>
</svg>