<?xml version="1.0" encoding="UTF-8" standalone="no"?>
<svg width="105px" height="31px" viewBox="0 0 105 31" version="1.1" xmlns="http://www.w3.org/2000/svg" xmlns:xlink="http://www.w3.org/1999/xlink">
    <!-- Generator: Sketch 3.7.1 (28215) - http://www.bohemiancoding.com/sketch -->
    <title>Path 1</title>
    <desc>Created with Sketch.</desc>
    <defs></defs>
    <g id="Page-1" stroke="none" stroke-width="1" fill="none" fill-rule="evenodd">
        <path d="M0.315672031,9.56917461 L9.54231644,0.3360109 C9.54231644,0.3360109 10.3121325,0.0266072527 15.3120908,0.0266072469 C15.3120908,0.0266072469 20.3082786,-0.27417494 27.3797803,1.14685227 C27.3797803,1.14685227 29.4684368,1.70765844 29.9643882,4.15399907 C30.4603395,6.60033969 31.0000009,10.1628097 31,14.5344558 C30.9999991,18.9061019 30.8662227,21.9336928 29.9932378,26.8761225 C29.9932378,26.8761225 29.6007987,29.5381998 26.8661068,30.005463 C26.8661068,30.005463 20.7440608,31.0707287 16.1756652,30.9907973 C16.1756652,30.9907973 10.1311428,31.1646324 4.09613677,30.0012559 C4.09613677,30.0012559 1.38717273,29.7267238 0.912642848,26.8155126 C0.912642848,26.8155126 -0.0824783689,19.7493509 0.00550889773,15.5218852 C0.0934961644,11.2944194 0.315672031,9.56917461 0.315672031,9.56917461 Z M6.5021822,9.17167079 C6.5021822,8.61952355 6.95127161,8.17191977 7.50742816,8.17191977 L8.37110844,8.17191977 C8.92629045,8.17191977 9.37635439,8.62204998 9.37635439,9.17167079 L9.37635439,22.7748178 C9.37635439,23.326965 8.92726499,23.7745688 8.37110844,23.7745688 L7.50742816,23.7745688 C6.95224615,23.7745688 6.5021822,23.3244386 6.5021822,22.7748178 L6.5021822,9.17167079 Z M11.0322682,8.88287693 C11.0322682,8.49022614 11.3512041,8.17191977 11.7508112,8.17191977 C12.1476516,8.17191977 12.4693543,8.49780327 12.4693543,8.88287693 L12.4693543,23.0636116 C12.4693543,23.4562624 12.1504183,23.7745688 11.7508112,23.7745688 C11.3539708,23.7745688 11.0322682,23.4486853 11.0322682,23.0636116 L11.0322682,8.88287693 Z M14.1232092,9.17167079 C14.1232092,8.61952355 14.5736041,8.17191977 15.1205908,8.17191977 L17.3344368,8.17191977 C17.8852755,8.17191977 18.3318184,8.62204998 18.3318184,9.17167079 L18.3318184,22.7748178 C18.3318184,23.326965 17.8814235,23.7745688 17.3344368,23.7745688 L15.1205908,23.7745688 C14.5697521,23.7745688 14.1232092,23.3244386 14.1232092,22.7748178 L14.1232092,9.17167079 Z M19.9856734,8.88287693 C19.9856734,8.49022614 20.3046093,8.17191977 20.7042164,8.17191977 C21.1010568,8.17191977 21.4227594,8.49780327 21.4227594,8.88287693 L21.4227594,23.0636116 C21.4227594,23.4562624 21.1038235,23.7745688 20.7042164,23.7745688 C20.307376,23.7745688 19.9856734,23.4486853 19.9856734,23.0636116 L19.9856734,8.88287693 Z M23.0766144,8.88287693 C23.0766144,8.49022614 23.3955503,8.17191977 23.7951574,8.17191977 C24.1919978,8.17191977 24.5137004,8.49780327 24.5137004,8.88287693 L24.5137004,23.0636116 C24.5137004,23.4562624 24.1947645,23.7745688 23.7951574,23.7745688 C23.398317,23.7745688 23.0766144,23.4486853 23.0766144,23.0636116 L23.0766144,8.88287693 Z" id="Path-1" fill="#00AEEF"></path>
        <path d="M45.8971999,21.1584 C43.0328,21.1584 42.2276,19.812 42.1352,19.6536 C41.9636,19.3368 42.0824,18.9276 42.3992,18.756 C42.716,18.5844 43.112,18.7032 43.2836,19.0068 C43.31,19.0332 43.442,19.218 43.7852,19.4028 C44.4452,19.7592 45.3031999,19.8384 45.8971999,19.8384 C46.7683999,19.8384 47.4283999,19.6536 47.7979999,19.3104 C48.0883999,19.0464 48.1543999,18.7164 48.1543999,18.492 C48.1543999,18.0036 48.0091999,17.634 47.6923999,17.3304001 C47.2831999,16.9212001 46.5703999,16.6176001 45.5671999,16.4196001 C44.8411999,16.2612001 44.2076,16.0104001 43.706,15.6672001 C43.2836,15.3768001 42.9536,15.0204001 42.716,14.5980001 C42.3332,13.9380001 42.3332,13.3440001 42.3332,13.1856001 C42.3332,12.4860001 42.6632,11.7864001 43.2308,11.2848001 C43.508,11.0340001 43.8512,10.8360001 44.234,10.6908001 C44.6299999,10.5456002 45.0655999,10.4796002 45.5143999,10.4796002 C48.0883999,10.4796002 48.8407999,11.6940001 48.9199999,11.8392001 C49.0915999,12.1560001 48.9859999,12.5652001 48.6691999,12.7368001 C48.3523999,12.9084001 47.9563999,12.8028001 47.7847999,12.4992001 C47.7583999,12.4728001 47.6395999,12.3276001 47.3491999,12.1560001 C47.0323999,11.9976001 46.4647999,11.7996001 45.5143999,11.7996001 C44.7883999,11.7996001 44.3528,12.0504001 44.102,12.2748001 C43.8248,12.5256001 43.6532,12.8688001 43.6532,13.2120001 L43.6532,13.2384001 C43.6532,13.2912001 43.6532,13.6212001 43.8908,14.0040001 C44.036,14.2416001 44.234,14.4396001 44.4979999,14.6112001 C44.8411999,14.8356001 45.2899999,15.0072001 45.8311999,15.1260001 C47.0983999,15.3768001 48.0091999,15.7860001 48.6163999,16.3800001 C49.1839999,16.9344001 49.4743999,17.6472 49.4743999,18.492 C49.4743999,19.1784 49.1971999,19.812 48.6955999,20.2872 C48.0751999,20.868 47.1247999,21.1584 45.8971999,21.1584 L45.8971999,21.1584 Z M61.1299997,20.9472 C60.7735997,20.9472 60.4699997,20.6436 60.4699997,20.2872 L60.4699997,13.2516001 L57.2227998,17.7 C57.1039998,17.8716 56.9059998,17.964 56.6947998,17.964 C56.4835998,17.964 56.2855998,17.8716 56.1535998,17.7 L52.9063998,13.2516001 L52.9063998,20.2872 C52.9063998,20.6436 52.6159998,20.9472 52.2463998,20.9472 C51.8899998,20.9472 51.5863998,20.6436 51.5863998,20.2872 L51.5863998,11.2320001 C51.5863998,10.9416001 51.7711998,10.6908001 52.0483998,10.5984002 C52.3123998,10.5060002 52.6159998,10.6116002 52.7875998,10.8360001 L56.6947998,16.1952001 L60.6019997,10.8360001 C60.7735997,10.6116002 61.0639997,10.5060002 61.3411997,10.5984002 C61.6051997,10.6908001 61.7899997,10.9416001 61.7899997,11.2320001 L61.7899997,20.2872 C61.7899997,20.6436 61.4995997,20.9472 61.1299997,20.9472 L61.1299997,20.9472 Z M64.4959997,21 C64.3639997,21 64.2187997,20.9604 64.0999997,20.868 C63.8491997,20.6832 63.7567997,20.34 63.9019997,20.0496 L68.2975996,10.9944001 C68.4163996,10.7700001 68.6407996,10.6248001 68.8915996,10.6248001 C69.1423996,10.6248001 69.3799996,10.7700001 69.4855996,10.9944001 L73.9075995,20.0364 C74.0659995,20.3532 73.9339995,20.7492 73.6039995,20.9076 C73.2739995,21.0792 72.8779995,20.934 72.7195995,20.6172 L71.6899996,18.492 C71.0035996,18.294 70.2775996,18.2676 69.4987996,18.4128 C68.7727996,18.5448 68.0203996,18.8088 67.2415996,19.218 C65.8951996,19.9308 64.9579997,20.802 64.9447997,20.8152 C64.8259997,20.934 64.6543997,21 64.4959997,21 L64.4959997,21 Z M68.8915996,12.7896001 L66.2383996,18.2676 C66.3571996,18.2016 66.4759996,18.1356 66.6079996,18.0696 C67.4923996,17.5944 68.3899996,17.2776001 69.2479996,17.1192001 C69.8419996,17.0136001 70.4095996,16.9740001 70.9639996,17.0268001 L68.8915996,12.7896001 Z M76.6795995,21 C76.3099995,21 76.0195995,20.6964 76.0195995,20.34 L76.0195995,11.2848001 C76.0195995,10.9152001 76.3099995,10.6248001 76.6795995,10.6248001 L80.5999994,10.6248001 C80.6527994,10.6248001 80.9695994,10.6248001 81.3787994,10.7304001 C81.9595994,10.8756001 82.4743994,11.1660001 82.8571994,11.5488001 C83.1607994,11.8392001 83.3851994,12.1956001 83.5435994,12.6048001 C83.7283994,13.0536001 83.8075994,13.5684001 83.8075994,14.1360001 C83.8075994,15.3768001 83.2795994,16.3404001 82.2895994,16.9080001 C82.0519994,17.0400001 81.7879994,17.1588001 81.4975994,17.2380001 C82.0651994,17.7264 82.5799994,18.3468 82.9891994,19.0728 C83.3323994,19.6536 83.7019994,19.6536 83.7547994,19.6536 C84.1111994,19.614 84.4411994,19.8516 84.4939994,20.208 C84.5467994,20.5644 84.2959994,20.9076 83.9395994,20.9604 C83.8471994,20.9736 83.5435994,21 83.1343994,20.868 C82.7779994,20.736 82.2631994,20.4456 81.8539994,19.7328 C81.3919994,18.9408 80.8243994,18.3204 80.1643994,17.898 C79.7023994,17.5944 79.3591994,17.5020001 79.3327994,17.5020001 C78.9895995,17.4360001 78.7651995,17.1324001 78.8047995,16.7892001 C78.8311995,16.4460001 79.1215994,16.1952001 79.4647994,16.1952001 C80.4019994,16.1952001 81.1279994,16.0500001 81.6427994,15.7596001 C82.2235994,15.4296001 82.4875994,14.9148001 82.4875994,14.1360001 C82.4875994,13.6080001 82.3951994,13.1724001 82.1971994,12.8292001 C82.0519994,12.5784001 81.8539994,12.3804001 81.5899994,12.2220001 C81.1279994,11.9580001 80.6395994,11.9448001 80.5999994,11.9448001 L77.3395995,11.9448001 L77.3395995,20.34 C77.3395995,20.6964 77.0491995,21 76.6795995,21 L76.6795995,21 Z M93.5887992,19.6668 L87.9391993,19.6668 L87.9391993,16.4460001 L92.8231993,16.4460001 C93.1927992,16.4460001 93.4831992,16.1556001 93.4831992,15.7860001 C93.4831992,15.4296001 93.1927992,15.1260001 92.8231993,15.1260001 L87.9391993,15.1260001 L87.9391993,11.9448001 L93.4567992,11.9448001 C93.8263992,11.9448001 94.1167992,11.6544001 94.1167992,11.2848001 C94.1167992,10.9152001 93.8263992,10.6248001 93.4567992,10.6248001 L87.2791993,10.6248001 C86.9227993,10.6248001 86.6191993,10.9152001 86.6191993,11.2848001 L86.6191993,20.3268 C86.6191993,20.6964 86.9227993,20.9868 87.2791993,20.9868 L93.5887992,20.9868 C93.9583992,20.9868 94.2487992,20.6964 94.2487992,20.3268 C94.2487992,19.9572 93.9583992,19.6668 93.5887992,19.6668 L93.5887992,19.6668 Z M100.201999,21.1584 C97.3375992,21.1584 96.5323992,19.812 96.4399992,19.6536 C96.2683992,19.3368 96.3871992,18.9276 96.7039992,18.756 C97.0207992,18.5844 97.4167992,18.7032 97.5883992,19.0068 C97.6147992,19.0332 97.7467992,19.218 98.0899992,19.4028 C98.7499992,19.7592 99.6079992,19.8384 100.201999,19.8384 C101.073199,19.8384 101.733199,19.6536 102.102799,19.3104 C102.393199,19.0464 102.459199,18.7164 102.459199,18.492 C102.459199,18.0036 102.313999,17.634 101.997199,17.3304001 C101.587999,16.9212001 100.875199,16.6176001 99.8719991,16.4196001 C99.1459992,16.2612001 98.5123992,16.0104001 98.0107992,15.6672001 C97.5883992,15.3768001 97.2583992,15.0204001 97.0207992,14.5980001 C96.6379992,13.9380001 96.6379992,13.3440001 96.6379992,13.1856001 C96.6379992,12.4860001 96.9679992,11.7864001 97.5355992,11.2848001 C97.8127992,11.0340001 98.1559992,10.8360001 98.5387992,10.6908001 C98.9347992,10.5456002 99.3703992,10.4796002 99.8191992,10.4796002 C102.393199,10.4796002 103.145599,11.6940001 103.224799,11.8392001 C103.396399,12.1560001 103.290799,12.5652001 102.973999,12.7368001 C102.657199,12.9084001 102.261199,12.8028001 102.089599,12.4992001 C102.063199,12.4728001 101.944399,12.3276001 101.653999,12.1560001 C101.337199,11.9976001 100.769599,11.7996001 99.8191992,11.7996001 C99.0931992,11.7996001 98.6575992,12.0504001 98.4067992,12.2748001 C98.1295992,12.5256001 97.9579992,12.8688001 97.9579992,13.2120001 L97.9579992,13.2384001 C97.9579992,13.2912001 97.9579992,13.6212001 98.1955992,14.0040001 C98.3407992,14.2416001 98.5387992,14.4396001 98.8027992,14.6112001 C99.1459992,14.8356001 99.5947992,15.0072001 100.135999,15.1260001 C101.403199,15.3768001 102.313999,15.7860001 102.921199,16.3800001 C103.488799,16.9344001 103.779199,17.6472 103.779199,18.492 C103.779199,19.1784 103.501999,19.812 103.000399,20.2872 C102.379999,20.868 101.429599,21.1584 100.201999,21.1584 L100.201999,21.1584 Z" id="Smares" fill="#FFFFFF"></path>
    </g>
</svg>