<?xml version="1.0" encoding="UTF-8"?>
<svg width="260px" height="170px" viewBox="0 0 260 170" version="1.1" xmlns="http://www.w3.org/2000/svg" xmlns:xlink="http://www.w3.org/1999/xlink">
    <!-- Generator: Sketch 51.1 (57501) - http://www.bohemiancoding.com/sketch -->
    <title>Portable POS</title>
    <desc>Created with Sketch.</desc>
    <defs></defs>
    <g id="Icons" stroke="none" stroke-width="1" fill="none" fill-rule="evenodd">
        <path d="M62.4727244,5.52503717 C66.1844178,3.6543553 69.6777763,1.26162266 73.6805828,0 C87.2173469,0.261025378 100.681333,4.06039477 112.325861,10.9775673 C113.606759,11.6881364 114.465543,12.9062548 115.440772,13.9503563 C112.500529,14.9799564 109.720398,16.4010946 106.998489,17.9092412 C85.4270007,30.0179185 63.6371773,41.7495591 42.0656888,53.8727378 C89.9829223,85.3843015 138.002046,116.721848 185.962946,148.160905 C190.999205,151.641243 197.709364,150.771159 203.080403,148.52344 C214.128149,143.766978 223.07988,135.55918 233.021396,128.990041 C241.143454,123.363494 248.595952,118.839054 256.223118,112.545442 C256.504528,110.350896 256.504528,109.026433 256.223118,108.572056 C259.862033,110.022197 259.046916,113.749059 259.512697,116.417319 C259.629143,121.855347 261.4486,128.337478 257.212903,132.731405 C244.91337,147.015294 229.033145,158.210382 211.813799,165.838124 C204.273967,168.520884 195.322236,172.27675 187.607736,168.201853 C160.35954,152.105288 134.02835,134.515078 107.056712,117.983471 C99.5314355,113.763561 92.180827,108.557555 83.5347648,106.991402 C75.2525942,109.964191 66.7811999,113.952079 57.6839122,112.545442 C39.7076718,109.297126 21.876988,100.7993 10.7273522,85.9498565 C0.916837208,72.9710946 -2.9258571,55.2648731 2.41607022,39.7048603 C3.12929757,37.2831249 5.35631359,35.8619867 7.48143999,34.7743809 C25.9089059,25.2034504 44.1180369,15.211979 62.4727244,5.52503717 Z M126.299295,20.5049936 C167.011476,46.6510357 207.98566,72.4200411 248.552285,98.7691028 C250.779301,100.494771 252.220312,102.931007 253.850546,105.178726 L253.559432,106.034309 C252.555092,108.949093 250.85208,111.776868 248.144727,113.415527 C233.749179,122.783438 219.426409,132.26736 205.045417,141.649772 C197.389139,146.710764 186.92362,144.941592 179.835013,139.692082 C136.997705,110.544248 93.3016129,82.6870393 50.2750811,53.843735 C72.8509102,41.2565112 95.4704063,28.7707972 118.133569,16.3575904 C121.161147,16.5026045 123.66472,19.0983568 126.299295,20.5049936 Z M70.7112282,61.4134709 C106.605486,85.7758396 142.921859,109.54365 178.990785,133.644994 C181.145023,135.994222 183.357483,133.369467 185.366164,132.281861 C203.007624,120.376204 221.304089,109.384135 238.639881,97.0289337 C202.323508,74.0732018 165.817912,51.3639939 129.778097,27.9732197 C116.474224,35.2964317 103.679799,43.5187311 90.1139233,50.3633966 C83.5638762,53.8872392 76.9119394,57.2950705 70.7112282,61.4134709 Z M77.6397224,61.8920175 C94.6116223,51.7990362 112.005636,42.4456268 128.977536,32.3816483 C163.44534,53.916242 198.000477,75.2913202 232.395502,96.9274238 C231.434829,98.7401 229.469815,99.5956832 227.868692,100.741295 C212.090356,110.616755 196.574022,120.912756 180.766575,130.744712 C178.248446,129.758616 176.12332,128.032948 173.881748,126.582807 C141.859296,104.932202 109.633064,83.5861267 77.6397224,61.8920175 Z M91.7441572,44.0407819 C93.7538745,44.0407819 95.3830723,43.0669065 95.3830723,41.8655704 C95.3830723,40.6642343 93.7538745,39.6903589 91.7441572,39.6903589 C89.7344399,39.6903589 88.1052422,40.6642343 88.1052422,41.8655704 C88.1052422,43.0669065 89.7344399,44.0407819 91.7441572,44.0407819 Z" id="Portable-POS" fill="#FFFFFF" fill-rule="nonzero"></path>
    </g>
</svg>