<?xml version="1.0" encoding="UTF-8"?>
<svg width="186px" height="186px" viewBox="0 0 186 186" version="1.1" xmlns="http://www.w3.org/2000/svg" xmlns:xlink="http://www.w3.org/1999/xlink">
    <!-- Generator: Sketch 51.1 (57501) - http://www.bohemiancoding.com/sketch -->
    <title>POS</title>
    <desc>Created with Sketch.</desc>
    <defs></defs>
    <g id="Icons" stroke="none" stroke-width="1" fill="none" fill-rule="evenodd">
        <path d="M77.5180588,0.0219408493 C108.502014,-0.0119571295 139.490812,-0.00227199267 170.474767,0.0219408493 C170.498981,31.0046935 170.508666,61.9922886 170.474767,92.9750412 C139.485969,93.0137818 108.497171,93.0040966 77.513216,92.9798838 C77.4890022,61.9971312 77.4793167,31.009536 77.5180588,0.0219408493 Z M93.0100363,15.5181597 C93.0245646,36.1620288 92.9712943,56.8107404 93.0342501,77.4594521 C113.683763,77.5224055 134.328434,77.4691372 154.977947,77.4885075 C154.963418,56.8397959 155.016689,36.1910842 154.953733,15.5423726 C134.30422,15.4794192 113.654707,15.5326874 93.0100363,15.5181597 Z M107.184784,31.1257577 C109.063774,30.8787867 110.962134,30.9950083 112.850809,30.9950083 C121.892235,31.0240637 130.928819,30.9514252 139.965402,31.0289063 C144.110801,31.1548131 147.597586,35.0918212 147.224694,39.222532 C147.093939,43.1934381 143.500614,46.5880786 139.529554,46.4863846 C129.170898,46.5251252 118.817085,46.5251252 108.458429,46.4863846 C104.511583,46.5977637 100.913415,43.1885955 100.763289,39.25643 C100.419454,35.430801 103.368692,31.6584402 107.184784,31.1257577 Z M106.715037,54.4427245 C107.610947,54.2587069 108.53107,54.2490218 109.441509,54.2393366 C119.306203,54.2490218 129.175741,54.2344941 139.040435,54.2441792 C141.558669,54.1521704 144.149543,55.2175354 145.645955,57.2901547 C147.607271,59.7840774 147.786453,63.4789571 146.038218,66.1326846 C144.667718,68.3505809 142.125271,69.7355555 139.524711,69.7500832 C129.335552,69.7646109 119.14155,69.7355555 108.95239,69.7646109 C105.954724,69.87599 102.898945,68.2634147 101.591401,65.5128358 C99.2232927,61.2707459 101.954607,55.3724976 106.715037,54.4427245 Z M7.78236728,31.0192212 C28.4415659,30.9901657 49.1007645,30.975638 69.7599631,31.0240637 C69.7599631,41.3484195 69.7744914,51.6727754 69.7551203,61.9922886 C62.0067102,62.0165015 54.2631428,61.9971312 46.5147326,62.0068163 C46.5147326,77.4933501 46.5195754,92.9847264 46.5147326,108.476103 C83.3196809,108.485788 120.124629,108.476103 156.929577,108.480945 C161.191203,108.495473 165.622325,108.13228 169.666027,109.769068 C178.925377,113.275088 186.286366,122.567977 185.986116,132.69863 C185.990958,142.388609 185.986116,152.073746 185.990958,161.763725 C186.291209,171.778157 179.075502,180.911241 170.019548,184.557695 C165.409244,186.475352 160.334035,185.903929 155.476751,185.966882 C111.393139,185.98141 67.3095284,185.976567 23.23076,185.971725 C17.0659312,185.913614 11.225567,182.872481 6.98815524,178.509327 C2.89118336,174.325348 0.0533281416,168.683756 0.0145860908,162.756452 C5.78217594e-05,152.567688 0.0339571162,142.378924 5.78217594e-05,132.19016 C-0.02415596,122.001396 7.55960049,112.742405 17.0223464,109.52694 C21.5164243,107.919207 26.3398096,108.645593 31.003384,108.476103 C30.9936985,92.9944115 31.0372833,77.5127203 30.9791702,62.0310292 C23.2452883,61.9390204 15.5114064,62.0649272 7.78236728,61.9826035 C7.74362523,51.6630902 7.74846799,41.3387344 7.78236728,31.0192212 Z M20.9934066,124.156339 C19.216115,124.417838 17.4291379,125.328241 16.5429135,126.950501 C15.2305266,129.289462 15.5501485,132.069096 15.5307774,134.6405 C15.5017209,143.032671 15.5501485,151.424842 15.5114064,159.81217 C15.559834,162.383574 15.2595831,165.163208 16.5477563,167.507011 C17.7536026,169.69101 20.4171186,170.40771 22.7464844,170.456136 C68.4378906,170.485191 114.13414,170.436765 159.825546,170.475506 C162.600445,170.431923 165.709495,170.76606 168.092131,169.046948 C170.169673,167.487641 170.474767,164.669266 170.489295,162.26251 C170.455396,151.913941 170.494138,141.56053 170.469924,131.211961 C170.436025,128.979537 169.772567,126.490457 167.811251,125.192649 C165.598111,123.739878 162.832897,124.04496 160.314664,123.982007 C115.601495,124.001377 70.8883253,123.977164 26.1751559,123.996534 C24.4462919,123.991692 22.7077424,123.889998 20.9934066,124.156339 Z M60.2245758,139.671928 C61.2851395,139.458855 62.3699169,139.46854 63.4498516,139.463698 C83.6393028,139.487911 103.828754,139.444328 124.018205,139.487911 C128.328258,139.342634 132.134665,143.420076 131.727873,147.705749 C131.572905,151.657285 127.984423,155.037398 124.027891,154.969602 C103.509132,155.008342 82.9855307,154.959917 62.4619293,154.993815 C59.4642631,155.105194 56.4084838,153.492618 55.1009396,150.74204 C52.7328318,146.49995 55.4641463,140.601701 60.2245758,139.671928 Z" id="POS" fill="#FFFFFF" fill-rule="nonzero"></path>
    </g>
</svg>