<?xml version="1.0" encoding="UTF-8" standalone="no"?>
<svg width="341px" height="246px" viewBox="0 0 341 246" version="1.1" xmlns="http://www.w3.org/2000/svg" xmlns:xlink="http://www.w3.org/1999/xlink">
    <!-- Generator: Sketch 3.7.1 (28215) - http://www.bohemiancoding.com/sketch -->
    <title>slider-logo</title>
    <desc>Created with Sketch.</desc>
    <defs></defs>
    <g id="Page-1" stroke="none" stroke-width="1" fill="none" fill-rule="evenodd">
        <path d="M25.97,225.84 C10.78,225.84 6.51,218.7 6.02,217.86 C5.11,216.18 5.74,214.01 7.42,213.1 C9.1,212.19 11.2,212.82 12.11,214.43 C12.25,214.57 12.95,215.55 14.77,216.53 C18.27,218.42 22.82,218.84 25.97,218.84 C30.59,218.84 34.09,217.86 36.05,216.04 C37.59,214.64 37.94,212.89 37.94,211.7 C37.94,209.11 37.17,207.15 35.49,205.54 C33.32,203.37 29.54,201.76 24.22,200.71 C20.37,199.87 17.01,198.54 14.35,196.72 C12.11,195.18 10.36,193.29 9.1,191.05 C7.07,187.55 7.07,184.4 7.07,183.56 C7.07,179.85 8.82,176.14 11.83,173.48 C13.3,172.15 15.12,171.1 17.15,170.33 C19.25,169.56 21.56,169.21 23.94,169.21 C37.59,169.21 41.58,175.65 42,176.42 C42.91,178.1 42.35,180.27 40.67,181.18 C38.99,182.09 36.89,181.53 35.98,179.92 C35.84,179.78 35.21,179.01 33.67,178.1 C31.99,177.26 28.98,176.21 23.94,176.21 C20.09,176.21 17.78,177.54 16.45,178.73 C14.98,180.06 14.07,181.88 14.07,183.7 L14.07,183.84 C14.07,184.12 14.07,185.87 15.33,187.9 C16.1,189.16 17.15,190.21 18.55,191.12 C20.37,192.31 22.75,193.22 25.62,193.85 C32.34,195.18 37.17,197.35 40.39,200.5 C43.4,203.44 44.94,207.22 44.94,211.7 C44.94,215.34 43.47,218.7 40.81,221.22 C37.52,224.3 32.48,225.84 25.97,225.84 L25.97,225.84 Z M106.75,224.72 C104.86,224.72 103.25,223.11 103.25,221.22 L103.25,183.91 L86.03,207.5 C85.4,208.41 84.35,208.9 83.23,208.9 C82.11,208.9 81.06,208.41 80.36,207.5 L63.14,183.91 L63.14,221.22 C63.14,223.11 61.6,224.72 59.64,224.72 C57.75,224.72 56.14,223.11 56.14,221.22 L56.14,173.2 C56.14,171.66 57.12,170.33 58.59,169.84 C59.99,169.35 61.6,169.91 62.51,171.1 L83.23,199.52 L103.95,171.1 C104.86,169.91 106.4,169.35 107.87,169.84 C109.27,170.33 110.25,171.66 110.25,173.2 L110.25,221.22 C110.25,223.11 108.71,224.72 106.75,224.72 L106.75,224.72 Z M124.6,225 C123.9,225 123.13,224.79 122.5,224.3 C121.17,223.32 120.68,221.5 121.45,219.96 L144.76,171.94 C145.39,170.75 146.58,169.98 147.91,169.98 C149.24,169.98 150.5,170.75 151.06,171.94 L174.51,219.89 C175.35,221.57 174.65,223.67 172.9,224.51 C171.15,225.42 169.05,224.65 168.21,222.97 L162.75,211.7 C159.11,210.65 155.26,210.51 151.13,211.28 C147.28,211.98 143.29,213.38 139.16,215.55 C132.02,219.33 127.05,223.95 126.98,224.02 C126.35,224.65 125.44,225 124.6,225 L124.6,225 Z M147.91,181.46 L133.84,210.51 C134.47,210.16 135.1,209.81 135.8,209.46 C140.49,206.94 145.25,205.26 149.8,204.42 C152.95,203.86 155.96,203.65 158.9,203.93 L147.91,181.46 Z M189.21,225 C187.25,225 185.71,223.39 185.71,221.5 L185.71,173.48 C185.71,171.52 187.25,169.98 189.21,169.98 L210,169.98 C210.28,169.98 211.96,169.98 214.13,170.54 C217.21,171.31 219.94,172.85 221.97,174.88 C223.58,176.42 224.77,178.31 225.61,180.48 C226.59,182.86 227.01,185.59 227.01,188.6 C227.01,195.18 224.21,200.29 218.96,203.3 C217.7,204 216.3,204.63 214.76,205.05 C217.77,207.64 220.5,210.93 222.67,214.78 C224.49,217.86 226.45,217.86 226.73,217.86 C228.62,217.65 230.37,218.91 230.65,220.8 C230.93,222.69 229.6,224.51 227.71,224.79 C227.22,224.86 225.61,225 223.44,224.3 C221.55,223.6 218.82,222.06 216.65,218.28 C214.2,214.08 211.19,210.79 207.69,208.55 C205.24,206.94 203.42,206.45 203.28,206.45 C201.46,206.1 200.27,204.49 200.48,202.67 C200.62,200.85 202.16,199.52 203.98,199.52 C208.95,199.52 212.8,198.75 215.53,197.21 C218.61,195.46 220.01,192.73 220.01,188.6 C220.01,185.8 219.52,183.49 218.47,181.67 C217.7,180.34 216.65,179.29 215.25,178.45 C212.8,177.05 210.21,176.98 210,176.98 L192.71,176.98 L192.71,221.5 C192.71,223.39 191.17,225 189.21,225 L189.21,225 Z M278.88,217.93 L248.92,217.93 L248.92,200.85 L274.82,200.85 C276.78,200.85 278.32,199.31 278.32,197.35 C278.32,195.46 276.78,193.85 274.82,193.85 L248.92,193.85 L248.92,176.98 L278.18,176.98 C280.14,176.98 281.68,175.44 281.68,173.48 C281.68,171.52 280.14,169.98 278.18,169.98 L245.42,169.98 C243.53,169.98 241.92,171.52 241.92,173.48 L241.92,221.43 C241.92,223.39 243.53,224.93 245.42,224.93 L278.88,224.93 C280.84,224.93 282.38,223.39 282.38,221.43 C282.38,219.47 280.84,217.93 278.88,217.93 L278.88,217.93 Z M313.95,225.84 C298.76,225.84 294.49,218.7 294,217.86 C293.09,216.18 293.72,214.01 295.4,213.1 C297.08,212.19 299.18,212.82 300.09,214.43 C300.23,214.57 300.93,215.55 302.75,216.53 C306.25,218.42 310.8,218.84 313.95,218.84 C318.57,218.84 322.07,217.86 324.03,216.04 C325.57,214.64 325.92,212.89 325.92,211.7 C325.92,209.11 325.15,207.15 323.47,205.54 C321.3,203.37 317.52,201.76 312.2,200.71 C308.35,199.87 304.99,198.54 302.33,196.72 C300.09,195.18 298.34,193.29 297.08,191.05 C295.05,187.55 295.05,184.4 295.05,183.56 C295.05,179.85 296.8,176.14 299.81,173.48 C301.28,172.15 303.1,171.1 305.13,170.33 C307.23,169.56 309.54,169.21 311.92,169.21 C325.57,169.21 329.56,175.65 329.98,176.42 C330.89,178.1 330.33,180.27 328.65,181.18 C326.97,182.09 324.87,181.53 323.96,179.92 C323.82,179.78 323.19,179.01 321.65,178.1 C319.97,177.26 316.96,176.21 311.92,176.21 C308.07,176.21 305.76,177.54 304.43,178.73 C302.96,180.06 302.05,181.88 302.05,183.7 L302.05,183.84 C302.05,184.12 302.05,185.87 303.31,187.9 C304.08,189.16 305.13,190.21 306.53,191.12 C308.35,192.31 310.73,193.22 313.6,193.85 C320.32,195.18 325.15,197.35 328.37,200.5 C331.38,203.44 332.92,207.22 332.92,211.7 C332.92,215.34 331.45,218.7 328.79,221.22 C325.5,224.3 320.46,225.84 313.95,225.84 L313.95,225.84 Z" id="smares" fill="#FFFFFF"></path>
        <g id="Group-2" transform="translate(1.000000, 0.000000)">
            <path d="M77.0247485,1.02180368 C77.0247485,1.02180368 106.533697,2.14492929 124.935557,7.14295444 C124.935557,7.14295444 133.581752,9.46402341 135.362693,21.9653729 C135.362693,21.9653729 138.274298,34.8542088 139.979834,65.0318874 L139.979834,82.096259 C139.979834,82.096259 139.979834,95.8250645 135.182193,121.016626 C135.182193,121.016626 132.502303,135.97705 118.213316,136.870489 C118.213316,136.870489 106.094794,138.591307 80.2831291,140.891513 L63.6854278,140.891513 C63.6854278,140.891513 40.8907311,140.891509 20.1063759,136.332475 C20.1063759,136.332475 4.68158189,134.132979 3.12493733,113.724201 C3.12493733,113.724201 1.36101458,100.248519 0.0549666675,79.6796684 L0.0549666675,60.2704415 C0.0549666675,60.2704415 0.210912639,50.0889127 1.22542818,44.692096 L43.8985357,2.01898854 C43.8985357,2.01898854 64.9351165,1.00286865 76.2406006,1.00286865 L77.0247485,1.02180368 Z" id="Path-106" stroke="#FFFFFF" stroke-width="2" fill-opacity="0.299999982" fill="#FFFFFF"></path>
            <path d="M43.1872154,38 L43.9946916,38 C47.3113318,38 50,40.6798602 50,43.9984212 L50,102.001579 C50,105.314415 47.3063916,108 43.9946916,108 L43.0053084,108 C39.6886682,108 37,105.32014 37,102.001579 L37,44.3562212 C38.443957,43.686763 41.6200341,41.8381589 43.1872154,38 Z M34,44.9757661 L34,104.50474 C34,106.435119 32.4290634,108 30.5,108 C28.5670034,108 27,106.439805 27,104.50474 L27,45.0708409 L34,44.9757661 Z M105,41.4952603 C105,39.5648814 106.570937,38 108.5,38 C110.432997,38 112,39.5601947 112,41.4952603 L112,104.50474 C112,106.435119 110.429063,108 108.5,108 C106.567003,108 105,106.439805 105,104.50474 L105,41.4952603 Z M95,41.4952603 C95,39.5648814 96.5709366,38 98.5,38 C100.432997,38 102,39.5601947 102,41.4952603 L102,104.50474 C102,106.435119 100.429063,108 98.5,108 C96.5670034,108 95,106.439805 95,104.50474 L95,41.4952603 Z M85,41.4952603 C85,39.5648814 86.5709366,38 88.5,38 C90.4329966,38 92,39.5601947 92,41.4952603 L92,104.50474 C92,106.435119 90.4290634,108 88.5,108 C86.5670034,108 85,106.439805 85,104.50474 L85,41.4952603 Z M53,41.4952603 C53,39.5648814 54.5709366,38 56.5,38 C58.4329966,38 60,39.5601947 60,41.4952603 L60,104.50474 C60,106.435119 58.4290634,108 56.5,108 C54.5670034,108 53,106.439805 53,104.50474 L53,41.4952603 Z M63,43.9984212 C63,40.6855846 65.681938,38 68.9986759,38 L76.0013241,38 C79.3143013,38 82,40.6798602 82,43.9984212 L82,102.001579 C82,105.314415 79.318062,108 76.0013241,108 L68.9986759,108 C65.6856987,108 63,105.32014 63,102.001579 L63,43.9984212 Z" id="Combined-Shape" fill="#FFFFFF"></path>
            <path d="M44.1052555,1.99110568 L44.1052555,33.0573498 C44.1052555,33.0573498 43.8985634,45.0512145 32.111393,45.0512123 C20.3242226,45.05121 1.1588169,45.0512123 1.1588169,45.0512123" id="Path-107" stroke="#FFFFFF" stroke-width="2"></path>
        </g>
    </g>
</svg>