<?xml version="1.0" encoding="UTF-8"?>
<svg width="260px" height="194px" viewBox="0 0 260 194" version="1.1" xmlns="http://www.w3.org/2000/svg" xmlns:xlink="http://www.w3.org/1999/xlink">
    <!-- Generator: Sketch 51.1 (57501) - http://www.bohemiancoding.com/sketch -->
    <title>Smart Menu</title>
    <desc>Created with Sketch.</desc>
    <defs></defs>
    <g id="Icons" stroke="none" stroke-width="1" fill="none" fill-rule="evenodd">
        <path d="M7.89311618,7.91665805 C13.1555858,2.64596394 19.4816084,0 26.8729488,0 L233.131169,0 C240.519568,0 246.842649,2.64006567 252.108649,7.91665805 C257.372883,13.1967894 260,19.5350704 260,26.9468365 L260,167.055523 C260,174.465519 257.372883,180.808519 252.108649,186.085701 C246.842649,191.361704 240.523098,194 233.131169,194 L26.8723605,194 C19.4816084,194 13.1573505,191.361704 7.89311618,186.085701 C2.63005831,180.808519 0,174.465519 0,167.055523 L0,26.9462467 C0,19.5344806 2.63005831,13.1967894 7.89311618,7.91665805 Z M246.06322,89.4224925 C243.931997,87.2908577 241.413706,86.2209115 238.505994,86.2209115 C235.594753,86.2209115 233.070579,87.2908577 230.948768,89.4224925 C228.81872,91.5541273 227.752226,94.081536 227.752226,97.0011797 C227.752226,99.9196437 228.819309,102.444693 230.948768,104.580457 C233.071168,106.713861 235.595341,107.779678 238.505994,107.779678 C241.413706,107.779678 243.933761,106.713861 246.06322,104.580457 C248.18915,102.447052 249.252115,99.922003 249.252115,97.0011797 C249.252115,94.0809462 248.18915,91.5535374 246.06322,89.4224925 Z M211.848732,21.7515152 L27.0898124,21.7515152 C25.6338978,21.7515152 24.3738699,22.2841289 23.3109051,23.3499463 C22.2449991,24.4198925 21.7155756,25.6791732 21.7155756,27.1407645 L21.7155756,167.249451 C21.7155756,168.708683 22.2467639,169.970913 23.3109051,171.03791 C24.3738699,172.104907 25.6338978,172.63752 27.0898124,172.63752 L211.848732,172.63752 C213.306412,172.63752 214.56644,172.104317 215.629404,171.03791 C216.692369,169.971502 217.224146,168.708683 217.224146,167.249451 L217.224146,27.1407645 C217.224146,25.6791732 216.696487,24.4193027 215.629404,23.3499463 C214.562322,22.2882577 213.306412,21.7515152 211.848732,21.7515152 Z M114.753377,42.5671273 L119.016673,71.0204606 C120.270307,79.3589333 115.753467,87.3352727 108.137756,90.6603152 L111.762497,141.547103 C111.978479,144.608776 110.90796,147.651636 108.818569,149.899685 C106.729179,152.147733 103.771165,153.436364 100.70516,153.436364 L100.686379,153.436364 C97.6203749,153.436364 94.6623614,152.147733 92.5729708,149.899685 C90.4835803,147.651636 89.4130611,144.608776 89.6290431,141.547103 L93.2537835,90.6603152 C85.6380724,87.3352727 81.1212327,79.3589333 82.374867,71.0204606 L86.6334675,42.5671273 C86.8024968,41.4101818 87.7931966,40.5636364 88.9529257,40.5636364 C88.976402,40.5636364 89.0045735,40.5636364 89.0327451,40.5636364 C90.2206458,40.6012606 91.1925645,41.5277576 91.291165,42.7176242 L93.3476887,67.4179394 C93.4744607,68.9417212 96.1742349,68.9417212 96.301007,67.4179394 L98.3575307,42.7176242 C98.4561311,41.4995394 99.4750024,40.5636364 100.69577,40.5636364 C101.916537,40.5636364 102.935409,41.4995394 103.029314,42.7176242 L105.085838,67.4179394 C105.21261,68.9417212 107.912384,68.9417212 108.039156,67.4179394 L110.09568,42.7176242 C110.189585,41.5277576 111.161504,40.6012606 112.3541,40.5636364 C112.382271,40.5636364 112.410443,40.5636364 112.433919,40.5636364 C113.593648,40.5636364 114.584348,41.4101818 114.753377,42.5671273 Z M153.69586,40.9963152 C154.32033,41.4384 154.691255,42.1485576 154.691255,42.9151515 L154.691255,142.149091 C154.691255,148.3712 149.634461,153.436364 143.422632,153.436364 C140.243941,153.436364 137.187328,152.086594 135.05568,149.725673 C132.924032,147.364752 131.886379,144.194909 132.205657,141.02977 L135.919607,103.824097 C135.971255,103.283248 136.210714,102.780024 136.595725,102.394376 L139.600691,99.3844364 C136.581639,95.9982545 131.214957,87.6550788 131.214957,71.1333333 C131.214957,48.1825455 151.357621,40.7705697 151.559517,40.7000242 C152.277892,40.4507636 153.076086,40.5542303 153.69586,40.9963152 Z" id="Smart-Menu" fill="#FFFFFF" fill-rule="nonzero"></path>
    </g>
</svg>