<?xml version="1.0" encoding="UTF-8"?>
<svg width="474px" height="475px" viewBox="0 0 474 475" version="1.1" xmlns="http://www.w3.org/2000/svg" xmlns:xlink="http://www.w3.org/1999/xlink">
    <!-- Generator: Sketch 42 (36781) - http://www.bohemiancoding.com/sketch -->
    <title>Combined Shape</title>
    <desc>Created with Sketch.</desc>
    <defs></defs>
    <g id="Partner" stroke="none" stroke-width="1" fill="none" fill-rule="evenodd">
        <path d="M293.874691,376.568602 C288.386901,296.061981 357.434013,220.146801 357.44412,220.146801 C358.293059,218.512046 358.757955,216.705743 358.747849,214.859076 L358.747849,41.2521685 C358.737742,34.9250626 353.62389,29.808886 347.307373,29.808886 L178.82312,29.808886 C55.4236407,29.808886 22.8910507,29.8391592 22.8910507,29.8391592 C10.2479099,29.8391592 0.0100988487,43.250202 0.0100988487,59.8298432 C-7.57874181e-06,76.4296667 10.2580163,89.8709826 22.8910507,89.8508005 C10.2580163,89.8709826 -7.57874181e-06,103.271934 -7.57874181e-06,119.871758 C0.0100988487,136.400944 10.2378035,149.832169 22.8910507,149.852351 C10.2378035,149.822077 -7.57874181e-06,163.283576 -7.57874181e-06,179.832944 C-0.0101140062,196.382312 10.2378035,209.84381 22.8910507,209.84381 C10.2378035,209.833719 -7.57874181e-06,223.264944 -7.57874181e-06,239.834494 C-7.57874181e-06,287.716659 31.8857711,269.47199 108.320682,269.623356 C163.88582,269.714176 212.447204,284.588425 212.447204,311.693061 C212.447204,346.093546 204.62483,415.651347 212.447204,436.761882 C215.984454,446.297951 228.112167,474.280511 259.421879,474.280511 C290.731592,474.280511 307.942838,465.672821 306.386448,449.264728 C303.667819,420.474882 295.865657,405.721726 293.874691,376.568602 Z M451.179249,239.41194 L405.618273,239.422033 C393.040707,239.41194 382.827723,229.187818 382.807599,216.571674 L382.807599,23.1510555 C382.807599,10.5147262 393.040707,0.280510638 405.618273,0.280510638 L451.179249,0.280510638 C463.776939,0.280510638 473.999985,10.5147262 473.999985,23.1510555 L473.999985,216.531303 C473.999985,229.167632 463.776939,239.41194 451.179249,239.41194 Z M443.038385,24.1704399 C435.733334,16.8328909 423.890298,16.8328909 416.585247,24.1704399 C409.280197,31.5079889 409.280197,43.3671638 416.585247,50.6946199 C423.890298,58.0422619 435.743396,58.0422619 443.038385,50.6946199 C450.333373,43.3772567 450.333373,31.5079889 443.038385,24.1704399 Z" id="Combined-Shape" fill="#D0011B" fill-rule="nonzero"></path>
    </g>
</svg>