<?xml version="1.0" encoding="UTF-8"?>
<svg width="474px" height="475px" viewBox="0 0 474 475" version="1.1" xmlns="http://www.w3.org/2000/svg" xmlns:xlink="http://www.w3.org/1999/xlink">
    <!-- Generator: Sketch 42 (36781) - http://www.bohemiancoding.com/sketch -->
    <title>Combined Shape</title>
    <desc>Created with Sketch.</desc>
    <defs></defs>
    <g id="Partner" stroke="none" stroke-width="1" fill="none" fill-rule="evenodd">
        <path d="M293.874691,97.9924196 C288.386901,178.49904 357.434013,254.414221 357.44412,254.414221 C358.293059,256.048975 358.757955,257.855278 358.747849,259.701946 L358.747849,433.308853 C358.737742,439.635959 353.62389,444.752135 347.307373,444.752135 L178.82312,444.752135 C55.4236407,444.752135 22.8910507,444.721862 22.8910507,444.721862 C10.2479099,444.721862 0.0100988487,431.310819 0.0100988487,414.731178 C-7.57874181e-06,398.131355 10.2580163,384.690039 22.8910507,384.710221 C10.2580163,384.690039 -7.57874181e-06,371.289087 -7.57874181e-06,354.689264 C0.0100988487,338.160078 10.2378035,324.728853 22.8910507,324.708671 C10.2378035,324.738944 -7.57874181e-06,311.277446 -7.57874181e-06,294.728078 C-0.0101140062,278.17871 10.2378035,264.717211 22.8910507,264.717211 C10.2378035,264.727303 -7.57874181e-06,251.296078 -7.57874181e-06,234.726527 C-7.57874181e-06,186.844362 31.8857711,205.089031 108.320682,204.937665 C163.88582,204.846845 212.447204,189.972596 212.447204,162.867961 C212.447204,128.467475 204.62483,58.9096742 212.447204,37.7991389 C215.984454,28.2630701 228.112167,0.280510638 259.421879,0.280510638 C290.731592,0.280510638 307.942838,8.88820023 306.386448,25.2962932 C303.667819,54.0861389 295.865657,68.839295 293.874691,97.9924196 Z M451.179249,235.149081 C463.776939,235.149081 473.999985,245.393389 473.999985,258.029719 L473.999985,451.409966 C473.999985,464.046295 463.776939,474.280511 451.179249,474.280511 L405.618273,474.280511 C393.040707,474.280511 382.807599,464.046295 382.807599,451.409966 L382.807599,257.989347 C382.827723,245.373204 393.040707,235.149081 405.618273,235.138988 L451.179249,235.149081 Z M443.038385,450.390581 C450.333373,443.053032 450.333373,431.183765 443.038385,423.866401 C435.743396,416.518759 423.890298,416.518759 416.585247,423.866401 C409.280197,431.193857 409.280197,443.053032 416.585247,450.390581 C423.890298,457.72813 435.733334,457.72813 443.038385,450.390581 Z" id="Combined-Shape" fill="#7ED321" fill-rule="nonzero"></path>
    </g>
</svg>