<?xml version="1.0" encoding="UTF-8"?>
<svg width="474px" height="474px" viewBox="0 0 474 474" version="1.1" xmlns="http://www.w3.org/2000/svg" xmlns:xlink="http://www.w3.org/1999/xlink">
    <!-- Generator: Sketch 42 (36781) - http://www.bohemiancoding.com/sketch -->
    <title>confused 1 copy</title>
    <desc>Created with Sketch.</desc>
    <defs></defs>
    <g id="Partner" stroke="none" stroke-width="1" fill="none" fill-rule="evenodd">
        <g id="confused-1-copy" fill-rule="nonzero">
            <g id="Layer_1">
                <circle id="Oval" fill="#FFC10E" cx="236.966" cy="236.966" r="236.966"></circle>
                <g id="Group" transform="translate(82.000000, 93.000000)" fill="#333333">
                    <path d="M148.328,216.417 C113.814,274.455 24.992,255.949 18.945,187.523 C17.894,175.602 -0.826,175.501 0.236,187.523 C3.828,228.151 30.844,260.592 71.101,269.367 C108.395,277.494 145.555,257.685 164.477,225.862 C170.659,215.463 154.483,206.06 148.328,216.417 L148.328,216.417 Z" id="Shape"></path>
                    <path d="M311.955,266.456 C314.148,223.411 287.432,186.584 246.078,174.772 C207.65,163.794 167.561,184.134 147.883,217.226 C141.702,227.621 157.877,237.027 164.032,226.666 C201.741,163.251 296.984,193.009 293.246,266.456 C292.633,278.519 311.345,278.46 311.955,266.456 L311.955,266.456 Z" id="Shape"></path>
                    <circle id="Oval" cx="82.937" cy="62.231" r="37.216"></circle>
                    <circle id="Oval" cx="223.664" cy="62.231" r="62.162"></circle>
                </g>
            </g>
        </g>
    </g>
</svg>