<?xml version="1.0" encoding="UTF-8" standalone="no"?>
<svg width="114px" height="128px" viewBox="0 0 114 128" version="1.1" xmlns="http://www.w3.org/2000/svg" xmlns:xlink="http://www.w3.org/1999/xlink">
    <!-- Generator: Sketch 3.8.3 (29802) - http://www.bohemiancoding.com/sketch -->
    <title>Group 4</title>
    <desc>Created with Sketch.</desc>
    <defs>
        <path d="M56.7924093,111.994508 C87.3550623,111.57062 112,86.663377 112,56 C112,25.072054 86.927946,0 56,0 C25.072054,0 0,25.072054 0,56 C0,57.2320608 0.0397879912,58.4548285 0.11814916,59.6670885 L0.11814916,112.075724 L56.8742198,112.075724 L56.7924093,111.994508 Z" id="path-1"></path>
        <path d="M66.4919742,39.1969594 C66.4920014,39.2153846 66.4920151,39.2338133 66.4920151,39.2522453 C66.4920151,58.3392062 51.8785893,73.8122453 33.8520151,73.8122453 C15.8254408,73.8122453 1.21201507,58.3392062 1.21201507,39.2522453 C1.21201507,38.5392728 1.23240539,37.8313429 1.27260226,37.1290736 L1.27260226,20.6663548 L10.9561637,7.52398792 L34.0013461,7.27595761e-14 L50.2982239,2.58670895 L60.4667795,17.3943123 L65.5828091,18.6432143 L65.8504645,25.0965804 L66.5250488,27.7651999 L66.5250488,39.1960616 C66.5250488,39.1960616 66.5137378,39.1963812 66.4919742,39.1969594 Z" id="path-3"></path>
        <path d="M0.0407308639,1.28468451 C0.0407308639,1.28468451 -0.00685713856,15.6370081 11.5263619,16.586876 L19.1345314,16.6785154 C19.1345314,16.6785154 32.0741139,16.586876 32.074114,1.21072245 L4.57501546,1.21072245 L0.0407308639,1.28468451 Z" id="path-5"></path>
    </defs>
    <g id="Page-1" stroke="none" stroke-width="1" fill="none" fill-rule="evenodd">
        <g id="Group-4">
            <g id="Group-2" transform="translate(1.280000, 15.360000)">
                <mask id="mask-2" fill="white">
                    <use xlink:href="#path-1"></use>
                </mask>
                <use id="Combined-Shape" fill="#2196F3" xlink:href="#path-1"></use>
                <path d="M2.56,112.517964 L2.56,101.132467 C2.56,101.132467 5.9983439,73.3777291 35.9290523,72.9644542 C65.8597607,72.5511792 69.1235679,101.034538 69.1235679,101.034538 L69.1235679,112.495099 L2.56,112.517964 Z" id="Path-2" fill="#CFCFCF" mask="url(#mask-2)"></path>
            </g>
            <path d="M25.6,79.36 L25.6,96.0011601 C25.6,96.0011601 26.8485134,104.973988 37.104192,104.973987 C47.3598706,104.973987 47.3598708,96.0149438 47.3598708,96.0149438 L47.3598708,79.4275616 L25.6,79.36 Z" id="Path-6" fill="#804432"></path>
            <path d="M5.13459035,52.139818 C5.13459035,52.139818 1.07745873e-07,51.6845187 0,46.9332699 C-1.07745873e-07,42.1820211 5.14868515,41.8214909 5.14868515,41.8214909 L7.58764339,42.7359843 L8.39642575,47.3201353 L7.37659218,50.7789271 L5.13459035,52.139818 Z M70.4000444,52.1856261 C70.4000444,52.1856261 75.4535896,51.1568905 75.4535896,46.9455101 C75.4535897,42.7341298 70.4809041,41.8179672 70.4809041,41.8179672 C70.4809041,41.8179672 66.3539072,42.556461 66.3539071,42.556461 C66.353907,42.556461 65.3691251,46.8945092 65.3691251,46.8945092 C65.3691251,46.8945092 67.3385037,51.3256576 67.3385037,51.3256573 C67.3385036,51.325657 70.4000444,52.1856261 70.4000444,52.1856261 Z" id="Combined-Shape" fill="#804432"></path>
            <g id="Group-3" transform="translate(3.840000, 12.800000)">
                <mask id="mask-4" fill="white">
                    <use xlink:href="#path-3"></use>
                </mask>
                <use id="Combined-Shape" fill="#91513E" xlink:href="#path-3"></use>
                <polygon id="Path-9" fill="#774536" mask="url(#mask-4)" points="21.2830031 43.8759329 77.6447323 43.8759329 73.7053245 80.8921425 -28.6013242 84.9823314 -22.3909475 45.1860716 -1.28812917 43.7545055"></polygon>
            </g>
            <path d="M5.14848846,41.8355078 C5.14848846,41.8355078 2.56,39.8006559 2.56,36.3993806 L2.56,23.9626887 C2.56,23.9626887 4.02471313,5.83127106 16.5375757,3.99545441 C16.5375757,3.99545441 18.1139465,3.43643922 19.3192249,2.7128186 C19.3192249,2.7128186 19.3192249,2.24835084 28.2560881,0.672369693 C37.1929513,-0.90361145 50.4980372,2.24835087 50.4980372,2.24835087 C50.4980372,2.24835087 61.7746034,6.41118515 69.9758442,18.0859576 C69.9758442,18.0859576 72.9087332,23.1200022 72.9087343,36.4298522 C72.9087343,36.4298522 71.980734,40.2667322 70.2122298,42.7794843 C70.2122298,42.7794843 69.1332586,43.7340298 66.9838576,42.6088896 C66.9838576,42.6088896 58.0538339,35.5454832 52.1091069,25.3001055 C52.1091069,25.3001055 39.7579565,35.103645 24.0690152,37.2770546 C24.0690152,37.2770546 14.9547792,37.5831555 7.42344976,36.5021068 C7.42344976,36.5021068 6.55893394,36.3947637 6.47144355,37.2156497 C6.38395317,38.0365358 5.73680339,38.7918656 6.31977224,41.2762404 L6.05250488,41.8355078 L5.14848846,41.8355078 Z" id="Path-7" fill="#342E2C"></path>
            <circle id="Oval-3" fill="#59291A" cx="21.76" cy="42.24" r="3.84"></circle>
            <circle id="Oval-3-Copy" fill="#59291A" cx="52.48" cy="42.24" r="3.84"></circle>
            <g id="Group" transform="translate(20.480000, 56.320000)">
                <mask id="mask-6" fill="white">
                    <use xlink:href="#path-5"></use>
                </mask>
                <use id="Path-8" fill="#8F0000" xlink:href="#path-5"></use>
                <rect id="Rectangle-1" fill="#FFFFFF" mask="url(#mask-6)" x="0" y="0" width="33.28" height="6.4"></rect>
            </g>
        </g>
    </g>
</svg>