<?xml version="1.0" encoding="UTF-8" standalone="no"?>
<svg width="114px" height="127px" viewBox="0 0 114 127" version="1.1" xmlns="http://www.w3.org/2000/svg" xmlns:xlink="http://www.w3.org/1999/xlink">
    <!-- Generator: Sketch 3.8.3 (29802) - http://www.bohemiancoding.com/sketch -->
    <title>Group 6</title>
    <desc>Created with Sketch.</desc>
    <defs>
        <path d="M57.1886404,112.633437 C56.8996162,112.637807 56.6100642,112.64 56.32,112.64 C25.2153229,112.64 0,87.4246771 0,56.32 C0,25.2153229 25.2153229,0 56.32,0 C87.4246771,0 112.64,25.2153229 112.64,56.32 C112.64,56.7662044 112.634811,57.2111968 112.62449,57.6549203 L112.63692,57.644757 L112.63692,112.633437 L57.1886404,112.633437 Z" id="path-1"></path>
        <path d="M0.0407308639,1.28468451 C0.0407308639,1.28468451 -0.00685713856,15.6370081 11.5263619,16.586876 L19.1345314,16.6785154 C19.1345314,16.6785154 32.0741139,16.586876 32.074114,1.21072245 L4.57501546,1.21072245 L0.0407308639,1.28468451 Z" id="path-3"></path>
    </defs>
    <g id="Page-1" stroke="none" stroke-width="1" fill="none" fill-rule="evenodd">
        <g id="Group-6">
            <g id="Group-5" transform="translate(0.000000, 14.080000)">
                <mask id="mask-2" fill="white">
                    <use xlink:href="#path-1"></use>
                </mask>
                <use id="Combined-Shape" fill="#607D8B" xlink:href="#path-1"></use>
                <path d="M110.764297,112.642812 L110.764295,97.3240614 C110.764295,97.3240614 107.937142,71.7541762 81.8235319,71.7541762 L69.2144305,71.7541762 C69.2144305,71.7541762 45.9656452,72.8711495 43.6445443,97.3240624 L43.6445443,112.72369 L110.764297,112.642812 Z" id="Path-11" fill="#000000" mask="url(#mask-2)"></path>
            </g>
            <path d="M87.3344214,126.761846 L87.9407031,105.562187 L90.8747656,108.145156 L90.8747656,87.5785097 C90.8747656,87.5785097 90.1178125,84.52375 87.0259375,83.2 L65.5255044,83.2 C65.5255044,83.2 61.44,83.404375 61.44,87.6577344 C61.44,91.9110937 61.44,108.170319 61.44,108.170319 L64.3446495,105.53937 L66.14284,126.761846 L87.3344214,126.761846 Z" id="Path-12" fill="#FFFFFF"></path>
            <path d="M65.28,94.3103646 L75.5469783,104.577343 L87.0559922,93.068329 L87.0559912,81.92 L65.28,81.92 L65.28,94.3103646 Z" id="Path-14" fill="#DDA290"></path>
            <path d="M64,101.255421 L64,112.828376 C64,112.828376 68.418705,112.75739 71.5994508,110.236464 C71.5994508,110.236464 72.5201417,110.034768 73.5711296,110.941012 C73.5711296,110.941012 75.5193265,112.1066 77.4071767,110.941012 C79.2950268,109.775424 79.4136554,110.283832 79.4136554,110.283832 C79.4136554,110.283832 83.4832818,112.812675 88.3024624,112.812676 L88.3024624,101.260421 C88.3024624,101.260421 80.5120111,101.99428 79.3793448,105.113072 C79.3793448,105.113072 77.7711916,105.098486 77.4722588,104.429499 C77.4722588,104.429499 75.5315992,102.95706 73.6228251,104.429499 L71.7325259,105.153911 C71.7325259,105.153911 68.6962734,101.267031 65.302211,101.267031 L65.0310391,101.12 L64,101.255421 Z" id="Path-13" fill="#CD0000"></path>
            <path d="M43.5345903,51.2818508 C43.5345903,51.2818508 38.4000001,50.8265515 38.4,46.0753027 C38.3999999,41.3240539 43.5486852,40.9635237 43.5486852,40.9635237 L45.9876434,41.8780171 L46.7964258,46.4621681 L45.7765922,49.9209599 L43.5345903,51.2818508 Z M108.800044,51.3276589 C108.800044,51.3276589 113.85359,50.2989233 113.85359,46.0875429 C113.85359,41.8761626 108.880904,40.96 108.880904,40.96 C108.880904,40.96 104.753907,41.6984938 104.753907,41.6984938 C104.753907,41.6984938 103.769125,46.036542 103.769125,46.036542 C103.769125,46.036542 105.738504,50.4676904 105.738504,50.4676901 C105.738504,50.4676898 108.800044,51.3276589 108.800044,51.3276589 Z" id="Combined-Shape" fill="#DDA290"></path>
            <path d="M108.799959,50.7169594 C108.799986,50.7353846 108.8,50.7538133 108.8,50.7722453 C108.8,69.8592062 94.1865742,85.3322453 76.16,85.3322453 C58.1334258,85.3322453 43.52,69.8592062 43.52,50.7722453 C43.52,50.0592728 43.5403903,49.3513429 43.5805872,48.6490736 L43.5805872,32.1863548 L53.2641486,19.0439879 L76.309331,11.52 L92.6062089,14.1067089 L102.774764,28.9143123 L107.890794,30.1632143 L108.158449,36.6165804 L108.833034,39.2851999 L108.833034,50.7160616 C108.833034,50.7160616 108.821723,50.7163812 108.799959,50.7169594 Z" id="Combined-Shape" fill="#E7AD9C"></path>
            <circle id="Oval-3" fill="#00897B" cx="60.16" cy="40.96" r="3.84"></circle>
            <circle id="Oval-3-Copy" fill="#00897B" cx="90.88" cy="40.96" r="3.84"></circle>
            <g id="Group" transform="translate(58.880000, 55.040000)">
                <mask id="mask-4" fill="white">
                    <use xlink:href="#path-3"></use>
                </mask>
                <use id="Path-8" fill="#8F0000" xlink:href="#path-3"></use>
                <rect id="Rectangle-1" fill="#FFFFFF" mask="url(#mask-4)" x="0" y="0" width="33.28" height="6.4"></rect>
            </g>
            <path d="M45.9732613,42.2174728 C45.9732613,42.2174728 42.2400001,40.305061 42.24,35.8781161 C42.24,31.4511712 42.24,26.5290165 42.24,26.5290165 C42.24,26.5290165 44.9121511,5.81611938 68.8586621,0 L82.3757496,0 C82.3757496,0 104.246606,3.40981079 108.614643,25.5828577 L108.614643,40.8983847 L106.195639,41.9008873 L105.779965,35.8971381 C105.779965,35.8971381 97.2627783,32.4756274 90.9296951,19.8350895 C90.9296951,19.8350895 85.9237305,33.9352905 71.5211756,35.849247 C57.1186207,37.7632035 58.8582106,35.1008652 58.8582106,35.1008652 L58.8582106,29.9572997 C58.8582106,29.9572997 50.8238137,39.4753075 46.0944046,35.7979834 L46.0223994,39.9950262 L45.9732613,42.2174728 Z" id="Path-19" fill="#FFB300"></path>
        </g>
    </g>
</svg>