<?xml version="1.0" encoding="utf-8"?>
<!-- Generator: Adobe Illustrator 22.1.0, SVG Export Plug-In . SVG Version: 6.00 Build 0)  -->
<svg version="1.1" id="Layer_1" xmlns="http://www.w3.org/2000/svg" xmlns:xlink="http://www.w3.org/1999/xlink" x="0px" y="0px"
	 viewBox="0 0 841.9 595.3" style="enable-background:new 0 0 841.9 595.3;" xml:space="preserve">
<style type="text/css">
	.st0{fill:#006A90;}
	.st1{clip-path:url(#SVGID_2_);fill:#005578;}
</style>
<rect y="0" class="st0" width="841.9" height="595.3"/>
<g>
	<defs>
		<rect id="SVGID_1_" width="841.9" height="595.3"/>
	</defs>
	<clipPath id="SVGID_2_">
		<use xlink:href="#SVGID_1_"  style="overflow:visible;"/>
	</clipPath>
	<path class="st1" d="M344.7,621.6C344.7,621.6,344.7,621.6,344.7,621.6 M897.9,553.1c-4.4-1.3-9.2-1.5-13.8-0.5
		c-4.6,0.9-8.9,2.8-12.9,5c-8,4.4-14.9,10.6-22.3,14.1c-3.7,1.7-7.3,2.1-10.2,0.2l-10.5-7.8c-14.5-10.5-29.8-20.3-46.1-28
		c-16.4-7.7-33.9-13.7-52.3-15.6c-18.4-1.9-37.6,0.7-54.5,9.5c-8.5,4.4-15.9,10.9-22,17.7c-6.2,6.9-11.4,13.9-17.5,19.6
		c-11.9,11.6-28.1,18-44.6,19.5c-16.6,1.5-33.6-2.1-49.8-7.9c-16.3-5.7-32-13.6-47.8-21.6c-15.8-8-31.7-16.6-49-23
		c-8.7-3.2-17.9-5.8-27.7-6.6c-9.8-0.8-20.5,0.7-29.7,5.6c-9.2,4.8-16.6,12.5-21.8,20.8c-5.3,8.3-8.7,17.3-11.3,26.3
		c-1.6,5.3-2.8,10.6-3.9,15.9c0-0.6-0.1-1.2-0.1-1.8c-0.4-8.8-0.6-17.6-0.8-26.5c-0.2-8.9-0.4-17.8-0.7-26.8
		c-0.2-4.5-0.4-9-0.7-13.6c-0.4-4.6-0.7-9.1-2-14.4c-0.3-1.4-0.7-2.8-1.6-4.6c-0.2-0.5-0.4-0.9-0.9-1.6c-0.2-0.3-0.4-0.5-0.6-0.9
		c-0.3-0.4-0.6-0.7-1-1.1c-0.3-0.3-0.8-0.8-1.4-1.1c-0.6-0.4-1.1-0.7-2-1c-1.6-0.6-3.5-0.7-5.1-0.3c-3.1,0.8-4.2,2.2-5.1,3
		c-0.9,1-1.4,1.7-1.9,2.4c-0.9,1.4-1.5,2.7-2.1,3.9c-2.1,4.8-3.5,9.1-4.8,13.5c-2.6,8.8-4.8,17.4-7.1,26c-1.2,4.6-2.5,9.3-3.8,13.8
		c-1.2-15.3-1.3-31.1-1.5-46.8l-0.1-53.4c-0.1-8.9-0.2-17.9-0.6-27c-0.1-2.3-0.3-4.6-0.5-7c-0.1-1.2-0.2-2.4-0.4-3.7
		c-0.2-1.4-0.3-2.5-1.2-4.8c-0.3-0.6-0.4-1.4-1.9-3c-0.6-0.7-2.3-2.1-4.9-2.3c-2.6-0.1-4.2,0.9-5.1,1.6c-0.8,0.6-1.3,1.2-1.6,1.6
		c-0.4,0.5-0.5,0.7-0.7,1.1c-0.3,0.6-0.6,1-0.7,1.5c-0.7,1.6-1,2.8-1.4,4.1c-0.7,2.4-1.2,4.7-1.7,6.9c-3.7,17.9-6.1,35.5-8.7,53.1
		l-7.6,52.9c-2.6,17.6-5.2,35.2-8.2,52.6c-1.1,6-2.2,12-3.5,17.8c-2.3-17.1-3.7-34.7-6.3-52.3c-0.7-4.5-1.4-9-2.5-13.5
		c-0.5-2.3-1.2-4.6-2.1-7c-0.5-1.2-1-2.5-1.8-3.8c-0.9-1.3-1.8-3.3-5.4-4.4c-1.7-0.5-4,0-5.3,0.9c-1.3,0.9-1.9,1.7-2.5,2.4
		c-1,1.5-1.5,2.7-2,3.9c-1,2.3-1.6,4.5-2.3,6.7c-1.4,4.3-2.7,8.4-4.3,12.3c-3.1,7.9-7.3,15.1-13.5,20c-6,4.9-14.2,7.2-22.4,7.4
		c-4.1,0.1-8.3-0.3-12.4-1.1c-4.2-0.7-8.1-2.1-12.6-3.3c-8.9-2.4-17.9-3.7-26.8-4.7c-17.9-1.8-35.8-2.3-53.7-2.2
		c-17.9,0.1-35.7,0.8-53.5,1.9c-35.6,2-71.1,5.4-106.5,9.5c35.5-2.6,71.1-4.7,106.6-5.7c17.8-0.5,35.6-0.7,53.3-0.3
		c17.7,0.4,35.5,1.4,52.9,3.7c8.7,1.3,17.3,2.8,25.6,5.2c4,1.1,8.6,2.8,13.1,3.7c4.6,1,9.3,1.5,14.1,1.5c9.5-0.1,19.5-2.5,27.6-8.7
		c8-6.2,13-14.9,16.6-23.4c1.8-4.3,3.3-8.6,4.7-12.8c0.5-1.5,1.1-3,1.6-4.4c0.5,1.6,1,3.3,1.3,5c0.9,4.1,1.5,8.4,2.1,12.8
		c2.3,17.4,3.3,35.1,5.4,53.1c0.6,4.6,1.1,8.9,2.7,14.2c0.2,0.7,0.5,1.4,1,2.3c0.6,0.9,0.7,2,3.5,3.7c0.7,0.4,1.8,0.7,2.7,0.7
		c1,0,2-0.2,2.8-0.5c0.9-0.3,1.2-0.6,1.8-1c0.3-0.3,0.7-0.6,1-0.9c1-1.1,1.4-1.8,1.8-2.6c1.5-2.8,2.1-5,2.9-7.3
		c2.7-9,4.4-17.8,6.2-26.6c3.4-17.6,6.3-35.2,9.1-52.8l8.1-52.8c0.6-4,1.3-8,1.9-11.9l0,41.4c0.2,17.9,0.2,35.7,1.9,54.1
		c0.2,2.3,0.5,4.7,1,7.1c0.5,2.5,0.8,4.8,2.2,8.2c0.4,0.9,0.8,1.8,1.9,3.2c0.5,0.6,1.3,1.5,2.6,2.2c1.3,0.8,3.2,1.3,5,1.2
		c3.7-0.4,5.1-2.1,6.1-2.9c0.9-1,1.5-1.8,2-2.5c1.8-2.9,2.6-5.1,3.6-7.4c3.4-9,5.6-17.6,8-26.3c2.1-7.8,4.2-15.5,6.4-23
		c0.2,3.2,0.4,6.3,0.5,9.5c0.4,8.8,0.6,17.7,0.8,26.6c0.2,8.9,0.5,17.9,0.9,26.9c0.2,4.5,0.5,9,1,13.7c0.5,4.6,1,9.2,2.3,14.4
		c0.4,1.4,0.8,2.8,1.7,4.4l0.8,1.4c0.4,0.6,0.7,1,1.2,1.6c1,1.1,2.8,2.7,5.7,3.2c1.5,0.3,3.5,0,4.9-0.7c1.4-0.7,2.4-1.5,3-2.2
		c1.3-1.4,1.7-2.4,2.2-3.3c0.8-1.7,1.2-3,1.5-4.3c1.3-5,1.9-9.3,2.8-13.7c1.5-8.7,3.2-17.2,5.5-25.3c4.6-16.1,12.5-31.5,25.9-38.6
		c6.6-3.5,14.1-4.8,22.1-4.2c7.9,0.6,16.1,2.8,24.1,5.6c32.2,11.9,62.7,32,97.4,43.8c17.3,5.9,36.1,9.6,55.1,7.6
		c9.4-1.1,18.8-3.5,27.4-7.4c8.7-3.8,16.8-9.4,23.5-16.1c6.7-6.7,12.1-14.1,17.7-20.5c5.6-6.5,11.7-12,19-16
		c14.6-8,32.1-10.8,49.1-9.3c17.1,1.4,33.9,6.8,49.8,13.9c15.9,7.3,31.2,16.2,45.8,26.2l5.4,3.8l2.7,2c0.9,0.6,1.7,1.3,3.1,2
		c2.4,1.3,5.4,1.9,8.1,1.6c2.7-0.3,5.1-1.2,7.3-2.3c8.4-4.7,14.5-11,21.9-15.7c7.2-4.8,15.8-7.6,24.3-5.6c8.5,1.8,16,7.2,22.5,13.2
		C913.8,561.8,906.8,555.7,897.9,553.1"/>
	<path class="st1" d="M297.8,88.7l-23.1,39.7l-31.2-18.2l23.1-39.7c2.4-4.2,6.3-7.1,11-8.4c4.7-1.2,9.5-0.6,13.7,1.9
		C299.9,69,302.8,80.1,297.8,88.7 M292.6,61.8c-9.8-5.7-22.4-2.4-28.1,7.4l-23.2,39.8l-23.2,39.8c-5.7,9.8-2.4,22.4,7.4,28.1
		c9.8,5.7,22.4,2.4,28.1-7.4l23.2-39.8l-3-1.8l-29.4-17.1l-0.2-0.1l0.2,0.1l29.4,17.1l3,1.8L300,89.9
		C305.7,80.1,302.4,67.6,292.6,61.8"/>
	<path class="st1" d="M220,330.6c0.3,1.3-0.5,2.6-1.8,2.9l-27.4,6.4c-1.3,0.3-2.6-0.5-2.9-1.8l-3.2-13.9c-0.3-1.3,0.5-2.6,1.8-2.9
		l27.4-6.4c1.3-0.3,2.6,0.5,2.9,1.8L220,330.6z M212.7,310.2l-27.4,6.4c-3.9,0.9-6.4,4.9-5.5,8.8l3.2,13.9c0.9,3.9,4.9,6.4,8.8,5.5
		l27.4-6.4c3.9-0.9,6.4-4.9,5.5-8.8l-3.2-13.9C220.6,311.7,216.7,309.2,212.7,310.2"/>
	<path class="st1" d="M229,364.7l-12.4,2.9l2.9,12.4l-9.3,2.2l-2.9-12.4l-12.4,2.9l-2.2-9.3l12.4-2.9l-2.9-12.4l9.3-2.2l2.9,12.4
		l12.4-2.9L229,364.7z M254.6,315.7l-105.5,24.7c-3.9,0.9-6.4,4.9-5.5,8.8l14.4,61.5c0.9,3.9,4.9,6.4,8.8,5.5l105.5-24.7
		c3.9-0.9,6.4-4.9,5.5-8.8l-14.4-61.5C262.5,317.3,258.6,314.8,254.6,315.7"/>
	<path class="st1" d="M430.8,426.4c-9.7,20.6-32.6,19.2-47.1,14.8c-21.5-6.7-35.3-23.8-30.8-38.5c0.1-0.3-4.2,13.7-4.8,15.6
		c-4.5,14.7,9.3,32,30.8,38.5c21.5,6.6,42.6,0,47.1-14.8C426.6,440.1,431.1,425.8,430.8,426.4"/>
	<path class="st1" d="M430.3,421c3-14.3-10.6-30.5-31.2-36.8c-1.7-0.5-3.4-0.9-5.1-1.3l2.9,17.6l6.4,39.2c0,0,0,0.1,0,0.1
		c0,0,0,0,0.1,0c13.1-1,23.5-7.3,26.5-17.1C430.1,422.1,430.2,421.5,430.3,421"/>
	<path class="st1" d="M394.1,439.6l-7-42.9l-2.4-14.5c-13.7,0.5-24.9,6.5-28.4,16.4c-0.1,0.3-0.2,0.6-0.3,0.9
		c-4.5,14.7,9.3,32,30.8,38.5C389.2,438.7,391.7,439.3,394.1,439.6C394.1,439.7,394.1,439.7,394.1,439.6
		C394.1,439.7,394.1,439.6,394.1,439.6"/>
	<path class="st1" d="M807.8,445.3c-3.5,3.4-7,6.7-10.5,10.1c-0.7,0.6-1.3,1.3-2,2c-1.9,1.9-4,2.6-6.6,1.4c-0.7-0.3-1.9-0.2-2.5,0.3
		c-6.9,6.1-15.2,7.3-23.9,7.4c-11.6,0.1-22.9-1.9-33.9-5.3c-10.1-3.1-20.2-6.2-30-10.1c-9.3-3.7-18.2-8.2-27.2-12.6
		c-6.5-3.2-12.8-6.5-19.1-10.2c-16-9.3-31.4-19.5-46.1-30.7c-5.2-4-10.4-8.2-15.6-12.2c-1.1-0.9-2.6-1.7-4-1.9
		c-3.2-0.5-5.3-2.5-7.4-4.5c-9.9-9.3-17.8-20-21.9-33.2c-4.4-14.4-3.8-28.4,2.9-42c1.1-2.3,2.4-4.6,3.9-6.7c1-1.5,0.8-2.5-0.4-3.7
		c-10.7-10.9-21.6-21.5-31.9-32.7c-9.9-10.8-19.2-22.2-28.7-33.3c-0.5-0.6-0.9-1.4-1.7-2.5c5.7-1.4,11-2.7,16.3-3.9
		c0.5-0.1,1.5,0.6,1.9,1.1c9.5,10.8,18.8,21.8,28.6,32.4c8.8,9.5,18.1,18.4,27.1,27.6c1.3,1.3,2.3,0.9,3.5,0.1
		c8.8-5.9,18.5-8.9,29.1-9.3c6.2-0.2,12.2,0.5,18.1,2.1c11.8,3.3,22.3,9.1,31.7,17c0.8,0.6,1.8,1.4,1.9,2.3
		c1.2,5.3,5.7,7.7,9.2,10.9c16.3,15,31.6,30.9,45.8,47.9c12.3,14.8,23.5,30.3,33.4,46.8c9,15.1,16.9,30.7,21.5,47.8
		c0.2,0.6,0.3,1.1,0.4,1.7c0.2,1.4,0.6,4,0.3,4.1c-1.8,0.6-3.9,0.8-5.9,0.8c-0.6,0-1.5-1.1-1.6-1.9c-4.4-17.9-12.6-34.1-22.1-49.7
		c-9.9-16.4-21.1-31.8-33.4-46.5c-12.8-15.3-26.6-29.7-41.2-43.3c-2.9-2.7-6-5.4-9-8c-0.4-0.3-0.8-0.8-1.2-0.8
		c-5.4-0.2-8.5-4.4-12.4-7.1c-14.1-9.5-29.1-14.5-46.1-9.4c-9.8,2.9-17.7,8.7-23.1,17.5c-10.4,17.1-8.2,33.7,1.8,50
		c3.9,6.3,9,11.6,14.6,16.5c0.7,0.6,1.6,1.3,1.8,2.1c0.9,4.6,4.8,6.7,8,9.2c8.5,6.5,17,13.1,25.8,19.2c8.2,5.6,16.6,10.9,25.3,15.9
		c11.2,6.4,22.4,12.7,34,18.5c13.6,6.8,27.8,12.3,42.5,16.4c10.2,2.9,20.6,5.2,31.4,5.6c5.5,0.2,11.1,0,16.4-2
		c1.7-0.6,3.3-1.6,4.8-2.7c0.5-0.3,0.8-1.7,0.6-2c-2.5-3.4-0.7-6.2,1.2-8.9c3.1-4.4,6.2-8.7,9.3-13.1c2.2-3.1,5.4-3.9,8.5-1.7
		c3,2.2,5.8,4.6,8.5,7.1C811.5,438.5,811.3,441.9,807.8,445.3 M767.2,490.6c-3.2,4.6-6.4,9.2-9.6,13.8c-2.5,3.7-6.1,4.4-9.7,1.6
		c-2.8-2.2-5.5-4.6-8.1-7.1c-2.9-2.7-2.9-5.9,0-8.8c4.5-4.4,9-8.7,13.5-13.1c1.6-1.6,3.5-1.9,5.5-1.1c1.3,0.5,2.5,0.3,2.8-1.1
		c1.3-5.3,5.4-4.7,10.2-4.8c-1.2,3.4-2.1,6.4-3.4,9.2c-0.7,1.6-1.3,2.9-0.1,4.6C770.1,486.4,768.6,488.5,767.2,490.6 M433.6,232
		c-19,1.8-38,3.4-57.1,4.6c-11.4,0.7-22.9,0.6-34.4,0.9c-1.7,0-2.6,0.5-3.5,2.1c-5.5,10.6-14,16.9-26.2,16.7
		c-13.5-0.2-24.9-9.2-27.4-22.8c-1.9-10.4,1.2-19.6,9.2-26.5c6.7-5.6,14.4-7.9,23.6-6.3c11,2,17.5,8.4,21.5,18.1
		c0.8,1.9,1.8,2.5,3.7,2.5c33.7-0.4,67.3-2.3,100.7-6.8c31.2-4.1,62-10.3,92-19.8c27.7-8.7,54.2-19.9,78.7-35.6
		c15.2-9.8,29-21.1,40.5-35c8.3-10,15.1-21,18.5-33.7c5.5-19.9,1.1-40.3-17.5-54.8c-9.3-7.2-19.7-11.8-31.2-13.7
		c-16.9-2.7-33.5-1.5-49.1,5.9c-9.3,4.4-16.5,11.1-20,21.2c-0.6,1.8-0.8,3.8-0.6,5.7c0.3,3.2,3.4,4.3,5.9,2.3
		c2.7-2.2,3.7-5.4,4.4-8.6c0.5-2.4,0.6-4.8,1-7.2c0.2-1,0.5-2.2,1.2-2.9c2.2-2.8,9.9-7.3,14.1-8.3c0.3,3.4,1,6.8,0.9,10.2
		c-0.2,8.8-1.9,17.3-7,24.8c-4.7,6.9-13.4,10.8-20.6,9c-11.3-2.9-15.6-9.5-16.2-19c-0.5-7.3,2.1-13.8,5.7-20
		c7.7-13.3,19.7-21.1,34.1-25.7c14.2-4.5,28.7-5.2,43.5-3.8c9.9,1,19.4,3.5,28.2,7.8c20.4,9.9,35.2,24.9,40,48
		c1.8,8.5,1.6,17.1,0.2,25.7c-1.4,8.8-4.4,17.1-8.3,25c-4.1,8.3-9.2,15.9-15.1,23c-12.5,15-27.4,27.3-43.7,37.9
		c-15.9,10.3-32.9,18.7-50.4,25.9c-24.8,10.2-50.5,17.6-76.6,23.3C475.6,226.4,454.7,230,433.6,232 M309.7,173.1
		c28.9-1.5,52.2,19,56.7,43.7c-6.2,0.1-12.1-0.1-18,0.5c-4,0.4-5.7-1.1-7.6-4.6c-4.7-8.8-12.1-13.8-22-16.3
		c-13.5-3.4-27.9,5-33.7,15.1c-8.9,15.4-4.1,32.9,8.3,42.3c14.9,11.3,36.3,7.3,45.7-7.7c2.7-4.3,5.6-5,9.9-4.9
		c4.8,0.2,9.5-0.2,14.3-0.3c0.8,0,1.6,0.1,2.4,0.1c-3.8,21-24.7,41.9-52.4,42.1c-32,0.2-55.1-24.9-55.8-53.5
		C256.9,199.2,279.9,174.7,309.7,173.1 M434.4-1.7c10.4-19.8,26.3-32.7,48.9-36.2c9-1.4,18.1-1.2,26.9,1.2c6.9,1.8,14,3.5,20.2,6.7
		c7.5,3.8,14.4,8.9,21,14.1c7.4,5.8,13.7,12.8,19,20.6c0.5,0.7,0.8,1.4,1.3,2.2c-4.8,2.5-9.4,5-14,7.4c-3.3-3.9-6.4-7.9-9.9-11.6
		c-8.2-8.7-17.6-15.8-28.8-20.1c-13.9-5.3-28.1-7.2-42.5-2.2c-12.2,4.3-21.1,12.4-27,23.8c-1.6,3-3.1,6.1-4.3,9.3
		c-4.6,12.3-5.8,25.1-5.3,38.1c1.2,29.4,10.3,56.7,22.8,83c10.4,21.9,23.1,42.5,37.4,62.1c0.6,0.8,1,1.7,1.7,2.8
		c-0.9,0.3-1.6,0.7-2.2,0.8c-4.1,0.9-8.2,1.7-12.3,2.7c-1.7,0.4-2.9-0.1-3.8-1.5c-8.8-14.1-18-27.9-26.3-42.2
		c-9.9-17.2-17.8-35.5-23.8-54.5c-6.3-20-10.2-40.4-9.7-61.5C424.2,27.7,427,12.4,434.4-1.7"/>
	<path class="st1" d="M135.2,171.2l39.7,46.4l-1.9,1.6l-10.8,9.2l-1.9,1.6l-9.9-11.6l1.9-1.6l8.2-7l-1.7-2l-8.2,7l-1.9,1.6l-3.9-4.6
		l1.9-1.6l8.2-7l-1.7-2l-8.2,7l-1.9,1.6l-3.9-4.6l10-8.6l-1.7-2l-10,8.6l-3.9-4.6l10-8.6l-1.7-2l-10,8.6l-4-4.6l10-8.6l-1.7-2
		l-10,8.6l-5.6-6.6l4.1-3.5l6.3-5.4L135.2,171.2z M79,122.2l30.7,35.9l-1.2,1l11.6,17.6l1-0.9l1.6,1.8l-4.9,4.1
		c-0.5,0.4-0.8,1-0.8,1.7c-0.1,0.7,0.2,1.3,0.6,1.8l40.5,47.4l-4.7,5.1l1.5,1.8l5.2-4.5l4.5-3.8l15.6,18.2l-3.3,5.1l2.5,2.9l9.8-8.4
		l9.9-8.4l-2.5-2.9l-5.6,2.5L175.4,222l4.5-3.8l5.2-4.5l-1.5-1.8l-5.8,3.8l-40.6-47.4c-0.4-0.5-1-0.8-1.7-0.8
		c-0.7-0.1-1.3,0.2-1.8,0.6l-4.9,4.1l-1.6-1.8l1-0.9l-15.6-14.2l-1.2,1l-25-29.2L79,122.2z"/>
	<path class="st1" d="M119.4,443c-5.7-15.8-23.2-23.9-38.9-18.2c-11,4-18.2,13.7-19.7,24.5c-8.1-7.3-19.9-10.1-30.8-6.1
		C14.1,449,6,466.4,11.7,482.2c10.1,27.7,78.8,51.2,78.8,51.2S129.5,470.7,119.4,443"/>
	<path class="st1" d="M567,418.9c2.4-4.5,2.4-9.3-0.2-11c-2.7-1.8-7.3,0.6-9.9,5.5c0,0-1.5,2.7-3.5,7.1c-2,4.4-4.7,10.5-6.7,17.6
		c-2,7-3.5,15.2-2.2,23.1c0.7,3.9,2.2,7.8,4.4,10.7c0.5,0.7,1.1,1.4,1.7,2.1l1.2,1.3c0.7,0.8,1.3,1.5,1.8,2.2
		c1.9,2.6,4.1,7.1,4.5,12.9c0.2,1.6,0.1,3.4,0.1,5.1l-7.8-4.4l-1.8,3.2l9.3,5.2c-0.5,3.2-1.2,6.4-2.2,9.5c0,0.1-0.1,0.3-0.1,0.4
		l-10.9-6.1l-1.8,3.2l11.5,6.4c-1.2,3.3-2.6,6.3-3.9,8.9l-12.3-6.9l-1.8,3.2l12.4,6.9c-2,3.7-3.4,6-3.4,6c-1.3,2.2-1.9,4.5-1.9,6.6
		c0,2,0.6,3.8,2,4.5c1.4,0.8,3.1,0.7,4.9-0.3c1.8-0.9,3.6-2.7,5-5.1c0,0,1.6-2.9,3.8-7.8c2.2-4.8,5-11.6,6.9-19.4
		c1.9-7.7,2.6-16.7,0.7-24.6c-0.9-3.9-2.5-7.5-4.3-10.4c-0.9-1.5-1.8-2.8-2.8-3.9c-0.5-0.6-0.9-1.1-1.4-1.6l-1.2-1.3
		c-2-2.1-3.9-6.3-3.7-11.7c0-1.6,0.2-3.2,0.4-4.9l10.2,5.7l1.8-3.2l-11.3-6.3c0.7-2.9,1.6-5.7,2.6-8.5c0.2-0.5,0.4-0.9,0.5-1.3
		l12.5,7l1.8-3.2l-12.9-7.2c1.4-3.2,2.9-6.1,4.2-8.5l13.3,7.4l1.8-3.2l-13.3-7.4C566.2,420.2,567,418.9,567,418.9"/>
	<path class="st1" d="M607,431.5c-3.9-1.8-8.8,0.3-11.3,4.6c0,0-0.6,1-1.5,2.7l-12.9-7.2l-1.8,3.2l12.9,7.2c-1.4,2.3-3.1,5-5.2,7.9
		l-12.5-7l-1.8,3.2l12.1,6.7c-0.8,1-1.6,2.1-2.5,3.1c-1.4,1.6-2.8,3.1-4.4,4.6l-9.9-5.5l-1.8,3.2l8.8,4.9c-2.1,1.7-4.2,3.1-6.3,4
		c-2.3,1-4.3,1.3-6,1.2c-0.4,0-0.8-0.1-1.2-0.1l-2-0.4c-1.5-0.2-2.8-0.4-4.1-0.5c-2.4-0.1-5.4-0.1-8.8,0.5
		c-3.4,0.6-7.1,1.7-10.6,3.4c-7.2,3.4-13.7,8.9-18.8,14.5c-5.1,5.6-9,11.3-11.6,15.5c-2.7,4.2-4.1,7-4.1,7c-1.3,2.4-1.7,5.1-1.2,7.2
		c0.5,2.2,1.8,3.9,3.7,5c1.9,1.1,4.2,0.9,6.2,0c2.1-0.9,3.9-2.6,5.1-4.8c0,0,1.2-2.7,3.4-6.9l14.2,7.9l1.8-3.2l-14.2-7.9
		c1.5-2.7,3.3-5.5,5.5-8.5l14.2,7.9l1.8-3.2l-13.7-7.6c0.2-0.2,0.4-0.5,0.6-0.7c1.9-2.3,4-4.4,6.3-6.3l10.6,5.9l1.8-3.2l-9.2-5.1
		c2-1.4,4.1-2.7,6.2-3.5c2.8-1.2,5.6-1.7,8.1-1.8c1.3-0.1,2.5,0,3.6,0.1c0.5,0.1,1.1,0.1,1.6,0.2l1.6,0.3c2.3,0.4,5.3,0.6,8.5,0.1
		c3.2-0.5,6.6-1.7,9.7-3.4c6.3-3.3,11.9-8.4,16.5-13.3c9.2-9.9,15-19.6,15.1-19.6C612.1,439,610.9,433.3,607,431.5"/>
</g>
</svg>
