<?xml version="1.0" encoding="utf-8"?>
<!-- Generator: Adobe Illustrator 22.1.0, SVG Export Plug-In . SVG Version: 6.00 Build 0)  -->
<svg version="1.1" id="Layer_1" xmlns="http://www.w3.org/2000/svg" xmlns:xlink="http://www.w3.org/1999/xlink" x="0px" y="0px"
	 viewBox="0 0 841.9 595.3" style="enable-background:new 0 0 841.9 595.3;" xml:space="preserve">
<style type="text/css">
	.st0{fill:#F99D20;}
	.st1{clip-path:url(#SVGID_2_);fill:#F58220;}
</style>
<rect y="0" class="st0" width="841.9" height="595.3"/>
<g>
	<defs>
		<rect id="SVGID_1_" width="841.9" height="595.3"/>
	</defs>
	<clipPath id="SVGID_2_">
		<use xlink:href="#SVGID_1_"  style="overflow:visible;"/>
	</clipPath>
	<path class="st1" d="M344.5,622.5C344.5,622.5,344.5,622.5,344.5,622.5 M899.2,553.8c-4.4-1.3-9.3-1.5-13.8-0.5
		c-4.6,0.9-8.9,2.8-12.9,5c-8,4.4-14.9,10.6-22.4,14.2c-3.8,1.7-7.4,2.1-10.3,0.2l-10.5-7.8c-14.6-10.6-29.8-20.3-46.3-28.1
		c-16.4-7.7-33.9-13.8-52.4-15.6c-18.4-1.9-37.7,0.7-54.7,9.5c-8.5,4.4-16,10.9-22.1,17.8c-6.2,6.9-11.5,13.9-17.5,19.7
		c-11.9,11.6-28.2,18.1-44.7,19.6c-16.7,1.5-33.7-2.1-49.9-7.9c-16.3-5.8-32.1-13.6-48-21.7c-15.9-8-31.8-16.6-49.2-23.1
		c-8.7-3.2-17.9-5.8-27.8-6.7c-9.8-0.8-20.5,0.7-29.8,5.6c-9.3,4.8-16.6,12.5-21.8,20.8c-5.3,8.4-8.7,17.4-11.4,26.3
		c-1.6,5.3-2.8,10.7-3.9,16c0-0.6-0.1-1.2-0.1-1.8c-0.4-8.8-0.6-17.7-0.8-26.6c-0.2-8.9-0.4-17.9-0.7-26.9
		c-0.2-4.5-0.4-9.1-0.7-13.7c-0.4-4.7-0.7-9.2-2-14.5c-0.3-1.4-0.7-2.8-1.6-4.6c-0.2-0.5-0.4-0.9-0.9-1.6c-0.2-0.3-0.4-0.5-0.6-0.9
		c-0.3-0.4-0.6-0.7-1-1.1c-0.3-0.3-0.8-0.8-1.4-1.1c-0.6-0.4-1.1-0.7-2-1c-1.6-0.6-3.6-0.7-5.1-0.3c-3.1,0.8-4.2,2.2-5.1,3.1
		c-0.9,1-1.4,1.7-1.9,2.4c-0.9,1.4-1.5,2.7-2.1,3.9c-2.1,4.8-3.5,9.1-4.8,13.6c-2.6,8.8-4.9,17.5-7.2,26.1
		c-1.3,4.6-2.5,9.3-3.8,13.8c-1.2-15.3-1.3-31.2-1.5-46.9l-0.1-53.6c-0.1-9-0.2-17.9-0.6-27.1c-0.1-2.3-0.3-4.6-0.5-7
		c-0.1-1.2-0.2-2.4-0.4-3.7c-0.2-1.4-0.3-2.5-1.2-4.9c-0.3-0.6-0.4-1.4-1.9-3c-0.6-0.7-2.4-2.1-4.9-2.3c-2.6-0.1-4.3,0.9-5.1,1.6
		c-0.8,0.6-1.3,1.2-1.6,1.6c-0.4,0.5-0.5,0.7-0.7,1.1c-0.3,0.6-0.6,1-0.7,1.5c-0.7,1.6-1.1,2.8-1.4,4.1c-0.7,2.4-1.2,4.7-1.7,7
		c-3.7,18-6.1,35.6-8.8,53.3l-7.7,53c-2.6,17.6-5.2,35.3-8.2,52.7c-1.1,6-2.2,12-3.5,17.8c-2.3-17.2-3.7-34.8-6.3-52.4
		c-0.7-4.5-1.4-9-2.5-13.6c-0.5-2.3-1.2-4.6-2.1-7c-0.5-1.2-1-2.5-1.8-3.9c-0.9-1.3-1.8-3.3-5.4-4.4c-1.7-0.5-4,0-5.3,0.9
		c-1.3,0.9-1.9,1.7-2.5,2.5c-1,1.5-1.5,2.7-2,3.9c-1,2.4-1.6,4.5-2.3,6.7c-1.4,4.3-2.7,8.4-4.3,12.4c-3.1,7.9-7.4,15.2-13.5,20.1
		c-6,4.9-14.3,7.2-22.4,7.4c-4.1,0.1-8.3-0.3-12.4-1.1c-4.2-0.7-8.1-2.1-12.7-3.3c-8.9-2.4-17.9-3.7-26.9-4.8
		c-18-1.9-35.9-2.3-53.9-2.2c-17.9,0.1-35.8,0.8-53.7,1.9c-35.7,2-71.3,5.5-106.8,9.6c35.6-2.6,71.3-4.7,106.9-5.8
		c17.8-0.5,35.7-0.7,53.4-0.3c17.8,0.4,35.6,1.4,53,3.7c8.7,1.3,17.4,2.8,25.7,5.2c4,1.1,8.6,2.8,13.2,3.7c4.6,1,9.3,1.6,14.1,1.5
		c9.6-0.1,19.6-2.5,27.7-8.8c8-6.2,13.1-14.9,16.7-23.4c1.8-4.3,3.3-8.7,4.7-12.9c0.5-1.5,1.1-3,1.6-4.4c0.5,1.6,1,3.3,1.3,5
		c0.9,4.1,1.5,8.5,2.1,12.8c2.3,17.5,3.3,35.2,5.4,53.3c0.6,4.6,1.1,8.9,2.7,14.2c0.2,0.7,0.5,1.4,1,2.3c0.6,0.9,0.7,2,3.5,3.7
		c0.7,0.4,1.8,0.7,2.7,0.8c1,0,2.1-0.2,2.8-0.5c0.9-0.3,1.2-0.6,1.8-1c0.3-0.3,0.7-0.6,1-0.9c1-1.1,1.4-1.9,1.8-2.6
		c1.5-2.8,2.1-5,2.9-7.3c2.7-9.1,4.5-17.8,6.2-26.7c3.4-17.7,6.3-35.3,9.1-53l8.2-52.9c0.6-4,1.3-8,1.9-12l0,41.5
		c0.2,18,0.2,35.8,1.9,54.2c0.2,2.3,0.5,4.7,1,7.1c0.5,2.5,0.8,4.8,2.2,8.2c0.4,0.9,0.8,1.8,1.9,3.2c0.5,0.6,1.3,1.5,2.6,2.2
		c1.3,0.8,3.2,1.3,5,1.2c3.7-0.4,5.1-2.1,6.1-2.9c0.9-1,1.5-1.8,2-2.5c1.8-2.9,2.6-5.1,3.6-7.4c3.4-9.1,5.6-17.7,8-26.4
		c2.1-7.8,4.2-15.6,6.4-23.1c0.2,3.2,0.4,6.3,0.5,9.6c0.4,8.8,0.6,17.7,0.8,26.6c0.2,8.9,0.5,17.9,0.9,27c0.2,4.5,0.5,9.1,1,13.7
		c0.5,4.7,1,9.2,2.3,14.5c0.4,1.4,0.8,2.8,1.7,4.5l0.8,1.4c0.4,0.6,0.7,1,1.2,1.6c1,1.1,2.8,2.7,5.7,3.2c1.5,0.3,3.5,0,4.9-0.7
		c1.4-0.7,2.4-1.5,3-2.2c1.3-1.4,1.7-2.4,2.2-3.3c0.8-1.7,1.2-3.1,1.5-4.3c1.3-5,2-9.4,2.8-13.8c1.5-8.7,3.2-17.2,5.5-25.4
		c4.6-16.2,12.6-31.6,25.9-38.7c6.6-3.5,14.2-4.8,22.1-4.2c8,0.6,16.1,2.8,24.2,5.6c32.3,11.9,62.8,32.1,97.7,43.9
		c17.4,5.9,36.2,9.6,55.2,7.6c9.5-1.1,18.8-3.5,27.5-7.4c8.7-3.8,16.9-9.4,23.6-16.2c6.8-6.7,12.1-14.1,17.7-20.6
		c5.6-6.5,11.8-12,19.1-16c14.7-8,32.2-10.8,49.2-9.4c17.2,1.4,34,6.8,50,14c16,7.3,31.3,16.2,45.9,26.2l5.5,3.8l2.7,2
		c0.9,0.7,1.7,1.3,3.1,2c2.4,1.3,5.4,1.9,8.1,1.6c2.7-0.3,5.1-1.2,7.3-2.4c8.4-4.7,14.6-11.1,22-15.7c7.2-4.8,15.8-7.6,24.4-5.6
		c8.5,1.8,16,7.2,22.5,13.2C915.2,562.6,908.2,556.5,899.2,553.8"/>
	<path class="st1" d="M297.5,88.1l-23.2,39.8L243,109.7l23.2-39.8c2.4-4.2,6.3-7.2,11-8.4c4.7-1.2,9.6-0.6,13.7,1.9
		C299.6,68.4,302.5,79.5,297.5,88.1 M292.2,61.2c-9.8-5.7-22.4-2.4-28.2,7.4l-23.3,39.9l-23.3,39.9c-5.7,9.8-2.4,22.4,7.4,28.2
		c9.8,5.7,22.4,2.4,28.2-7.4l23.3-39.9l-3.1-1.8l-29.5-17.2l-0.2-0.1l0.2,0.1l29.5,17.2l3.1,1.8l23.3-39.9
		C305.4,79.5,302,66.9,292.2,61.2"/>
	<path class="st1" d="M219.5,330.7c0.3,1.3-0.5,2.6-1.8,2.9l-27.4,6.4c-1.3,0.3-2.6-0.5-2.9-1.8l-3.3-13.9c-0.3-1.3,0.5-2.6,1.8-2.9
		l27.4-6.4c1.3-0.3,2.6,0.5,2.9,1.8L219.5,330.7z M212.1,310.2l-27.4,6.4c-4,0.9-6.4,4.9-5.5,8.8l3.3,13.9c0.9,3.9,4.9,6.4,8.8,5.5
		l27.4-6.4c4-0.9,6.4-4.9,5.5-8.8l-3.3-13.9C220,311.7,216.1,309.3,212.1,310.2"/>
	<path class="st1" d="M228.5,364.9l-12.5,2.9l2.9,12.5l-9.3,2.2l-2.9-12.5l-12.5,2.9l-2.2-9.3l12.5-2.9l-2.9-12.5l9.3-2.2l2.9,12.5
		l12.5-2.9L228.5,364.9z M254.1,315.8l-105.8,24.8c-4,0.9-6.4,4.9-5.5,8.8l14.4,61.6c0.9,4,4.9,6.4,8.8,5.5l105.8-24.8
		c4-0.9,6.4-4.9,5.5-8.8L263,321.3C262,317.3,258.1,314.9,254.1,315.8"/>
	<path class="st1" d="M430.9,426.7c-9.7,20.6-32.7,19.3-47.2,14.8c-21.5-6.7-35.4-23.9-30.9-38.6c0.1-0.3-4.2,13.8-4.8,15.6
		c-4.5,14.8,9.3,32.1,30.9,38.6s42.7,0,47.2-14.8C426.7,440.5,431.1,426.2,430.9,426.7"/>
	<path class="st1" d="M430.4,421.3c3-14.4-10.6-30.6-31.3-36.9c-1.7-0.5-3.4-0.9-5.1-1.3l2.9,17.7l6.4,39.3c0,0,0,0.1,0,0.1
		c0,0,0,0,0.1,0c13.1-1.1,23.6-7.3,26.6-17.2C430.1,422.5,430.2,421.9,430.4,421.3"/>
	<path class="st1" d="M394,440l-7.1-43l-2.4-14.6c-13.7,0.5-25,6.5-28.5,16.4c-0.1,0.3-0.2,0.6-0.3,0.9
		c-4.5,14.8,9.3,32.1,30.9,38.6C389.2,439.1,391.6,439.7,394,440C394.1,440.1,394.1,440.1,394,440C394.1,440.1,394,440,394,440"/>
	<path class="st1" d="M808.9,445.8c-3.5,3.4-7,6.7-10.6,10.1c-0.7,0.6-1.3,1.3-2,2c-1.9,1.9-4,2.7-6.6,1.4c-0.7-0.3-1.9-0.2-2.5,0.3
		c-6.9,6.2-15.3,7.3-24,7.4c-11.6,0.1-22.9-1.9-34-5.3c-10.1-3.1-20.3-6.2-30.1-10.1c-9.3-3.7-18.3-8.2-27.2-12.6
		c-6.5-3.2-12.9-6.5-19.1-10.2c-16-9.4-31.5-19.5-46.3-30.8c-5.3-4-10.4-8.2-15.7-12.2c-1.1-0.9-2.6-1.7-4-1.9
		c-3.2-0.5-5.3-2.5-7.4-4.5c-9.9-9.4-17.9-20.1-22-33.3c-4.4-14.4-3.8-28.5,2.9-42.2c1.2-2.3,2.4-4.6,3.9-6.7c1-1.5,0.8-2.5-0.4-3.7
		c-10.7-10.9-21.7-21.5-32-32.8c-9.9-10.8-19.2-22.2-28.8-33.4c-0.5-0.6-0.9-1.4-1.7-2.5c5.8-1.4,11-2.7,16.3-3.9
		c0.5-0.1,1.5,0.6,2,1.1c9.6,10.8,18.9,21.9,28.7,32.5c8.8,9.5,18.1,18.4,27.2,27.7c1.3,1.3,2.3,1,3.5,0.1c8.8-5.9,18.6-9,29.2-9.3
		c6.2-0.2,12.2,0.5,18.2,2.2c11.8,3.3,22.4,9.2,31.8,17c0.8,0.6,1.8,1.4,2,2.3c1.2,5.3,5.7,7.7,9.2,10.9c16.4,15,31.7,31,45.9,48.1
		c12.3,14.8,23.6,30.4,33.5,47c9,15.1,16.9,30.8,21.5,47.9c0.2,0.6,0.3,1.1,0.4,1.7c0.2,1.4,0.6,4,0.3,4.2c-1.8,0.6-3.9,0.8-5.9,0.8
		c-0.6,0-1.5-1.1-1.6-1.9c-4.4-17.9-12.7-34.2-22.1-49.8c-9.9-16.4-21.2-31.9-33.5-46.6c-12.9-15.3-26.7-29.7-41.3-43.4
		c-2.9-2.7-6-5.4-9-8.1c-0.4-0.3-0.8-0.8-1.2-0.8c-5.4-0.2-8.5-4.4-12.5-7.1c-14.1-9.5-29.2-14.5-46.2-9.5
		c-9.8,2.9-17.7,8.7-23.2,17.6c-10.5,17.1-8.2,33.8,1.8,50.2c3.9,6.3,9.1,11.7,14.6,16.6c0.7,0.6,1.6,1.3,1.8,2.1
		c0.9,4.7,4.8,6.7,8,9.2c8.5,6.5,17,13.1,25.9,19.2c8.2,5.7,16.7,11,25.3,16c11.2,6.5,22.5,12.8,34.1,18.5
		c13.7,6.8,27.9,12.3,42.6,16.5c10.3,2.9,20.7,5.2,31.4,5.6c5.6,0.2,11.1,0,16.4-2c1.7-0.6,3.3-1.6,4.8-2.7c0.5-0.3,0.9-1.7,0.6-2
		c-2.5-3.4-0.7-6.2,1.2-9c3.1-4.4,6.2-8.8,9.3-13.2c2.2-3.1,5.4-3.9,8.5-1.7c3,2.2,5.8,4.6,8.5,7.1
		C812.6,438.9,812.4,442.3,808.9,445.8 M768.2,491.1c-3.2,4.6-6.5,9.2-9.6,13.9c-2.5,3.7-6.1,4.4-9.7,1.6c-2.8-2.2-5.5-4.6-8.2-7.1
		c-2.9-2.7-2.9-6,0-8.8c4.5-4.4,9.1-8.8,13.6-13.2c1.6-1.6,3.5-1.9,5.6-1.1c1.3,0.5,2.5,0.3,2.8-1.1c1.3-5.3,5.4-4.7,10.2-4.8
		c-1.2,3.4-2.1,6.4-3.4,9.3c-0.7,1.6-1.3,2.9-0.1,4.6C771.1,486.9,769.5,489.1,768.2,491.1 M433.7,231.9c-19,1.8-38.1,3.4-57.2,4.6
		c-11.5,0.7-23,0.7-34.5,0.9c-1.7,0-2.7,0.5-3.5,2.1c-5.5,10.6-14,17-26.3,16.8c-13.6-0.2-25-9.2-27.5-22.9
		c-1.9-10.5,1.2-19.7,9.3-26.6c6.7-5.7,14.4-7.9,23.6-6.3c11,2,17.5,8.4,21.5,18.2c0.8,1.9,1.8,2.5,3.7,2.5
		c33.8-0.4,67.5-2.3,101-6.8c31.3-4.2,62.1-10.4,92.3-19.8c27.7-8.7,54.4-19.9,79-35.7c15.2-9.8,29.1-21.1,40.6-35.1
		c8.3-10.1,15.1-21.1,18.6-33.8c5.5-20,1.1-40.4-17.5-55c-9.3-7.3-19.8-11.8-31.3-13.7c-16.9-2.7-33.6-1.5-49.3,5.9
		c-9.3,4.4-16.6,11.2-20,21.2c-0.6,1.8-0.8,3.8-0.6,5.7c0.3,3.2,3.4,4.3,5.9,2.3c2.7-2.2,3.7-5.4,4.4-8.6c0.5-2.4,0.6-4.8,1-7.2
		c0.2-1,0.5-2.2,1.2-3c2.2-2.8,9.9-7.4,14.2-8.3c0.3,3.4,1,6.8,0.9,10.2c-0.2,8.8-1.9,17.3-7,24.9c-4.7,7-13.5,10.9-20.7,9
		c-11.3-2.9-15.6-9.5-16.2-19.1c-0.5-7.3,2.1-13.9,5.7-20.1c7.8-13.4,19.8-21.2,34.2-25.7c14.2-4.5,28.8-5.2,43.6-3.8
		c9.9,1,19.4,3.5,28.3,7.8c20.5,10,35.3,25,40.1,48.1c1.8,8.6,1.6,17.2,0.2,25.8c-1.4,8.8-4.4,17.1-8.3,25.1
		c-4.1,8.3-9.3,16-15.2,23.1c-12.5,15.1-27.5,27.4-43.8,38c-16,10.4-33,18.7-50.6,26c-24.9,10.2-50.6,17.6-76.8,23.3
		C475.8,226.2,454.8,229.8,433.7,231.9 M309.4,172.8c29-1.5,52.4,19.1,56.8,43.8c-6.2,0.1-12.1-0.1-18,0.5c-4,0.4-5.8-1.1-7.6-4.6
		c-4.7-8.8-12.2-13.9-22.1-16.3c-13.5-3.4-28,5-33.8,15.1c-8.9,15.4-4.1,33,8.3,42.5c15,11.3,36.4,7.3,45.9-7.7
		c2.8-4.4,5.6-5,9.9-4.9c4.8,0.2,9.6-0.2,14.4-0.3c0.8,0,1.6,0.1,2.4,0.1c-3.8,21-24.7,42.1-52.5,42.2c-32.1,0.2-55.3-25-55.9-53.7
		C256.5,199,279.5,174.4,309.4,172.8 M434.5-2.5c10.5-19.9,26.4-32.8,49.1-36.3c9.1-1.4,18.1-1.2,27,1.2c6.9,1.8,14,3.5,20.3,6.7
		c7.5,3.8,14.4,8.9,21.1,14.1c7.4,5.8,13.7,12.9,19,20.7c0.5,0.7,0.8,1.4,1.3,2.2c-4.8,2.6-9.4,5-14,7.5c-3.3-3.9-6.5-7.9-10-11.6
		c-8.2-8.7-17.7-15.9-28.9-20.2c-13.9-5.4-28.2-7.3-42.6-2.2C464.5-16.1,455.5-8,449.6,3.5c-1.6,3.1-3.1,6.2-4.3,9.4
		C440.7,25.1,439.5,38,440,51c1.2,29.5,10.3,56.8,22.8,83.3c10.4,22,23.1,42.6,37.5,62.3c0.6,0.8,1,1.7,1.7,2.8
		c-0.9,0.3-1.6,0.7-2.3,0.8c-4.1,0.9-8.2,1.7-12.3,2.8c-1.8,0.4-2.9-0.1-3.8-1.5c-8.8-14.1-18.1-27.9-26.3-42.3
		c-9.9-17.3-17.9-35.6-23.9-54.6c-6.3-20.1-10.3-40.5-9.7-61.7C424.2,26.9,427.1,11.6,434.5-2.5"/>
	<path class="st1" d="M134.4,170.8l39.8,46.6l-1.9,1.6l-10.8,9.2l-1.9,1.6l-10-11.6l1.9-1.6l8.2-7l-1.7-2l-8.2,7l-1.9,1.6l-4-4.6
		l1.9-1.6l8.2-7l-1.7-2l-8.2,7l-1.9,1.6l-4-4.6l10.1-8.6l-1.7-2l-10.1,8.6l-4-4.6l10.1-8.6l-1.7-2l-10.1,8.6l-4-4.6l10.1-8.6l-1.7-2
		l-10.1,8.6l-5.6-6.6l4.1-3.5l6.3-5.4L134.4,170.8z M78,121.7l30.7,36l-1.2,1l11.6,17.7l1-0.9l1.6,1.8l-4.9,4.2
		c-0.5,0.4-0.8,1-0.8,1.7c-0.1,0.7,0.2,1.3,0.6,1.8l40.7,47.6l-4.7,5.1l1.6,1.8l5.2-4.5l4.5-3.8l15.6,18.3l-3.3,5.1l2.5,2.9l9.9-8.5
		l9.9-8.4l-2.5-2.9l-5.6,2.5l-15.6-18.3l4.5-3.8l5.3-4.5l-1.6-1.8l-5.8,3.9L136.4,168c-0.4-0.5-1-0.8-1.7-0.8
		c-0.7-0.1-1.3,0.2-1.8,0.6l-4.9,4.2l-1.6-1.8l1-0.9l-15.6-14.2l-1.2,1l-25.1-29.3L78,121.7z"/>
	<path class="st1" d="M118.5,443.5c-5.8-15.8-23.2-24-39.1-18.2c-11,4-18.3,13.7-19.8,24.6c-8.1-7.4-19.9-10.1-30.9-6.1
		c-15.8,5.8-24,23.2-18.2,39.1c10.1,27.8,79,51.4,79,51.4S128.6,471.2,118.5,443.5"/>
	<path class="st1" d="M567.4,419.3c2.4-4.5,2.5-9.3-0.2-11.1c-2.7-1.8-7.3,0.6-10,5.5c0,0-1.5,2.7-3.5,7.1
		c-2.1,4.4-4.7,10.5-6.8,17.6c-2,7-3.5,15.2-2.2,23.2c0.7,4,2.2,7.8,4.4,10.8c0.5,0.7,1.1,1.4,1.7,2.1l1.2,1.4
		c0.7,0.8,1.3,1.5,1.8,2.2c1.9,2.6,4.1,7.1,4.6,12.9c0.2,1.6,0.1,3.4,0.1,5.1l-7.9-4.4l-1.8,3.2l9.3,5.2c-0.5,3.2-1.2,6.4-2.2,9.5
		c0,0.1-0.1,0.3-0.1,0.4l-11-6.1l-1.8,3.2l11.5,6.4c-1.2,3.3-2.6,6.3-3.9,9l-12.4-6.9l-1.8,3.2l12.5,6.9c-2,3.7-3.4,6-3.4,6
		c-1.3,2.2-1.9,4.6-2,6.6c0,2,0.6,3.8,2.1,4.6c1.4,0.8,3.1,0.7,4.9-0.3c1.8-0.9,3.6-2.7,5-5.1c0,0,1.6-2.9,3.8-7.8
		c2.2-4.8,5-11.7,6.9-19.5c1.9-7.8,2.6-16.8,0.7-24.7c-0.9-3.9-2.5-7.5-4.3-10.5c-0.9-1.5-1.8-2.8-2.8-3.9c-0.5-0.6-0.9-1.1-1.4-1.6
		l-1.2-1.3c-2-2.1-3.9-6.3-3.8-11.7c0-1.6,0.2-3.2,0.4-4.9l10.3,5.7l1.8-3.2l-11.3-6.3c0.7-2.9,1.6-5.8,2.6-8.5
		c0.2-0.5,0.4-0.9,0.5-1.3l12.6,7l1.8-3.2l-12.9-7.2c1.4-3.2,2.9-6.1,4.2-8.5l13.3,7.4l1.8-3.2l-13.4-7.4
		C566.6,420.6,567.4,419.3,567.4,419.3"/>
	<path class="st1" d="M607.5,431.9c-3.9-1.8-8.8,0.3-11.3,4.6c0,0-0.6,1-1.5,2.7l-13-7.2l-1.8,3.2l12.9,7.2c-1.4,2.3-3.2,5-5.2,7.9
		l-12.6-7l-1.8,3.2l12.1,6.8c-0.8,1-1.6,2.1-2.5,3.2c-1.4,1.6-2.9,3.1-4.4,4.6l-9.9-5.5l-1.8,3.2l8.8,4.9c-2.1,1.7-4.2,3.1-6.3,4
		c-2.3,1-4.3,1.3-6,1.2c-0.4,0-0.8-0.1-1.2-0.1l-2-0.4c-1.5-0.2-2.9-0.4-4.1-0.5c-2.4-0.1-5.4-0.1-8.8,0.5
		c-3.4,0.6-7.1,1.7-10.7,3.4c-7.2,3.4-13.7,8.9-18.8,14.6c-5.1,5.6-9,11.4-11.7,15.6c-2.7,4.2-4.1,7-4.2,7c-1.3,2.4-1.7,5.1-1.2,7.3
		c0.5,2.2,1.8,3.9,3.7,5c1.9,1.1,4.2,0.9,6.3,0c2.1-0.9,3.9-2.6,5.1-4.8c0,0,1.2-2.8,3.4-6.9l14.3,7.9l1.8-3.2l-14.2-7.9
		c1.5-2.7,3.3-5.5,5.5-8.5l14.3,7.9l1.8-3.2l-13.8-7.7c0.2-0.2,0.4-0.5,0.6-0.7c1.9-2.3,4-4.4,6.3-6.3l10.7,5.9l1.8-3.2l-9.3-5.2
		c2-1.4,4.1-2.7,6.2-3.5c2.8-1.2,5.6-1.7,8.2-1.9c1.3-0.1,2.5,0,3.6,0.1c0.5,0.1,1.1,0.1,1.6,0.2l1.6,0.3c2.3,0.4,5.3,0.6,8.6,0.1
		c3.2-0.5,6.6-1.7,9.7-3.4c6.3-3.3,11.9-8.4,16.5-13.3c9.2-10,15-19.7,15.1-19.7C612.7,439.4,611.5,433.7,607.5,431.9"/>
</g>
</svg>
