<?xml version="1.0" encoding="UTF-8" standalone="no"?>
<svg width="75px" height="59px" viewBox="0 0 75 59" version="1.1" xmlns="http://www.w3.org/2000/svg" xmlns:xlink="http://www.w3.org/1999/xlink">
    <!-- Generator: Sketch 3.7.1 (28215) - http://www.bohemiancoding.com/sketch -->
    <title>Combined Shape</title>
    <desc>Created with Sketch.</desc>
    <defs></defs>
    <g id="Page-1" stroke="none" stroke-width="1" fill="none" fill-rule="evenodd">
        <path d="M72.9447495,58.8039432 C72.9447495,58.8039432 75,58.8146236 75,56.7486928 L75,51.6012132 C75,51.6012132 74.5314429,42.8482622 66.2310858,42.832299 L57.9986163,42.832299 L56.9429725,41.78515 L49.7454438,23.2081512 C49.7454438,23.2081512 48.3920629,20.1560461 46.6761757,20.1388831 C44.9602885,20.1217201 40.3896085,19.1490635 40.3896085,19.1490635 C40.3896085,19.1490635 30.1073848,16.373261 30.1073848,4.66243998 C30.1073848,4.66243998 28.9690422,0.0353638162 25.4572291,0.0353638162 L22.6284961,0 C22.6284961,0 20.0586994,0.0424962284 18.7646231,1.49056556 C17.4705468,2.9386349 3.94743833,15.6493612 3.94743833,15.6493612 C3.94743833,15.6493612 1.7780317,17.4146893 4.36431112,19.8945756 C6.95059054,22.3744619 43.0397153,58.8111235 43.0397153,58.8111235 L72.9447495,58.8039432 Z M12.9018017,15.5095912 C12.9018017,15.5095912 10.853397,14.2032885 12.8328197,12.273787 L20.6883504,4.4182563 C20.6883504,4.4182563 23.3467112,1.90720313 25.8271951,4.4182563 C25.8271951,4.4182563 26.7811781,5.23707008 26.8035065,6.57114723 C26.8258349,7.90522439 26.057956,11.2788115 28.8154234,15.0446883 C31.5728908,18.8105652 36.6212887,22.4421082 42.4404737,23.6625472 C48.2596587,24.8829861 46.0427906,26.7520368 46.0427906,26.7520368 L32.5281117,32.4595779 C32.5281117,32.4595779 31.0046966,33.0550032 29.4402558,32.0102867 C27.875815,30.9655703 12.9018017,15.5095912 12.9018017,15.5095912 Z M34.1026603,36.2019288 L47.6449321,31.1192201 C47.6449321,31.1192201 48.7791427,30.5601021 49.2507623,31.5273036 C49.722382,32.494505 48.7482823,33.3206561 48.7482823,33.3206561 L36.1646799,38.0746108 C36.1646799,38.0746108 35.3868162,38.4512892 34.6053218,37.8438839 C33.8238274,37.2364785 34.1026603,36.2019288 34.1026603,36.2019288 Z M39.4771076,40.1210992 L49.9331574,36.1502727 C49.9331574,36.1502727 50.8282905,35.914463 51.3222386,36.7217348 C51.8161867,37.5290067 50.8437208,38.1932315 50.8437208,38.1932315 L40.8694564,42.4652193 C40.8694564,42.4652193 40.1689252,42.7200899 39.5148662,41.7734016 C38.8608071,40.8267133 39.4771076,40.1210992 39.4771076,40.1210992 Z M70.1639534,49.7736357 L46.9106382,49.7736357 L42.3098964,45.1694448 L52.4803967,41.2779477 C52.4803967,41.2779477 53.1155768,45.0267606 54.8074528,46.5930171 L67.2920281,46.5930171 C67.2920281,46.5930171 68.6797516,46.6602088 70.2491524,48.9551982 L70.3291435,49.4073056 L70.1639534,49.7736357 Z M69.162466,55.1659585 C69.162466,55.1659585 71.2566463,55.3758451 71.2566463,54.2453012 C71.2566462,53.1147573 71.2566463,53.4012402 71.2566463,53.4012402 C71.2566463,53.4012402 70.7034609,52.3642212 69.2003203,52.3642212 L45.2418255,52.3642212 L9.45221789,16.2151398 C9.45221789,16.2151398 8.44107764,15.5936971 7.77465631,16.4400329 C7.10823498,17.2863687 7.03180645,17.9659674 7.62478618,18.2658833 C8.21776591,18.5657992 44.4171131,55.6030488 44.4171131,55.6030488 L69.162466,55.1659585 Z M0,35.01371 C0,33.9139168 0.897734444,33.0223582 2.00193683,33.0223582 L8.3175501,33.0223582 C9.42318929,33.0223582 10.3194869,33.9180282 10.3194869,35.01371 L10.3194869,35.1588012 C10.3194869,36.2585944 9.42175249,37.150153 8.3175501,37.150153 L2.00193683,37.150153 C0.896297651,37.150153 0,36.254483 0,35.1588012 L0,35.01371 Z M0,41.2054021 C0,40.1056089 0.887712701,39.2140504 1.99163398,39.2140504 L14.5195451,39.2140504 C15.6194942,39.2140504 16.5111791,40.1097203 16.5111791,41.2054021 L16.5111791,41.3504934 C16.5111791,42.4502866 15.6234664,43.3418451 14.5195451,43.3418451 L1.99163398,43.3418451 C0.891684907,43.3418451 0,42.4461751 0,41.3504934 L0,41.2054021 Z M0,47.3970943 C0,46.2973011 0.889979459,45.4057425 1.99483085,45.4057425 L20.7080404,45.4057425 C21.8097551,45.4057425 22.7028713,46.3014125 22.7028713,47.3970943 L22.7028713,47.5421855 C22.7028713,48.6419787 21.8128918,49.5335373 20.7080404,49.5335373 L1.99483085,49.5335373 C0.893116191,49.5335373 0,48.6378673 0,47.5421855 L0,47.3970943 Z" id="Combined-Shape" fill="#00AEEF"></path>
    </g>
</svg>