<?xml version="1.0" encoding="UTF-8" standalone="no"?>
<svg width="81px" height="81px" viewBox="0 0 81 81" version="1.1" xmlns="http://www.w3.org/2000/svg" xmlns:xlink="http://www.w3.org/1999/xlink">
    <!-- Generator: Sketch 3.7.1 (28215) - http://www.bohemiancoding.com/sketch -->
    <title>Group</title>
    <desc>Created with Sketch.</desc>
    <defs></defs>
    <g id="Page-1" stroke="none" stroke-width="1" fill="none" fill-rule="evenodd">
        <g id="Group" transform="translate(3.000000, 3.000000)" stroke="#00AEEF" stroke-width="4.5">
            <ellipse id="Oval-8" cx="37" cy="37" rx="10" ry="10"></ellipse>
            <path d="M6.43131365,61.2266387 L0,51.5599596 L9.59518576,43.051937 C9.59518576,43.051937 7.77919249,37.217662 9.65272054,31.5978831 L0.231415771,23.408876 L6.47292062,13.7599871 L17.5752338,17.4097671 C17.5752338,17.4097671 23.4275472,11.8430305 28.912353,10.8473467 L31.5805617,0.0575890205 L43.6946783,0 L46.066727,10.2711534 C46.066727,10.2711534 52.3039244,12.419223 57.8179475,17.5275215 L68.6680787,13.5688825 L74.9577134,23.3040033 L65.6268251,31.3032698 C65.6268251,31.3032698 67.2115761,36.5194727 65.6763389,42.9970236 L75,51.5164098 L68.8183115,61.1681781 L57.987094,57.4394406 C57.987094,57.4394406 53.6627865,61.7457355 46.5275742,63.9285108 L43.815695,75 L31.7000407,75 L28.7258306,63.9429081 C28.7258306,63.9429081 23.3867984,63.2848763 17.3873274,57.4006438 L7.03571706,61.1151356 L6.43131365,61.2266387 Z" id="Path-36"></path>
        </g>
    </g>
</svg>