<?xml version="1.0" encoding="UTF-8" standalone="no"?>
<svg width="77px" height="77px" viewBox="0 0 77 77" version="1.1" xmlns="http://www.w3.org/2000/svg" xmlns:xlink="http://www.w3.org/1999/xlink">
    <!-- Generator: Sketch 3.7.1 (28215) - http://www.bohemiancoding.com/sketch -->
    <title>Combined Shape</title>
    <desc>Created with Sketch.</desc>
    <defs></defs>
    <g id="Page-1" stroke="none" stroke-width="1" fill="none" fill-rule="evenodd">
        <path d="M16.0339307,66.4015799 C15.8962936,66.3964996 8.0434374,66.7312782 8.0434374,59.4031721 C8.0434374,52.0750659 13.589368,44.8889122 13.589368,44.8889122 L13.5698998,44.5518784 L10.3542114,42.5742501 C10.3542114,42.5742501 11.578541,41.5924854 11.8609886,40.3132444 L15.0389961,42.3280573 C15.0389961,42.3280573 18.0792697,38.4361984 22.2491024,33.953888 L22.5375803,33.602598 C22.5375803,33.602598 21.7348086,28.3086047 21.5844472,24.5508824 C21.5844472,24.5508824 7.897076,23.8242223 5.59670394,30.6450032 C5.59670394,30.6450032 4.89143681,33.3270775 7.50713209,36.1501104 L7.57840319,36.6489478 C7.57840319,36.6489478 6.30836553,37.1717245 5.39007866,38.7424843 C5.39007866,38.7424843 0.837256845,35.0842365 1.00449717,31.3445984 L1.00449717,30.0783162 C1.00449717,30.0783162 0.53630548,22.7165472 18.4648204,21.6168301 L21.4061459,21.6168301 C21.4061459,21.6168301 20.6904144,2.8331081 29.3063267,1.08993311 C29.3063267,1.08993311 36.6582237,-1.05099473 45.326319,15.5588235 L45.5074182,15.7958707 L48.1898689,14.3624973 L48.4390669,14.3573044 C48.4390669,14.3573044 48.4456296,15.4554098 49.4828842,16.8749234 L46.5187187,18.2458729 C46.5187187,18.2458729 47.9897753,20.6436591 50.0549739,26.4003448 L50.2376787,26.7379577 C50.2376787,26.7379577 55.6418273,28.4108967 60.7109554,31.0067475 C60.7109554,31.0067475 64.2685873,26.1317451 64.9052715,20.9638077 C65.5419557,15.7958703 61.8372461,14.9030294 61.8372461,14.9030294 C61.8372461,14.9030294 59.4410793,13.747644 55.195157,14.8749573 C55.195157,14.8749573 55.003779,13.1996739 54.1519781,12.0229951 C54.1519781,12.0229951 57.4113815,10.8075542 61.1357579,10.7251632 C61.1357579,10.7251632 68.2182157,10.3264186 68.9081814,16.9359487 C69.598147,23.5454789 63.2993946,32.2448546 63.2993946,32.2448546 C63.2993946,32.2448546 75.1682937,38.7424833 75.902704,45.0471798 C75.902704,45.0471798 78.3341321,54.1898829 58.8875649,55.3962873 L55.5623185,55.3567431 L55.4843465,59.532958 C55.4843465,59.532958 54.54045,58.8786107 52.8984481,58.9997632 L52.8786952,55.3937669 C52.8786952,55.3937669 46.935755,55.2545387 42.5213263,54.2005751 C42.5213263,54.2005751 38.53973,57.2338342 33.9939605,59.9482155 C33.9939605,59.9482155 38.657293,70.2124989 45.7428699,71.4649632 C45.7428699,71.4649632 49.4828818,72.0814176 51.6251651,65.1413681 C51.6251651,65.1413681 53.2672532,65.5854777 54.8566718,65.4931811 C54.8566718,65.4931811 53.6304447,75.2321336 47.4619966,75.9427572 C47.4619966,75.9427572 40.4320451,77.7124841 31.605563,61.5717638 L31.0793931,61.5497573 C31.0793931,61.5497573 22.3148507,66.2981718 16.3430526,66.3965022 C16.2363756,66.3982587 16.1715678,66.4066602 16.0339307,66.4015799 Z M53.7158792,64.2870809 C54.8204487,64.2870809 55.7158792,63.3916504 55.7158792,62.2870809 C55.7158792,61.1825114 54.8204487,60.2870809 53.7158792,60.2870809 C52.6113097,60.2870809 51.7158792,61.1825114 51.7158792,62.2870809 C51.7158792,63.3916504 52.6113097,64.2870809 53.7158792,64.2870809 Z M8.64095993,41.7418903 C9.74552943,41.7418903 10.6409599,40.8464598 10.6409599,39.7418903 C10.6409599,38.6373208 9.74552943,37.7418903 8.64095993,37.7418903 C7.53639044,37.7418903 6.64095993,38.6373208 6.64095993,39.7418903 C6.64095993,40.8464598 7.53639044,41.7418903 8.64095993,41.7418903 Z M51.7458388,16.4361915 C52.8504083,16.4361915 53.7458388,15.540761 53.7458388,14.4361915 C53.7458388,13.331622 52.8504083,12.4361915 51.7458388,12.4361915 C50.6412693,12.4361915 49.7458388,13.331622 49.7458388,14.4361915 C49.7458388,15.540761 50.6412693,16.4361915 51.7458388,16.4361915 Z M24.1864196,21.7910383 C24.1864196,21.7910383 24.0676876,19.8161718 24.2866794,17.2433008 C24.405537,15.8468764 24.6238804,14.2742935 25.0146882,12.7456871 C25.843438,9.50411384 27.4477563,6.46030161 30.5235921,5.71352527 C30.5235921,5.71352527 35.7219107,3.88005995 42.8636523,16.8719326 L42.8534814,17.2386646 C42.8534814,17.2386646 39.3674077,18.9079162 34.5260985,22.8155361 C34.5260985,22.8155361 32.2310784,22.465325 29.6685945,22.1758817 C27.863893,21.9720331 25.9265273,21.7983259 24.5647785,21.7983263 L24.4320168,21.7997746 L24.1864196,21.7910383 Z M24.8924963,31.2611522 C24.8924963,31.2611522 24.1831798,27.3215869 24.1831798,24.4323518 C24.1831798,24.4323518 27.4854867,24.307906 31.6473445,25.0091983 L25.2691064,30.8164346 L24.8924963,31.2611522 Z M29.9679423,51.265894 C29.9679423,51.265894 31.1911669,55.0773276 32.5475806,57.6283708 C32.5475806,57.6283708 35.5217683,56.1879108 38.8672339,53.6148325 L30.5092516,51.4817486 L29.9679423,51.265894 Z M52.0983025,45.7930858 C52.0983025,45.7930858 52.807619,49.7326511 52.807619,52.6218862 C52.807619,52.6218862 49.5053121,52.746332 45.3434543,52.0450397 L51.7216924,46.2378034 L52.0983025,45.7930858 Z M46.9928001,25.8480165 C46.9928001,25.8480165 45.7695755,22.0365829 44.4131618,19.4855398 C44.4131618,19.4855398 41.4389741,20.9259998 38.0935086,23.499078 L46.4514909,25.632162 L46.9928001,25.8480165 Z M17.6037943,43.6572505 C17.6037943,43.6572505 20.4176561,39.6426559 23.0295523,36.9642821 C23.0295523,36.9642821 24.1809928,42.1037978 25.8164991,47.1336749 C25.8164991,47.1336749 21.5757236,46.0038447 17.9334036,43.9015851 L17.8310354,43.7967866 L17.6037943,43.6572505 Z M59.2245454,33.3344202 C59.2245454,33.3344202 54.8553149,31.1107716 51.2917271,29.9721189 C51.2917271,29.9721189 52.6879219,35.0506105 53.6052398,40.2595521 C53.6052398,40.2595521 56.8191992,37.2710477 59.0482258,33.704897 L59.0894117,33.5643065 L59.2245454,33.3344202 Z M28.8757136,48.3304139 C28.8757136,48.3304139 26.5574256,41.9702628 25.211078,34.600807 C25.211078,34.600807 29.9177993,29.4362039 35.167396,25.5015306 C35.167396,25.5015306 42.1402456,26.5004101 48.0767059,28.8147233 C48.0767059,28.8147233 50.6290114,35.3810658 51.6285297,42.5044352 C51.6285297,42.5044352 46.9199092,47.6831713 41.779328,51.5123941 C41.779328,51.5123941 34.1773697,50.267328 29.183573,48.5309918 L29.0017627,48.4204603 L28.8757136,48.3304139 Z M16.2313999,46.0249868 C16.2313999,46.0249868 20.9923882,48.4731573 26.50059,50.2404456 L26.9110468,50.5814992 C26.9110468,50.5814992 28.4526462,54.9616391 30.2217839,58.6757055 C30.2217839,58.6757055 23.8885618,62.3897714 17.9794487,62.6779361 C12.0703356,62.9661009 11.870324,57.1871172 11.870324,57.1871172 C11.870324,57.1871172 11.870324,51.9623044 16.0472604,46.2065926 L16.0945486,46.1532332 L16.2313999,46.0249868 Z M61.6645876,34.7072406 C61.6645876,34.7072406 58.6102309,39.1039955 54.576469,43.2503625 L54.3741721,43.7441928 C54.3741721,43.7441928 55.0693717,48.3353638 55.2509644,52.4452497 C55.2509644,52.4452497 62.586516,52.7513076 67.9392383,50.2315813 C73.2919606,47.7118551 70.7554919,42.5154156 70.7554919,42.5154156 C70.7554919,42.5154156 68.3025909,37.9021798 61.9124319,34.7811408 L61.8456282,34.7562277 L61.6645876,34.7072406 Z M38.5199149,44.3319196 C41.741908,44.3319196 44.3538495,41.7116946 44.3538495,38.4794833 C44.3538495,35.247272 41.741908,32.6270471 38.5199149,32.6270471 C35.2979218,32.6270471 32.6859803,35.247272 32.6859803,38.4794833 C32.6859803,41.7116946 35.2979218,44.3319196 38.5199149,44.3319196 Z" id="Combined-Shape" stroke="#00AEEF" stroke-width="0.5" fill="#00AEEF"></path>
    </g>
</svg>