<?xml version="1.0" encoding="UTF-8" standalone="no"?>
<svg width="59px" height="75px" viewBox="0 0 59 75" version="1.1" xmlns="http://www.w3.org/2000/svg" xmlns:xlink="http://www.w3.org/1999/xlink">
    <!-- Generator: Sketch 3.7.1 (28215) - http://www.bohemiancoding.com/sketch -->
    <title>Combined Shape</title>
    <desc>Created with Sketch.</desc>
    <defs></defs>
    <g id="Page-1" stroke="none" stroke-width="1" fill="none" fill-rule="evenodd">
        <path d="M-6.03961325e-14,12.9093322 C-6.03961325e-14,12.9093322 7.07912812,13.313407 15.6165994,9.68901175 C20.1013251,7.78512028 24.9884647,4.76961633 29.4632823,7.10542736e-15 C29.4632823,7.10542736e-15 37.0168078,11.8077564 58.8544196,11.8077561 L58.8544196,46.8526244 C58.8544196,46.8526244 57.3939934,62.4983536 30.034563,75 L28.9090148,75 C28.9090148,75 6.46818852,66.7977069 0.018929479,47.1018048 L0.018929479,14.6436446 L-6.03961325e-14,12.9093322 Z M4.51390697,16.6813509 C4.51390697,16.6813509 10.5071515,17.0234438 17.7350405,13.9550028 C21.5318439,12.3431536 25.669334,9.79020469 29.4577491,5.75221071 C29.4577491,5.75221071 35.852622,15.7487484 54.3405126,15.7487481 L54.3405126,45.418004 C54.3405126,45.418004 53.1041045,58.663799 29.9413997,69.2477893 L28.9885019,69.2477893 C28.9885019,69.2477893 9.98992527,62.3036647 4.52993281,45.628962 L4.52993281,18.1496332 L4.51390697,16.6813509 Z M13.9653246,41.2010998 L24.0722421,52.4179576 L47.3233211,27.351051 L44.2733642,24.6070161 L24.0722423,46.3316898 L17.0482777,38.3904726 L13.9653246,41.2010998 Z" id="Combined-Shape" fill="#00AEEF"></path>
    </g>
</svg>