<?xml version="1.0" encoding="UTF-8" standalone="no"?>
<svg width="63px" height="81px" viewBox="0 0 63 81" version="1.1" xmlns="http://www.w3.org/2000/svg" xmlns:xlink="http://www.w3.org/1999/xlink">
    <!-- Generator: Sketch 3.7.1 (28215) - http://www.bohemiancoding.com/sketch -->
    <title>Path 35</title>
    <desc>Created with Sketch.</desc>
    <defs></defs>
    <g id="Page-1" stroke="none" stroke-width="1" fill="none" fill-rule="evenodd">
        <path d="M40.499977,60.4131025 C40.499977,60.4131025 43.2614154,60.6417938 43.1650488,57.7480307 C43.0686822,54.8542677 43.1650488,48.0372962 43.1650488,48.0372962 C43.1650488,48.0372962 43.3002779,45.1702632 45.9305911,44.4951976 C45.9305911,44.4951976 47.5090412,44.4144042 47.9705644,44.8522138 C47.9705644,44.8522138 52.0668961,47.8598606 53.781968,47.645782 C55.4970399,47.4317034 59.643003,47.7096538 60.5898234,40.8650365 C61.5366437,34.0204193 53.8240646,33.3721951 53.8240646,33.3721951 C53.8240646,33.3721951 51.3493324,33.1929372 47.9308154,36.1388803 C47.9308154,36.1388803 45.6697125,37.3515446 44.3814863,35.5098449 C43.09326,33.6681451 43.1806761,32.2070277 43.1806761,32.2070277 L43.1629295,22.6093505 C43.1629295,22.6093505 43.0463508,20.5913739 41.1449529,20.5913739 C39.2435549,20.5913739 30.8131899,20.5913739 30.8131899,20.5913739 C30.8131899,20.5913739 27.4965926,19.8817049 27.0884197,17.6107581 C26.6802468,15.3398113 28.5002486,14.2730022 28.5002486,14.2730022 C28.5002486,14.2730022 30.0901679,12.6561858 30.2617418,9.75883781 C30.2617418,9.75883781 30.7829802,4.44399466 24.2956106,3.00783348 L21.7387072,3 C21.7387072,3 16.1164172,3.97086677 15.9152424,9.16134429 C15.9152424,9.16134429 15.7634254,12.5212835 18.4713833,15.1668508 C18.4713833,15.1668508 20.8855512,18.9658809 15.6917455,20.409321 L5.21068605,20.409321 C5.21068605,20.409321 3.04023969,20.7129713 3.01238144,22.6076256 C2.9845232,24.5022798 3.01238144,33.4071455 3.01238144,33.4071455 C3.01238144,33.4071455 3.49390733,36.2150657 5.74641428,36.5397742 C7.99892124,36.8644827 9.72623826,35.0017085 9.72623826,35.0017085 C9.72623826,35.0017085 11.9346553,33.2441661 14.1746846,33.367076 C16.4147139,33.489986 17.8521917,34.7572069 17.8521917,34.7572069 C17.8521917,34.7572069 20.4260802,37.0709249 20.4260793,40.256726 C20.4260783,43.4425271 18.3786986,45.7285854 18.3786986,45.7285854 C18.3786986,45.7285854 16.7978607,47.4598562 14.2686864,47.6701794 C11.7395121,47.8805025 10.0896979,46.1577631 10.0896979,46.1577631 C10.0896979,46.1577631 8.2362133,44.575678 6.99131376,44.4922126 C5.74641422,44.4087472 3.36836373,44.7288828 3.05745082,47.2245722 L3.00088338,58.0855195 C3.00088338,58.0855195 3.01986204,60.4136568 5.33978314,60.4244192 L15.2327747,60.4045429 C15.2327747,60.4045429 18.9054585,61.3259846 19.084722,63.6918435 C19.084722,63.6918435 19.1355237,65.7067398 17.0094151,67.8567133 C14.8833065,70.0066868 16.6054434,74.6449179 16.6054434,74.6449179 C16.6054434,74.6449179 18.8076374,78.0853342 22.5856259,77.994992 C22.5856259,77.994992 29.5015822,78.3923469 30.2326542,72.1081428 C30.2326542,72.1081428 30.1617673,68.5520249 28.7227028,67.1181595 C27.2836383,65.6842942 27.1194182,64.2683833 27.1194182,64.2683833 C27.1194182,64.2683833 26.8699785,61.1013531 30.700187,60.4381743 L39.8474789,60.4471532 L40.499977,60.4131025 Z" id="Path-35" stroke="#17B5F0" stroke-width="4.2"></path>
    </g>
</svg>