<?xml version="1.0" encoding="UTF-8" standalone="no"?>
<svg width="77px" height="65px" viewBox="0 0 77 65" version="1.1" xmlns="http://www.w3.org/2000/svg" xmlns:xlink="http://www.w3.org/1999/xlink">
    <!-- Generator: Sketch 3.7.1 (28215) - http://www.bohemiancoding.com/sketch -->
    <title>Combined Shape</title>
    <desc>Created with Sketch.</desc>
    <defs></defs>
    <g id="Page-1" stroke="none" stroke-width="1" fill="none" fill-rule="evenodd">
        <path d="M40.2832064,50.6342986 C40.2832064,50.6342986 41.8303145,50.6360383 41.8303145,52.0318491 L41.8303145,52.5881457 C41.8303145,52.5881457 41.5249003,53.9345239 40.3412177,53.9231256 L27.1836879,53.9231256 C27.1836879,53.9231256 26.9063127,53.8928049 26.8831756,54.2236379 C26.8600385,54.5544709 26.8831756,55.3690553 26.8831756,55.3690553 C26.8831756,55.3690553 26.8723107,55.6166175 27.183557,55.6694367 C27.4948033,55.7222559 30.8228645,55.8405582 30.8228645,55.8405582 C30.8228645,55.8405582 32.8529002,56.0504667 34.1697028,58.0992796 C34.1697028,58.0992796 34.9750821,60.2055039 37.8868056,60.3033492 C40.7985292,60.4011945 41.479967,58.62996 41.479967,58.62996 C41.479967,58.62996 42.6300538,56.36212 45.276138,55.7853664 L48.5348495,55.7324544 C48.5348495,55.7324544 49.5245212,55.7438526 49.1144226,54.5823668 C49.1144226,54.5823668 48.1912819,51.338473 49.26518,47.342052 C49.26518,47.342052 50.6796901,41.6212198 54.0918905,37.6305463 C54.0918905,37.6305463 65.0489687,25.1534333 54.0918905,11.9960855 C54.0918905,11.9960855 39.2736536,-5.32969899 21.892459,11.9960855 C21.892459,11.9960855 11.1304555,23.493536 21.892459,37.5235203 C21.892459,37.5235203 22.5422457,38.6063415 21.7305674,39.5027871 C20.918889,40.3992327 19.5884685,39.6336275 19.5884685,39.6336275 C19.5884685,39.6336275 6.53741463,25.1626002 19.5884685,9.73844626 C19.5884685,9.73844626 36.3748507,-9.92305782 56.5112138,9.73844626 C56.5112138,9.73844626 69.478526,22.3550702 56.5112138,39.9922308 C56.5112138,39.9922308 51.1523831,46.7442981 52.2728808,53.3520441 C53.3933785,59.95979 47.1639482,59.12034 47.1639482,59.12034 C47.1639482,59.12034 45.0320624,58.6735687 44.2953394,60.4583018 C44.2953394,60.4583018 43.1556913,62.8609888 39.1609563,63.5634415 L37.237631,63.554706 C37.237631,63.554706 32.8016698,63.2083091 31.1953422,59.6356514 C31.1953422,59.6356514 30.8600331,59.0622126 29.7546542,59.0622152 C28.6492753,59.0622179 23.634334,59.5433391 23.6343338,55.5278593 L23.6343338,53.031724 C23.6343338,53.031724 24.1257068,50.5144299 26.3667861,50.6259753 C28.6078655,50.7375208 39.4929898,50.6841001 39.4929898,50.6841001 L40.2832064,50.6342986 Z M12.0826434,38.8741989 L7.68791515,43.2276281 C7.68791515,43.2276281 6.56099934,44.0108192 5.46186577,42.7858567 C5.46186577,42.7858567 4.22214015,41.7977252 5.46186577,40.454098 L9.3263566,36.5896072 C9.3263566,36.5896072 10.1939649,35.4604375 11.5334192,36.4060226 C11.5334192,36.4060226 13.0412475,37.3439459 12.1470528,38.7620121 L12.0826434,38.762012 L12.0826434,38.8741989 Z M8.45228481,26.8760319 L2.26640334,26.846829 C2.26640334,26.846829 0.915753768,26.603779 1.00472827,24.9603949 C1.00472827,24.9603949 0.826824374,23.385062 2.65353068,23.3115925 L8.11874603,23.3115925 C8.11874603,23.3115925 9.53068123,23.1266406 9.80918882,24.7424075 C9.80918882,24.7424075 10.2121725,26.471815 8.57715721,26.8422482 L8.53161296,26.7967038 L8.45228481,26.8760319 Z M9.60533489,13.8364353 L5.25190569,9.44170698 C5.25190569,9.44170698 4.46871455,8.31479117 5.69367707,7.2156576 C5.69367707,7.2156576 6.68180859,5.97593198 8.0254358,7.2156576 L11.8899266,11.0801484 C11.8899266,11.0801484 13.0190963,11.9477567 12.0735112,13.287211 C12.0735112,13.287211 11.1355879,14.7950393 9.71752171,13.9008447 L9.71752182,13.8364353 L9.60533489,13.8364353 Z M64.8347044,11.278683 L69.2294326,6.9252538 C69.2294326,6.9252538 70.3563484,6.14206266 71.455482,7.36702519 C71.455482,7.36702519 72.6952076,8.35515671 71.455482,9.69878391 L67.5909912,13.5632747 C67.5909912,13.5632747 66.7233829,14.6924444 65.3839286,13.7468593 C65.3839286,13.7468593 63.8761003,12.808936 64.7702949,11.3908698 L64.8347044,11.3908699 L64.8347044,11.278683 Z M68.5477152,23.2914539 L74.7335967,23.3206568 C74.7335967,23.3206568 76.0842462,23.5637068 75.9952717,25.2070909 C75.9952717,25.2070909 76.1731756,26.7824238 74.3464693,26.8558933 L68.881254,26.8558933 C68.881254,26.8558933 67.4693188,27.0408451 67.1908112,25.4250783 C67.1908112,25.4250783 66.7878275,23.6956708 68.4228428,23.3252376 L68.468387,23.370782 L68.5477152,23.2914539 Z M67.3830616,36.3763754 L71.7364908,40.7711037 C71.7364908,40.7711037 72.5196819,41.8980195 71.2947194,42.9971531 C71.2947194,42.9971531 70.3065879,44.2368787 68.9629607,42.9971531 L65.0984698,39.1326622 C65.0984698,39.1326622 63.9693002,38.265054 64.9148853,36.9255997 C64.9148853,36.9255997 65.8528086,35.4177714 67.2708748,36.311966 L67.2708747,36.3763754 L67.3830616,36.3763754 Z M25.9492517,44.0803215 C26.8177903,44.0803215 27.52188,43.3762319 27.52188,42.5076932 C27.52188,41.6391546 26.8177903,40.9350649 25.9492517,40.9350649 C25.080713,40.9350649 24.3766234,41.6391546 24.3766234,42.5076932 C24.3766234,43.3762319 25.080713,44.0803215 25.9492517,44.0803215 Z" id="Combined-Shape" stroke="#00AEEF" fill="#00AEEF"></path>
    </g>
</svg>