<?xml version="1.0" encoding="UTF-8" standalone="no"?>
<svg width="72px" height="63px" viewBox="0 0 72 63" version="1.1" xmlns="http://www.w3.org/2000/svg" xmlns:xlink="http://www.w3.org/1999/xlink">
    <!-- Generator: Sketch 3.7.1 (28215) - http://www.bohemiancoding.com/sketch -->
    <title>Combined Shape</title>
    <desc>Created with Sketch.</desc>
    <defs></defs>
    <g id="Page-1" stroke="none" stroke-width="1" fill="none" fill-rule="evenodd">
        <path d="M32.4450672,37 C42.6623351,37 50.9450672,28.7172679 50.9450672,18.5 C50.9450672,8.28273213 42.6623351,0 32.4450672,0 C22.2277993,0 13.9450672,8.28273213 13.9450672,18.5 C13.9450672,28.7172679 22.2277993,37 32.4450672,37 Z M32.4450672,33 C40.4531961,33 46.9450672,26.5081289 46.9450672,18.5 C46.9450672,10.4918711 40.4531961,4 32.4450672,4 C24.4369383,4 17.9450672,10.4918711 17.9450672,18.5 C17.9450672,26.5081289 24.4369383,33 32.4450672,33 Z M46.0696338,31.071656 C46.0696338,31.071656 48.5981132,32.3476817 51.7929397,34.6902903 C53.3750096,35.8503441 55.1204815,37.271946 56.8032319,38.9296628 L54.6821689,42.1773284 C54.6821689,42.1773284 49.7695911,36.944397 42.8790272,33.788147 C42.8790272,33.788147 44.7806995,32.5195923 45.6730335,31.440918 L45.9363392,31.2025146 L46.0696338,31.071656 Z M11.0012467,61.977299 L2.01144044,61.977299 C2.01144044,61.977299 -7.69521086e-08,62.0813485 3.55271368e-15,59.9658586 C7.69521158e-08,57.8503686 3.8524926e-15,55.0700972 3.8524926e-15,55.0700972 C3.8524926e-15,55.0700972 1.63878342,43.4869048 11.2113538,35.4402396 C11.2113538,35.4402396 13.1173599,34.4940298 14.1311792,36.1947812 C14.1311792,36.1947812 14.758589,37.9139716 13.0178866,39.3570628 C13.0178866,39.3570628 6.546297,44.064982 4.35626619,55.9103961 C4.35626619,55.9103961 3.42073161,57.9901166 5.25492285,57.9884992 C7.08911409,57.9868817 59.8366693,57.985426 59.8366693,57.985426 C59.8366693,57.985426 60.9514173,58.0973851 60.5834472,56.5837416 C60.215477,55.0700982 59.9500519,52.5750474 58.8244675,50.4739762 C58.8244675,50.4739762 58.660296,49.1719269 59.3152026,48.2195708 C59.9701091,47.2672147 61.4162735,45.9989701 61.4162735,45.9989701 C61.4162735,45.9989701 63.8607275,48.0799837 64.9143382,58.0313617 L64.9680376,60.2228482 C64.9680376,60.2228482 64.929704,61.7993792 63.0157724,61.9527137 C61.1018407,62.1060483 11.0012467,61.977299 11.0012467,61.977299 Z M51.1593548,54.0320377 L42.2458885,45.0637886 C42.2458885,45.0637886 41.0976101,43.6081493 42.3018248,42.4393993 C43.5060394,41.2706494 44.5448962,42.0634156 44.5448962,42.0634156 L51.784024,49.0796635 L68.7649931,25.6482962 C68.7649931,25.6482962 69.5579029,24.716122 70.6349642,25.5116273 C71.7120254,26.3071326 71.5042823,27.1532402 71.5042823,27.1532402 L53.9901891,53.2679604 C53.9901891,53.2679604 52.9690644,55.0175541 51.4832947,54.2971581 L51.2416561,54.11349 L51.1593548,54.0320377 Z" id="Combined-Shape" fill="#00AEEF"></path>
    </g>
</svg>