<?xml version="1.0" encoding="UTF-8" standalone="no"?>
<svg width="75px" height="61px" viewBox="0 0 75 61" version="1.1" xmlns="http://www.w3.org/2000/svg" xmlns:xlink="http://www.w3.org/1999/xlink">
    <!-- Generator: Sketch 3.7.1 (28215) - http://www.bohemiancoding.com/sketch -->
    <title>Combined Shape</title>
    <desc>Created with Sketch.</desc>
    <defs></defs>
    <g id="Page-1" stroke="none" stroke-width="1" fill="none" fill-rule="evenodd">
        <path d="M45.0729547,16.1358691 C41.0035244,-0.283287843 22.7674739,0.000316225182 22.7674739,0.000316225182 C-0.146570585,1.7060156 0.287744174,20.4871762 0.287744174,20.4871762 L0.27217876,20.674109 C0.272178774,27.6941029 5.12419604,33.0246567 5.91951644,33.5943466 C6.71483684,34.1640366 6.37107832,34.9495428 6.37107832,34.9495428 C5.51417155,37.3382711 3.29640948,38.6677645 3.29640948,38.6677645 L1.72839007,40.0487718 C-0.461555181,42.0908927 0.0524590524,43.8544045 0.0524590524,43.8544045 C0.174657845,45.8893682 5.01844916,45.6909035 5.01844916,45.6909035 C13.6870955,45.0471433 19.1437128,40.3018871 19.1437128,40.3018871 C21.8042069,40.6661642 24.9248872,40.4980392 24.9248872,40.4980392 C26.7245252,40.2592831 28.3684959,39.9170449 29.8702406,39.4901124 C31.2001983,45.0238433 35.6071398,53.6315128 50.0751128,55.5509637 C50.0751128,55.5509637 53.1957931,55.7190887 55.8562872,55.3548117 C55.8562872,55.3548117 61.3129045,60.1000678 69.9815508,60.7438281 C69.9815508,60.7438281 74.8253422,60.9422928 74.9475409,58.9073291 C74.9475409,58.9073291 75.4615552,57.1438172 73.2716099,55.1016963 L71.7035905,53.720689 C71.7035905,53.720689 69.4858285,52.3911956 68.6289217,50.0024673 C68.6289217,50.0024673 68.2851632,49.2169611 69.0804836,48.6472712 C69.875804,48.0775813 74.7278212,42.7470274 74.7278212,35.7270336 L74.7122558,35.5401007 C74.7122558,35.5401007 75.1465706,16.7589401 52.2325261,15.0532408 C52.2325261,15.0532408 49.0635959,15.0039581 45.0729547,16.1358691 Z M41.6493633,17.3605017 C38.6168791,4.41775228 24.4859304,3.71788727 24.4859304,3.71788727 L21.7338642,3.69677074 C4.5501562,5.77460276 3.97188306,19.1540695 3.97188306,19.1540695 L3.97025533,21.3662405 C4.33006975,27.5981056 9.02744682,31.5202004 9.79179542,32.2689788 C10.556144,33.0177572 10.1329337,35.2697576 10.1329337,35.2697576 C9.77806608,36.7194719 9.06184974,37.9754001 8.2868548,38.9915784 C6.88687249,40.8272441 5.29508226,41.8805513 5.29508226,41.8805513 L5.51188872,41.9900499 C12.1676844,41.3389563 17.8601195,36.5655056 17.8601195,36.5655056 L18.7170775,36.5891115 C20.6730112,37.0449189 24.4729943,36.8983914 24.4729943,36.8983914 C26.269266,36.6825745 27.8817558,36.3344948 29.3291932,35.885463 C29.2871252,35.1462422 29.3100375,34.7152046 29.3100375,34.7152046 C30.3962625,24.6820958 36.1692462,19.7673467 41.6493633,17.3605017 Z M69.7049177,56.9334759 C69.7049177,56.9334759 68.1131275,55.8801686 66.7131452,54.0445029 C65.9381503,53.0283246 65.2219339,51.7723964 64.8670663,50.3226822 C64.8670663,50.3226822 64.443856,48.0706817 65.2082046,47.3219033 C65.9725532,46.573125 70.6699302,42.6510301 71.0297447,36.419165 L71.0281169,34.2069941 C71.0281169,34.2069941 70.4498438,20.8275273 53.2661358,18.7496953 L50.5140696,18.7708118 C50.5140696,18.7708118 35.2464602,19.5269723 33.0451658,34.002696 L33.0313729,36.7918803 C33.0313729,36.7918803 34.0052703,49.9662772 50.5270057,51.9513159 C50.5270057,51.9513159 54.3269888,52.0978434 56.2829225,51.642036 L57.1398805,51.6184301 C57.1398805,51.6184301 62.8323156,56.3918808 69.4881113,57.0429744 L69.7049177,56.9334759 Z M60.5552614,28.5816459 C58.2737241,28.7038711 55.3403191,28.8057254 51.7754172,28.8872089 C51.8569007,28.1945994 51.9791259,27.5223607 52.1217219,26.8501221 L50.1864895,26.4427047 C50.0235225,27.2575395 49.8809264,28.0927451 49.7790721,28.9075798 C48.1086609,28.9075798 46.3160245,28.9279507 44.4011629,28.9279507 L44.4215338,30.7409579 C46.234541,30.7409579 47.945694,30.7205871 49.5753634,30.7205871 C49.4938799,31.5965344 49.4327673,32.4724817 49.4123965,33.3484291 C48.5160783,33.6743629 47.7012435,34.122522 46.9475214,34.6929064 C45.0326598,36.0984963 44.0955999,37.7689075 44.0955999,39.6837691 C44.0955999,40.7837959 44.4011629,41.6597433 45.0122889,42.3116111 C45.623415,42.9634788 46.4586206,43.2894127 47.477164,43.2894127 C50.1253769,43.2894127 52.3458015,41.9245646 54.1588088,39.2152391 C54.9940144,37.9318744 55.7273656,36.4040593 56.3384917,34.6521646 C56.7051673,34.7743898 57.0718429,34.9169859 57.4181477,35.1206946 C58.5589163,35.7929332 59.1496715,36.750364 59.1496715,37.9726161 C59.1496715,39.2763517 58.599658,40.315266 57.5403729,41.0689881 C56.5625712,41.7208559 55.0958687,42.1893859 53.1402654,42.4338363 L53.812504,44.1449892 C56.2162665,43.8190553 58.0089029,43.1875584 59.1904132,42.2708693 C60.453407,41.2523259 61.1052748,39.8263651 61.1052748,37.9726161 C61.1052748,36.2207215 60.3515527,34.8355024 58.8644793,33.816959 C58.2533533,33.4095417 57.6014855,33.0836078 56.8885051,32.8798991 C56.9699886,32.5539652 57.0718429,32.2076604 57.1533264,31.8817265 L55.2792065,31.4539383 L54.9940144,32.5335943 C54.7088222,32.5132235 54.4440009,32.5132235 54.1791796,32.5132235 C53.201378,32.5132235 52.264318,32.5947069 51.3883707,32.7780447 C51.4291124,32.0854352 51.4698542,31.3928257 51.5513376,30.7002162 C55.1569813,30.6187327 58.1922407,30.5168784 60.6571157,30.3742823 L60.5552614,28.5816459 Z M54.6970285,33.9477614 C54.1470151,35.4144639 53.4951473,36.7181995 52.7414252,37.8589681 C52.456233,38.2460146 52.1914118,38.6126903 51.9265905,38.9386241 C51.7025109,37.5330342 51.6006566,35.9848483 51.6006566,34.3144371 L51.6006566,34.2736953 C52.4766039,34.0496158 53.4136638,33.9477614 54.4322073,33.9477614 L54.6970285,33.9477614 Z M49.601095,35.0199124 C49.6418368,36.9958866 49.8251746,38.8088939 50.1511085,40.4589342 C49.3770155,40.9070933 48.5418099,41.1515437 47.6862334,41.1515437 C46.7084318,41.1515437 46.2399018,40.5404177 46.2399018,39.3385365 C46.2399018,37.9736883 46.9936239,36.7514362 48.521439,35.6717802 C48.8473729,35.4273298 49.2140485,35.2032502 49.601095,35.0199124 Z M20.6975886,12.7059837 L15.0955999,27.2507836 L17.4586206,27.2507836 L18.8234688,23.5025438 L25.0773253,23.5025438 L26.4421735,27.2507836 L28.825565,27.2507836 L23.2235763,12.7059837 L20.6975886,12.7059837 Z M19.4957074,21.1629222 L21.9198407,14.5831317 L22.0013242,14.5831317 L24.4050866,21.1629222 L19.4957074,21.1629222 Z" id="Combined-Shape" fill="#00AEEF"></path>
    </g>
</svg>