<?xml version="1.0" encoding="UTF-8" standalone="no"?>
<svg width="75px" height="75px" viewBox="0 0 75 75" version="1.1" xmlns="http://www.w3.org/2000/svg" xmlns:xlink="http://www.w3.org/1999/xlink">
    <!-- Generator: Sketch 3.7.1 (28215) - http://www.bohemiancoding.com/sketch -->
    <title>Shape</title>
    <desc>Created with Sketch.</desc>
    <defs></defs>
    <g id="Page-1" stroke="none" stroke-width="1" fill="none" fill-rule="evenodd">
        <path d="M7.06439353,21.4631083 L8.49269668,19.7278588 L8.43716869,19.103169 C7.94821395,19.8697636 7.49010808,20.6564101 7.06285109,21.4631083 L5.83198077,22.9577365 L5.83198077,24.0312776 C4.06588239,28.1696548 3.08488801,32.7229495 3.08488801,37.4998986 C3.08488801,56.4765872 18.52321,71.9164516 37.4983561,71.9149092 C48.2569031,71.9149092 57.872499,66.946697 64.1903496,59.1897462 L63.0551108,59.1897462 L63.0551108,56.9038441 L61.7409485,55.1362033 L61.7409485,52.3844832 L60.7399024,51.3865219 L60.6535255,50.2420285 L61.9244994,47.8126792 L59.5105745,43.5509064 L59.7990115,40.6588239 L57.6241655,40.4336271 L56.8236371,39.6315562 L55.364485,39.6315562 L54.6225695,40.3179438 L52.0497729,40.3179438 L51.963396,40.5462255 L50.532008,40.5462255 L47.2435174,36.8011715 L47.2728238,33.8828674 L47.8157641,33.6838921 L48.0178242,32.5671627 L47.2466022,32.5671627 L46.9304012,31.3949052 L50.7356106,28.6493549 L50.7356106,26.704333 L52.5973405,25.6708955 L53.3485107,25.7464753 L54.8817001,25.7464753 L56.0786366,25.1032761 L59.9409164,24.8024996 L59.9409164,26.7768279 L62.9887857,27.5495923 L63.5903389,27.9783918 L64.1471612,27.9783918 L64.1471612,26.9048507 L65.9070898,26.7336395 L67.5790991,27.9783918 L70.323107,27.9783918 L70.5097427,27.805638 C70.2367301,26.8786292 69.9251564,25.9701297 69.5781065,25.0770546 L67.7842441,25.1079035 L66.8849993,24.1207393 L66.7122456,22.5335644 L65.7914065,23.0364012 L65.296282,24.9767957 L63.9666952,23.5608321 L63.9127097,22.2235332 L62.6293963,21.1176008 L62.1527811,20.645613 L60.6627802,20.645613 L61.134768,21.9736573 L62.927088,22.973161 L63.2386617,23.303244 L62.8515082,23.4975919 L62.8700175,24.5495387 L61.9969942,24.9135555 L61.2519938,24.7500565 L60.7861757,24.0898904 L61.9969942,24.1546731 L62.3255348,23.7135341 L59.6385974,21.9011624 L59.4349948,21.1299404 L58.3429444,22.1171046 L57.2339272,21.8903653 L55.5495783,24.0790933 L55.2210377,24.9366922 L54.1428694,25.0338662 L52.5464398,25.0431208 L51.5947519,24.5973545 L51.3140271,22.7032333 L51.6579921,21.8009035 L53.2791007,21.4461414 L55.0467416,21.8009035 L55.2642262,20.8214516 L54.5130559,20.6440705 L54.7706441,19.1201359 L56.5506245,18.8409535 L57.7953768,17.0825673 L59.0817751,16.8666252 L60.241693,17.0378365 L60.6674075,17.0378365 L60.4344985,15.3874214 L59.0216198,15.9565832 L58.5280377,14.722628 L57.7089999,14.6084871 L57.5547555,13.7616854 L58.2241762,13.0351943 L59.8113511,12.4135893 L60.2200988,11.6824709 C54.1536665,6.33790241 46.2023677,3.08488801 37.4998986,3.08488801 C29.9496352,3.08488801 22.9639063,5.53428908 17.283085,9.67266634 L19.0183346,9.65878434 L19.791099,10.0875838 L21.2487086,10.4022424 L21.361307,10.9744891 L23.6796003,11.0608659 L23.3649418,10.3174079 L21.305779,10.2603375 L21.788564,9.8114863 L21.6188951,9.26700357 L19.7587077,9.26700357 L21.788564,7.75078111 L23.7335859,7.75078111 L24.6482552,9.00941542 L26.1660201,9.09579228 L27.0806894,8.20734454 L27.7686194,8.55130955 L26.5084426,9.78217986 C26.5084426,9.78217986 24.7654809,9.8114863 24.8503153,9.8114863 C24.9351497,9.8114863 24.9937626,11.0115077 24.9937626,11.0115077 L27.1084533,10.9528949 L27.3367351,10.3821906 L28.7943446,10.2958137 L28.9655559,9.43821485 L28.1079571,9.29322512 L28.3933092,8.52200311 L29.0503903,8.32302784 L31.3378348,8.43716869 L30.0776581,9.58166214 L30.2797182,10.467025 L31.5954229,10.6675427 L31.5090461,9.06648585 L32.7676804,8.40786226 L34.9980544,8.15027411 L38.2294746,9.58166214 L38.2294746,10.81099 L39.2598272,11.0685782 L38.7446509,12.0403179 L37.2870413,12.0403179 L36.855157,13.1555049 L33.5203931,12.3688585 L36.1410054,10.9729466 L35.1415017,10.1246024 L32.8818212,10.4099546 L32.6843884,10.6135572 L32.6766762,10.6104723 L32.6412,10.6598305 L31.9918311,11.335421 L30.9167476,11.4264252 L31.0031245,11.9631957 L31.3794808,12.1189825 L31.3640563,12.2963636 L30.4894906,12.4213016 L30.424708,12.9287656 L29.5887033,12.9719541 L29.4375438,11.9631957 L27.9367458,12.4197591 L24.8688247,14.2151639 L25.2143321,15.4784256 L26.071931,16.0367903 L27.7871287,16.2743267 L27.7871287,18.2239759 L28.5799449,18.095953 L29.3110634,16.5720184 L31.1357746,15.9936019 L31.1357746,13.6552568 L32.1507028,12.8886621 L34.6031888,13.4670786 L34.430435,15.011065 L35.0875162,15.011065 L36.8890908,14.1257022 L36.9754676,16.154016 L38.2896299,16.9545445 L38.2341019,18.1576508 L36.9770101,18.5864502 L37.0633869,18.9844008 L38.5780669,19.6738733 L38.5487605,20.5021657 L38.109164,20.5391843 C38.1060791,20.5237599 38.1045366,20.5160477 38.1045366,20.5160477 L36.1934485,19.9268341 L36.111699,19.3144838 L36.1101565,19.3144838 L36.6685213,18.9304152 L36.6685213,18.3720505 L36.0669681,18.220891 L35.917351,18.7360673 L34.8623193,18.8980239 L34.7574332,18.8625477 L34.7574332,18.9149908 L34.3934164,18.9705188 L34.0957247,18.3689656 L33.7517597,18.2178061 L33.0005894,18.2178061 L32.6597093,18.4969885 L32.6597093,19.1139661 L33.3029085,19.3283658 L33.9368529,19.4178275 L33.7949481,19.4810678 L33.2165316,20.1227245 L32.9604859,19.8018961 L32.4021212,19.6538215 L30.8781865,21.0882944 L31.0771618,21.2517935 L28.826736,22.4980882 L26.7105028,24.7006983 L26.5655131,25.6816926 L24.4431101,27.076062 L23.3911633,28.1341786 L23.5068466,30.2504118 L22.0476946,29.5717364 L22.0584917,28.3331539 L17.9987791,28.3346963 L15.8964279,29.3989827 L14.983301,31.0817891 L14.6223691,32.4160032 L15.2131252,33.7101137 L16.8697101,33.9121738 L19.502662,32.1522452 L19.7324861,33.0237261 L18.9288728,34.541491 L20.9325076,34.8839136 L21.1314828,37.9780562 L23.8770332,38.4438743 L25.6215373,36.4279 L27.7393129,36.8582419 L28.482771,37.8932218 L30.5126273,37.7729112 L30.5696977,37.171358 L31.6848847,37.7158408 L32.9404341,39.6870842 L35.1137377,39.7194755 L35.9158086,41.1215571 L36.0299495,42.8352124 L38.4330772,43.7514241 L41.4639797,43.782273 L42.350885,45.2367977 L43.6943537,45.6671396 L43.4367656,46.8687035 L41.9637315,48.739688 L41.5349321,52.8826926 L40.2068878,53.9346394 L38.2341019,53.8744841 L37.5754783,55.0174351 L38.0628907,57.1645172 L35.917351,59.9100675 L35.2309635,61.1687018 L33.1856827,62.1512386 L31.8406715,62.3548413 L31.7851436,62.9255455 L32.7291193,63.1954732 L32.6149784,63.8093659 L31.7697191,64.6222339 L32.283353,65.2669755 L33.301366,65.2978244 L33.2442956,66.0844708 L32.9743679,66.8556928 L32.887991,67.48501 L34.3934164,68.752899 L34.1928987,69.4115226 L32.144533,69.3745039 L30.1069645,67.5945235 L28.5197896,64.8042423 L28.7419015,62.1111351 L27.5403377,60.5085358 L28.0262075,57.7907494 L27.312056,57.5902317 L27.312056,51.6996381 C27.312056,51.6996381 25.3099636,50.1834156 25.1958228,50.1834156 C25.0801395,50.1834156 24.1361638,49.9273699 24.1361638,49.9273699 L23.9371885,48.8106405 L21.333543,45.5514563 L21.5911311,44.3791988 L21.6759656,42.4634834 L23.4759977,41.2048491 L23.2184096,39.0593095 L20.5885425,38.8603342 L18.5293798,36.5142769 L17.0717702,36.1163263 L16.1277945,35.9435726 L16.2419353,35.0859737 L15.0403715,34.9147624 L15.0403715,35.4006323 L12.037233,34.6571743 L10.8279569,32.8077839 L11.3184541,31.911624 L9.41662064,29.1367672 L9.09116495,27.1069109 L8.31994295,27.1069109 L8.5775311,29.0796968 L9.89323583,31.1095531 L9.74978854,31.911624 L8.63460153,31.7404127 L7.26336881,29.4005251 L7.26336881,26.6781115 L5.83352322,25.9901814 L5.83352322,24.0312776 C6.20833711,23.1536269 6.6217121,22.2991129 7.06439353,21.4631083 C6.6217121,22.3006554 6.20833711,23.1551694 5.83352322,24.0312776 L5.83352322,22.9577365 L7.06439353,21.4631083 Z M74.992085,37.1127451 C74.9812879,36.0160675 74.9257599,34.927102 74.8224161,33.8551034 C74.4753662,30.2812607 73.6208522,26.8554925 72.3406237,23.6441241 C72.2449922,23.4050453 72.1570729,23.1628816 72.0552716,22.9268877 C70.3493285,18.8964815 67.953913,15.2270072 65.0217269,12.0603697 C64.8289214,11.8536822 64.633031,11.6500796 64.4371407,11.4495618 C63.8834033,10.8742302 63.3142414,10.3127806 62.7250278,9.77446764 C56.0585848,3.70495049 47.2049563,0 37.4998986,0 C27.7130914,0 18.7962226,3.77127559 12.1112703,9.93333938 C10.5534019,11.3693547 9.12201383,12.9364779 7.82327598,14.6146569 C2.92447383,20.9510169 0,28.8884337 0,37.4998986 C0,58.1794453 16.8234367,75.0013396 37.501441,75.0013396 C52.046688,75.0013396 64.674677,66.672142 70.8907264,54.5361926 C72.2203131,51.9418018 73.255293,49.1761997 73.9524777,46.2779474 C74.1298588,45.5422016 74.2825607,44.8033709 74.4152109,44.0552856 C74.7931097,41.9251704 74.9997972,39.7349 74.9997972,37.4998986 C75.0013396,37.3703333 74.9936274,37.2423104 74.992085,37.1127451 Z M18.4784792,13.0922647 C18.4784792,13.0922647 19.2296494,12.9642418 19.294432,12.9642418 C19.3592147,12.9642418 19.294432,13.7138696 19.294432,13.7138696 L17.6008285,13.8202983 L17.2784577,13.4346873 L18.4784792,13.0922647 Z M20.4543499,17.0378365 L21.3551372,16.609037 L22.1695476,16.803385 L21.8888228,17.8969778 L21.0096298,18.1761601 L20.4543499,17.0378365 Z M25.2343839,19.6121755 L25.2343839,20.3201573 L23.1767636,20.3201573 L22.4055416,20.1057576 L22.5983471,19.6121755 L23.5870537,19.2034278 L24.9382346,19.2034278 L24.9382346,19.6121755 L25.2343839,19.6121755 Z M26.1814445,20.5993397 L26.1814445,21.2857272 L25.6662682,21.6173527 L25.0246115,21.7361209 L25.0246115,20.5993397 L26.1814445,20.5993397 Z M32.1013446,21.2194021 L32.0627835,21.7176116 L32.7769351,21.6574562 L32.8509724,21.1577044 L32.4221729,20.8199091 L32.1013446,21.2194021 Z M25.6014856,20.3201573 L25.6014856,19.5042044 L26.3094674,20.148946 L25.6014856,20.3201573 Z M25.9238564,21.9705724 L25.9238564,22.6384506 L25.4318167,23.1320327 L24.3382239,23.1320327 L24.5094352,22.3824049 L25.0261539,22.337674 L25.1325826,22.0800859 L25.9238564,21.9705724 Z M23.1999002,20.5993397 L24.3366815,20.5993397 L22.8790719,22.6369082 L22.2775187,22.3145374 L22.407084,21.4569385 L23.1999002,20.5993397 Z M27.8549962,21.7361209 L27.8549962,22.4024567 L26.7614034,22.4024567 L26.4621693,21.9705724 L26.4621693,21.3505099 L26.5485462,21.3505099 L27.8549962,21.7361209 Z M26.8446954,20.8199091 L27.1562691,20.492911 L27.6822425,20.8199091 L27.2611553,21.166959 L26.8446954,20.8199091 Z M70.8814717,29.7151837 L70.9894428,29.5887033 C71.0341737,29.7830512 71.0819894,29.9773992 71.1251778,30.174832 L70.8814717,29.7151837 Z M17.2784577,11.418713 L17.2784577,11.3554727 L18.0296279,11.3554727 L18.0944106,11.0978846 L19.3237385,11.0978846 L19.3237385,11.6346551 L18.9705188,12.106643 L17.2769153,12.106643 L17.2784577,11.418713 Z M62.5152554,15.5817693 L62.5214252,13.9066751 C63.1106388,14.5313649 63.6782582,15.1745641 64.2211985,15.8408999 L63.545608,16.8465734 L61.1841263,16.8249792 L61.0360516,16.3329395 L62.5152554,15.5817693 Z M67.9338612,22.1248168 L68.1513458,21.8811106 C68.436698,22.434848 68.7035408,22.9978401 68.958044,23.5685444 L68.6032819,23.5546624 L67.9338612,23.647209 L67.9338612,22.1248168 L67.9338612,22.1248168 Z M34.6417499,20.2954782 L34.4381472,20.8199091 L33.4525255,20.8199091 L33.4525255,21.3289157 L33.686977,21.3289157 C33.686977,21.3289157 33.700859,21.4368867 33.7209108,21.5787916 L34.3255488,21.5278909 L34.7034476,21.2934395 L34.802164,20.8199091 L35.2911188,20.7782632 L35.4839243,20.3803126 L35.0350731,20.287766 L34.6417499,20.2954782 Z M53.6909333,17.1380953 L53.7510886,16.3946373 L53.0893801,16.1092852 L52.1639137,16.3236849 L51.4775261,17.4249899 L51.4775261,18.1391415 L52.2780546,18.1391415 L53.6909333,17.1380953 Z M54.6518759,16.6815319 L54.7243708,17.2383542 L53.8899086,17.4111079 L53.7788526,18.5972473 L54.7783563,18.5972473 L56.107943,18.4692245 L56.7943306,17.6532716 L56.0647546,17.3694619 L55.6652616,16.9098136 L55.0652509,15.9380739 L54.7783563,14.5637563 L53.6508297,14.7935804 L53.3346287,15.2779078 L53.3346287,15.823933 L53.877569,16.195662 L54.6518759,16.6815319 Z" id="Shape" fill="#fff"></path>
    </g>
</svg>