<?xml version="1.0" encoding="UTF-8" standalone="no"?>
<svg width="55px" height="75px" viewBox="0 0 55 75" version="1.1" xmlns="http://www.w3.org/2000/svg" xmlns:xlink="http://www.w3.org/1999/xlink">
    <!-- Generator: Sketch 3.7.1 (28215) - http://www.bohemiancoding.com/sketch -->
    <title>Combined Shape</title>
    <desc>Created with Sketch.</desc>
    <defs></defs>
    <g id="Page-1" stroke="none" stroke-width="1" fill="none" fill-rule="evenodd">
        <path d="M36.9635248,8.21771713 C37.6974134,7.64452541 38.3049797,7.93797925 38.3134464,8.86930996 L38.4086114,19.8107524 C38.4164007,20.7420832 39.0546163,21.9304611 39.8264354,22.451837 L48.8938712,28.5760984 C49.666029,29.0973049 49.5747586,29.7656617 48.6916878,30.0611475 L38.3156477,33.5331484 C37.4320689,33.8284649 36.4988755,34.8028062 36.2419975,35.6977303 L33.2192367,46.213978 C32.9616815,47.1090715 32.2982353,47.2287898 31.7441782,46.4799999 L25.2353619,37.6845127 C24.6814741,36.9358922 23.4666802,36.3493232 22.5358575,36.3814964 L11.600511,36.7569073 C10.669519,36.7887419 10.3506652,36.1943836 10.891345,35.4362804 L17.2452218,26.5281868 C17.7860709,25.7699143 17.9682731,24.4333701 17.6504353,23.5579192 L13.9144445,13.2739962 C13.5962681,12.3987147 14.0629494,11.9117134 14.9511002,12.1914513 L25.3864068,15.481758 C26.274727,15.7618345 27.6024659,15.5222285 28.3363545,14.9492062 L36.9635248,8.21771713 Z M34.6646019,14.5876329 C35.1553971,14.2043053 35.561713,14.4005555 35.5673751,15.0233919 L35.6310177,22.3405882 C35.6362268,22.9634246 36.0630397,23.758164 36.5792013,24.1068392 L42.6431372,28.2024986 C43.1595253,28.5510606 43.0984873,28.9980307 42.5079251,29.1956397 L35.5688473,31.5175741 C34.9779453,31.7150699 34.3538632,32.3666701 34.1820735,32.9651593 L32.1605728,39.9980024 C31.9883302,40.5966049 31.5446441,40.6766677 31.1741131,40.1759071 L26.8212788,34.2938394 C26.4508609,33.7931921 25.6384557,33.4009184 25.0159589,33.4224345 L17.7028394,33.6734943 C17.0802294,33.694784 16.8669929,33.297301 17.2285778,32.7903121 L21.4777947,26.8329378 C21.8394929,26.3258357 21.9613423,25.4320087 21.7487852,24.8465424 L19.250305,17.9690688 C19.0375214,17.3837157 19.3496191,17.0580289 19.9435786,17.2451063 L26.9222915,19.445531 C27.5163643,19.6328349 28.4043026,19.472596 28.8950978,19.0893817 L34.6646019,14.5876329 Z M39.7221264,0.766055469 C40.0475841,0.0922800353 40.8571645,-0.190167168 41.531448,0.134951915 C42.2052234,0.460070998 42.4875013,1.26999005 42.1625515,1.94376548 L40.8371833,4.68882041 C40.5120642,5.36259584 39.7023145,5.64504305 39.0283697,5.3200933 C38.3545943,4.99497421 38.0721471,4.18505516 38.3972661,3.51127973 L39.7221264,0.766055469 Z M8.09091824,28.5383372 C7.36380296,28.714782 6.63160769,28.2692673 6.45431619,27.5419827 C6.27787135,26.8150367 6.72355543,26.0823334 7.45033205,25.9055499 L10.4123024,25.1853773 C11.1392483,25.0084245 11.8721209,25.4542779 12.0487351,26.1812238 C12.2253493,26.9083391 11.7796652,27.640873 11.0525499,27.8178259 L8.09091824,28.5383372 Z M17.5894755,4.94942368 C17.2455604,4.28479222 17.5049784,3.46776119 18.1692712,3.12350749 C18.8339026,2.77959246 19.651103,3.03884106 19.9953567,3.70296452 L21.3972634,6.40991956 C21.7410091,7.07404302 21.4817605,7.89158205 20.817637,8.23549708 C20.1531749,8.57958144 19.3356359,8.32016351 18.9915515,7.65570138 L17.5894755,4.94942368 Z M40.6670037,44.2632635 C40.9809469,44.9424576 41.7852779,45.2386208 42.46498,44.924847 C43.1440048,44.6109039 43.4408453,43.8062341 43.1267328,43.1272094 L41.8479311,40.3598025 C41.533988,39.6806084 40.7296569,39.3841066 40.0504628,39.698219 C39.3712687,40.0121622 39.0749362,40.8166626 39.38871,41.4958566 L40.6670037,44.2632635 Z M53.2282843,22.1527952 C53.9623423,22.0086929 54.4407076,21.2971563 54.2971133,20.562929 C54.1528417,19.8287017 53.4414744,19.3498284 52.7072471,19.4937613 L49.7159822,20.0799917 C48.9815856,20.2237553 48.503051,20.9352919 48.6468146,21.6693499 C48.7912555,22.4035771 49.5026228,22.8824505 50.2371888,22.7383482 L53.2282843,22.1527952 Z M2.64284715,74.8104483 L0.660621621,73.6302363 C0.0204809809,73.2494001 -0.191620256,72.4135814 0.189568097,71.7733016 L18.0958626,41.6961422 C18.4770509,41.0558623 19.3128697,40.8437611 19.9529808,41.2249347 L21.9353898,42.4049927 C22.575347,42.7859828 22.7876169,43.6218163 22.4064285,44.2620962 L4.4997967,74.339226 C4.11877703,74.9795206 3.28295828,75.1916219 2.64284715,74.8104483 Z" id="Combined-Shape" fill="#FFFFFF"></path>
    </g>
</svg>