<?xml version="1.0" encoding="UTF-8" standalone="no"?>
<svg width="71px" height="75px" viewBox="0 0 71 75" version="1.1" xmlns="http://www.w3.org/2000/svg" xmlns:xlink="http://www.w3.org/1999/xlink">
    <!-- Generator: Sketch 3.7.1 (28215) - http://www.bohemiancoding.com/sketch -->
    <title>Shape</title>
    <desc>Created with Sketch.</desc>
    <defs></defs>
    <g id="Page-1" stroke="none" stroke-width="1" fill="none" fill-rule="evenodd">
        <path d="M51.8324866,70.6911171 C45.9103683,73.8137594 39.8724813,75 32.6509493,75 C14.9782998,75 7.10542736e-15,62.0751684 7.10542736e-15,41.3834456 C0.000259571258,19.1823159 15.4078903,0 39.3382836,0 C58.0899709,0 70.7002021,13.1452076 70.7002021,31.1415425 C70.7002021,47.3055638 61.6463567,56.790038 51.5181458,56.790038 C47.2004375,56.790038 43.2180952,53.8779081 43.5417806,47.3058234 L43.1114114,47.3058234 C39.3385432,53.6671362 34.3804726,56.790038 27.9137739,56.790038 C21.6658937,56.790038 16.2782327,51.7198326 16.2782327,43.207972 C16.2782327,29.8439458 26.8347362,17.6731686 41.813036,17.6731686 C46.4453447,17.6731686 50.5447535,18.637995 53.3426721,19.9374087 L49.6837557,39.4364016 C48.0689629,47.632364 49.357215,51.4052323 52.9136008,51.5093203 C58.4139158,51.6147063 64.5571887,44.2870097 64.5571887,31.7837218 C64.5571887,16.1637618 55.1768026,4.9489856 38.4687199,4.9489856 C20.9102818,4.9489856 6.14223467,18.8568136 6.14223467,40.7337387 C6.14223467,58.731631 17.8922468,69.8306384 33.8351134,69.8306384 C39.9783864,69.8306384 45.6912902,68.5335608 50.112827,66.0577702 L51.8324866,70.6911171 L51.8324866,70.6911171 Z M45.9088109,24.1307824 C44.8300327,23.8146246 42.9953831,23.3842554 40.5195924,23.3842554 C31.0353778,23.3842554 23.382698,32.3259661 23.382698,42.7786411 C23.382698,47.5251611 25.752324,50.9746035 30.498844,50.9746035 C36.7467242,50.9746035 42.4580706,42.9982384 43.6440517,36.3103849 L45.9088109,24.1307824 L45.9088109,24.1307824 Z" id="Shape" fill="#43575D"></path>
    </g>
</svg>