<?xml version="1.0" encoding="UTF-8" standalone="no"?>
<svg width="44px" height="75px" viewBox="0 0 44 75" version="1.1" xmlns="http://www.w3.org/2000/svg" xmlns:xlink="http://www.w3.org/1999/xlink">
    <!-- Generator: Sketch 3.7.1 (28215) - http://www.bohemiancoding.com/sketch -->
    <title>Combined Shape</title>
    <desc>Created with Sketch.</desc>
    <defs></defs>
    <g id="Page-1" stroke="none" stroke-width="1" fill="none" fill-rule="evenodd">
        <path d="M38.4620032,0 L5.1281399,0 C2.35135135,0 3.55271368e-15,2.35039746 3.55271368e-15,5.1281399 L3.55271368e-15,69.872814 C3.55271368e-15,72.6505564 2.35135135,75 5.1281399,75 L38.4610493,75 C41.2368839,75 43.5882353,72.6505564 43.5882353,69.872814 L43.5882353,5.1281399 C43.5891892,2.35039746 41.2387917,0 38.4620032,0 Z M39.9577107,65.3837838 L3.63243243,65.3837838 L3.63243243,7.90588235 L39.9577107,7.90588235 L39.9577107,65.3837838 Z M16.4518283,3.63338633 L27.1354531,3.63338633 C27.5618442,3.63338633 27.7764706,3.84705882 27.7764706,4.27440382 C27.7764706,4.70174881 27.5618442,4.9154213 27.1354531,4.9154213 L16.4518283,4.9154213 C16.0254372,4.9154213 15.8108108,4.70174881 15.8108108,4.27440382 C15.8127186,3.84705882 16.0254372,3.63338633 16.4518283,3.63338633 Z M21.7945946,72.2213037 C20.299841,72.2213037 19.2305246,71.1538951 19.2305246,69.6572337 C19.2305246,68.1615262 20.2988871,67.3058824 21.7945946,67.3058824 C23.2893482,67.3058824 24.3586645,68.3751987 24.3586645,69.8699523 C24.3586645,71.1538951 23.2893482,72.2213037 21.7945946,72.2213037 Z M19.2305246,30.7697933 L19.8715421,30.1287758 L14.3170111,24.5742448 C14.1023847,24.3586645 13.8896661,24.3586645 13.6750397,24.5742448 C13.4613672,24.7879173 13.4613672,24.999682 13.6750397,25.2152623 L19.2305246,30.7697933 Z M31.1952305,49.5720191 C32.690938,50.000318 34.3993641,50.2139905 34.3993641,50.2139905 C34.3993641,50.2139905 33.972973,48.5055644 33.7583466,47.0117647 L31.1952305,49.5720191 Z M10.2553259,27.563752 C9.61430843,28.418442 9.40063593,29.2740859 9.61430843,29.4887122 L17.5201908,37.3936407 C17.5201908,37.3936407 18.3748808,36.3262321 19.0149444,35.6852146 L21.1516693,33.7602544 L13.2467409,25.8553259 C13.0321145,25.6406995 12.1783784,25.8553259 11.3227345,26.4963434 L10.681717,25.8553259 C10.254372,25.4289348 9.61335453,25.4289348 9.39872814,25.8553259 C8.97233704,26.281717 9.18505564,26.7100159 9.39872814,27.1373609 L10.2553259,27.563752 Z M26.4953895,38.6747218 L24.5713831,41.0260731 C23.9303657,41.8807631 22.8620032,42.5217806 22.8620032,42.5217806 L29.4848967,49.1437202 L33.3300477,45.2995231 L26.4953895,38.6747218 Z M12.1793323,42.9491256 C10.0435612,45.0858506 11.3246423,48.7192369 8.33418124,48.9310016 C11.7529412,51.0677266 14.9570747,49.7856916 17.0957075,47.6489666 C19.2324324,45.5122417 18.8050874,43.8038156 17.30938,42.5198728 C16.0254372,41.2387917 14.3160572,40.8124006 12.1793323,42.9491256 Z M35.0432432,24.999682 C34.6149444,24.5742448 33.7602544,24.7860095 32.9065183,25.4279809 L20.299841,36.1106518 C19.6578696,36.7516693 19.0168521,37.1780604 18.590461,38.0337043 L17.3074722,39.5284579 C16.6664547,40.3831479 16.8810811,41.4524642 17.5220986,42.0925278 L17.736725,42.3081081 C18.3777424,42.9491256 19.6597774,43.1627981 20.3007949,42.5227345 L22.0101749,41.2406995 C22.8648649,40.5977742 23.2922099,40.1732909 23.9351351,39.5303657 L34.6130366,26.9236884 C35.2540541,26.2826709 35.4686804,25.4279809 35.0432432,24.999682 Z" id="Combined-Shape" fill="#43575D"></path>
    </g>
</svg>