<?xml version="1.0" encoding="UTF-8" standalone="no"?>
<svg width="75px" height="64px" viewBox="0 0 75 64" version="1.1" xmlns="http://www.w3.org/2000/svg" xmlns:xlink="http://www.w3.org/1999/xlink">
    <!-- Generator: Sketch 3.7.1 (28215) - http://www.bohemiancoding.com/sketch -->
    <title>Shape</title>
    <desc>Created with Sketch.</desc>
    <defs></defs>
    <g id="Page-1" stroke="none" stroke-width="1" fill="none" fill-rule="evenodd">
        <path d="M0,36.8876582 L0,55.8825949 C0,60.3303797 4.09367089,63.5867089 8.54050633,63.5867089 L47.4721519,63.5867089 C51.9199367,63.5867089 55.0632911,60.3294304 55.0632911,55.8825949 L55.0632911,55.6281646 L69.3987342,62.7493671 C69.664557,62.8841772 69.8392405,62.953481 70.1363924,62.953481 C72.9303797,62.953481 75,60.6787975 75,57.7756329 L75,33.1946203 C75,30.2914557 73.0490506,28.0186709 70.2550633,28.0186709 C69.9588608,28.0186709 69.7860759,28.0879747 69.5212025,28.2208861 L55.3329114,35.381962 C54.6474684,31.7724684 51.5829114,29.0164557 47.8205696,28.8408228 C51.7765823,25.9300633 54.3740506,21.2563291 54.3740506,15.9787975 C54.3740506,7.16867089 47.2148734,3.55271368e-15 38.4037975,3.55271368e-15 C31.2066456,3.55271368e-15 25.114557,4.78670886 23.1218354,11.3411392 C20.9297468,9.13670886 17.8993671,7.76772152 14.5518987,7.76772152 C7.8835443,7.76772152 2.45886076,13.1933544 2.45886076,19.8607595 C2.45886076,23.531962 3.87246835,26.8205696 6.46424051,29.0401899 C2.90031646,29.8765823 0,33.0731013 0,36.8876582 L0,36.8876582 Z M70.368038,31.8664557 C70.939557,32.0401899 71.2025316,32.635443 71.2025316,33.1946203 L71.2025316,57.7756329 C71.2025316,58.3357595 70.939557,58.931962 70.3699367,59.1056962 L55.0632911,51.3740506 L55.0632911,39.5572785 L70.368038,31.8664557 L70.368038,31.8664557 Z M25.3879747,24.8401899 C26.3743671,26.2300633 27.5781646,27.5107595 28.9481013,28.4601266 L22.6471519,28.4601266 C23.7740506,27.5107595 24.7063291,26.2158228 25.3879747,24.8401899 L25.3879747,24.8401899 Z M26.2310127,15.9797468 C26.2310127,9.26297468 31.6946203,3.79841772 38.410443,3.79841772 C45.1272152,3.79841772 50.5908228,9.26297468 50.5908228,15.9797468 C50.5908228,22.6946203 45.1272152,28.1582278 38.410443,28.1582278 C32.6990506,28.1582278 27.9075949,24.2012658 26.5974684,18.8886076 C26.5443038,18.2306962 26.4360759,17.5898734 26.2813291,16.9661392 C26.2547468,16.639557 26.2310127,16.3120253 26.2310127,15.9797468 L26.2310127,15.9797468 Z M14.5537975,11.5661392 C18.3227848,11.5661392 21.506962,14.0952532 22.5132911,17.5433544 C22.5768987,18.1974684 22.6889241,18.8373418 22.8294304,19.4667722 C22.8351266,19.5987342 22.8493671,19.7278481 22.8493671,19.8617089 C22.8493671,24.4357595 19.1278481,28.1572785 14.5537975,28.1572785 C9.97879747,28.1572785 6.25727848,24.4357595 6.25727848,19.8617089 C6.25727848,15.2876582 9.97879747,11.5661392 14.5537975,11.5661392 L14.5537975,11.5661392 Z M51.2658228,55.5208861 C51.2658228,57.8781646 49.3547468,59.7892405 46.9974684,59.7892405 L8.06582278,59.7892405 C5.7085443,59.7892405 3.79746835,57.8781646 3.79746835,55.5208861 L3.79746835,36.5259494 C3.79746835,34.1686709 5.7085443,32.2575949 8.06582278,32.2575949 L46.9974684,32.2575949 C49.3547468,32.2575949 51.2658228,34.1686709 51.2658228,36.5259494 L51.2658228,55.5208861 L51.2658228,55.5208861 Z" id="Shape" fill="#FFFFFF"></path>
    </g>
</svg>