<?xml version="1.0" encoding="UTF-8" standalone="no"?>
<svg width="67px" height="75px" viewBox="0 0 67 75" version="1.1" xmlns="http://www.w3.org/2000/svg" xmlns:xlink="http://www.w3.org/1999/xlink">
    <!-- Generator: Sketch 3.7.1 (28215) - http://www.bohemiancoding.com/sketch -->
    <title>Combined Shape</title>
    <desc>Created with Sketch.</desc>
    <defs></defs>
    <g id="Page-1" stroke="none" stroke-width="1" fill="none" fill-rule="evenodd">
        <path d="M65.127766,18.4380319 L61.9132979,18.4380319 C64.2209043,16.5260106 65.6934574,13.6397872 65.6934574,10.4159043 C65.6934574,4.6725 61.0209574,0 55.2777128,0 C52.5274468,0 49.9332447,1.06260638 47.9707979,2.99409574 L38.9470213,11.9136702 C38.004734,9.64595745 35.7671809,8.04670213 33.1622872,8.04670213 C30.5575532,8.04670213 28.3198404,9.64595745 27.3777128,11.9138298 L18.3520213,2.9925 C16.3914894,1.06276596 13.7971277,0 11.0468617,0 C5.30361702,0 0.631117021,4.6725 0.631117021,10.4157447 C0.631117021,13.6396277 2.10367021,16.5258511 4.4112766,18.4378723 L1.19680851,18.4378723 C0.535851064,18.4378723 0,18.9737234 0,19.6346809 L0,35.5921277 C0,36.2530851 0.535851064,36.7889362 1.19680851,36.7889362 L3.19148936,36.7889362 L3.19148936,73.8031915 C3.19148936,74.4641489 3.72734043,75 4.38829787,75 L61.9364362,75 C62.5975532,75 63.1332447,74.4641489 63.1332447,73.8031915 L63.1332447,36.7890957 L65.1279255,36.7890957 C65.7890426,36.7890957 66.324734,36.2532447 66.324734,35.5922872 L66.324734,19.6348404 C66.3245745,18.973883 65.788883,18.4380319 65.127766,18.4380319 L65.127766,18.4380319 Z M49.8723189,5.43609787 C51.1874849,4.14177884 52.9275122,3.42895137 54.7723303,3.42895137 C58.6249898,3.42895137 61.7591236,6.56322418 61.7591236,10.4157447 C61.7591236,14.2682652 58.6248508,17.402538 54.7723303,17.402538 L40.9645466,17.402538 L40.9645466,14.2411641 L49.8723189,5.43609787 L49.8723189,5.43609787 Z M26.8160086,21.9553495 L32.0423557,21.9553495 L32.0423557,47.7137747 C32.0423557,48.3322755 32.5437864,48.8337062 33.1622872,48.8337062 C33.7807881,48.8337062 34.2822188,48.3322755 34.2822188,47.7137747 L34.2822188,21.9553495 L39.5085659,21.9553495 L39.5085659,54.6951292 L33.7385293,51.2330475 C33.3838844,51.0202605 32.9406901,51.0202605 32.5860451,51.2330475 L26.8160086,54.6951292 L26.8160086,21.9553495 L26.8160086,21.9553495 Z M33.1622872,11.120555 C34.9322094,11.120555 36.3722492,12.5605949 36.3722492,14.330517 L36.3722492,17.7577961 L29.9523252,17.7577961 L29.9523252,14.330517 C29.9523252,12.5604625 31.3923651,11.120555 33.1622872,11.120555 L33.1622872,11.120555 Z M3.97510638,10.4157447 C3.97510638,6.34448309 7.28733911,3.03225036 11.3586007,3.03225036 C13.3080183,3.03225036 15.1469889,3.78555125 16.5352127,5.15174445 L25.9503723,14.4582196 L25.9503723,17.799239 L11.3586007,17.799239 C7.28733911,17.7993859 3.97510638,14.4871531 3.97510638,10.4157447 L3.97510638,10.4157447 Z M62.7690502,34.8608485 L45.446168,34.8608485 C44.8100165,34.8608485 44.2945542,35.3764643 44.2945542,36.0124623 C44.2945542,36.6484602 44.8100165,37.1640761 45.446168,37.1640761 L59.69808,37.1640761 L59.69808,71.6288068 L6.6264945,71.6288068 L6.6264945,37.1640761 L20.8784065,37.1640761 C21.5144044,37.1640761 22.0300203,36.6484602 22.0300203,36.0124623 C22.0300203,35.3764643 21.5144044,34.8608485 20.8784065,34.8608485 L3.55552432,34.8608485 L3.55552432,21.8092252 L24.3332479,21.8092252 L24.3332479,57.5092536 C24.3332479,57.9241416 24.5565075,58.3069381 24.9175,58.5113111 C25.2786461,58.7158378 25.7216336,58.7101565 26.0774055,58.496724 L33.1622872,54.2458871 L40.2473226,58.4968776 C40.4295846,58.6062041 40.6344183,58.6610209 40.8397127,58.6610209 C41.03518,58.6610209 41.2309543,58.6112712 41.4070744,58.5114647 C41.7682205,58.3070916 41.9913265,57.9242952 41.9913265,57.5094071 L41.9913265,21.8093787 L62.7690502,21.8093787 L62.7690502,34.8608485 Z M11.6738249,5.24328403 C8.57026111,5.24328403 6.0453143,7.76823084 6.0453143,10.8717947 C6.0453143,11.5327521 6.58116536,12.0686032 7.24212281,12.0686032 C7.90308026,12.0686032 8.43893132,11.5327521 8.43893132,10.8717947 C8.43893132,9.08807127 9.89010153,7.63690106 11.6738249,7.63690106 C12.3347824,7.63690106 12.8706334,7.10104999 12.8706334,6.44009254 C12.8706334,5.7791351 12.3347824,5.24328403 11.6738249,5.24328403 L11.6738249,5.24328403 Z" id="Combined-Shape" fill="#43575D"></path>
    </g>
</svg>