<?xml version="1.0" encoding="UTF-8" standalone="no"?>
<svg width="75px" height="62px" viewBox="0 0 75 62" version="1.1" xmlns="http://www.w3.org/2000/svg" xmlns:xlink="http://www.w3.org/1999/xlink">
    <!-- Generator: Sketch 3.7.1 (28215) - http://www.bohemiancoding.com/sketch -->
    <title>Combined Shape</title>
    <desc>Created with Sketch.</desc>
    <defs></defs>
    <g id="Page-1" stroke="none" stroke-width="1" fill="none" fill-rule="evenodd">
        <path d="M0,9.8753868 C0,8.22096709 1.34430754,6.87979493 2.99039079,6.87979493 L65.0737783,6.87979493 C66.7253255,6.87979493 68.0641691,8.22153098 68.0641691,9.8753868 L68.0641691,58.163224 C68.0641691,59.8176437 66.7198615,61.1588158 65.0737783,61.1588158 L2.99039079,61.1588158 C1.33884356,61.1588158 0,59.8170798 0,58.163224 L0,9.8753868 Z M3.44628704,11.3267485 C3.44628704,10.7740957 3.90350209,10.326082 4.44442315,10.326082 L63.6197459,10.326082 C64.1710013,10.326082 64.617882,10.7649305 64.617882,11.3267485 L64.617882,56.7118622 C64.617882,57.2645151 64.160667,57.7125288 63.6197459,57.7125288 L4.44442315,57.7125288 C3.8931678,57.7125288 3.44628704,57.2736802 3.44628704,56.7118622 L3.44628704,11.3267485 Z M45.6633033,30.1422325 C49.9457998,30.1422325 53.4174491,26.6705831 53.4174491,22.3880866 C53.4174491,18.1055901 49.9457998,14.6339408 45.6633033,14.6339408 C41.3808068,14.6339408 37.9091575,18.1055901 37.9091575,22.3880866 C37.9091575,26.6705831 41.3808068,30.1422325 45.6633033,30.1422325 Z M6.96699083,52.3379568 L21.383376,37.5820645 L24.1640408,40.0504588 L31.070414,32.8828044 L41.4453341,42.8130714 L46.5559933,37.8645649 L61.0506044,52.6381926 L6.96699083,52.3379568 Z M69.017955,54.2521004 L73.2821587,54.2521004 C73.2821587,54.2521004 74.9999999,54.4351694 75,52.5342591 C75,50.6333489 75,1.70975095 75,1.70975095 C75,1.70975095 74.7613427,1.4433053e-05 73.2902634,1.44128915e-05 C71.8191842,1.43927299e-05 8.68044677,1.44128915e-05 8.68044677,1.44128915e-05 C8.68044677,1.44128915e-05 6.91966121,-0.0229188309 6.91966117,1.76080001 C6.91966114,3.54451885 6.91966117,6.00192876 6.91966117,6.00192876 L10.3559399,6.00192876 L10.3559399,4.24214654 C10.3559399,4.24214654 10.3623184,3.38569196 11.2123944,3.38569206 C12.0624704,3.38569217 70.6945714,3.38569206 70.6945714,3.38569206 C70.6945714,3.38569206 71.5962538,3.48177428 71.5962547,4.28737536 C71.5962556,5.09297644 71.5962547,49.9024193 71.5962547,49.9024193 C71.5962547,49.9024193 71.5627583,50.7764788 70.7221947,50.7764793 C69.8816311,50.7764798 68.9412021,50.7764793 68.9412021,50.7764793 L69.017955,54.2521004 Z" id="Combined-Shape" fill="#43575D"></path>
    </g>
</svg>