<?xml version="1.0" encoding="UTF-8" standalone="no"?>
<svg width="65px" height="75px" viewBox="0 0 65 75" version="1.1" xmlns="http://www.w3.org/2000/svg" xmlns:xlink="http://www.w3.org/1999/xlink">
    <!-- Generator: Sketch 3.7.1 (28215) - http://www.bohemiancoding.com/sketch -->
    <title>Shape</title>
    <desc>Created with Sketch.</desc>
    <defs></defs>
    <g id="Page-1" stroke="none" stroke-width="1" fill="none" fill-rule="evenodd">
        <path d="M60.7172557,42.8326403 C58.7525988,38.3108108 56.039501,33.9293139 52.6091476,29.8284823 C48.4615385,24.8388773 44.3295218,21.502079 42.2245322,19.95842 L50.1767152,5.20790021 C50.5665281,4.47505198 50.4417879,3.57068607 49.8336798,2.99376299 C47.7754678,0.982328482 45.5925156,0 43.1600832,0 C40.9303534,0 38.8877339,0.841995842 37.1101871,1.59043659 C35.7068607,2.16735967 34.3814969,2.72869023 33.3056133,2.72869023 C32.9781705,2.72869023 32.6975052,2.68191268 32.4168399,2.57276507 C28.7058212,1.21621622 25.8523909,0.374220374 23.0925156,0.374220374 C19.5997921,0.374220374 16.6216216,1.77754678 13.7058212,4.77130977 C13.0977131,5.3950104 13.004158,6.37733888 13.487526,7.11018711 L22.0634096,20.0675676 C19.9428274,21.6424116 15.8887734,24.9480249 11.8191268,29.8284823 C8.4043659,33.9293139 5.67567568,38.3108108 3.71101871,42.8326403 C1.24740125,48.5239085 0,54.464657 0,60.483368 C0,68.4823285 6.51767152,75 14.516632,75 L49.9116424,75 C57.9106029,75 64.4282744,68.4823285 64.4282744,60.483368 C64.4282744,54.464657 63.1808732,48.5239085 60.7172557,42.8326403 Z M17.47921,6.33056133 C19.2879418,4.77130977 21.018711,4.08523909 23.0925156,4.08523909 C25.3066528,4.08523909 27.8014553,4.83367983 31.1226611,6.06548857 C31.8087318,6.31496881 32.54158,6.43970894 33.2900208,6.43970894 C35.1143451,6.43970894 36.8607069,5.72245322 38.529106,5.02079002 C40.1351351,4.35031185 41.6632017,3.71101871 43.1444906,3.71101871 C43.8617464,3.71101871 44.8752599,3.83575884 46.1538462,4.74012474 L38.6694387,18.6486486 L25.6340956,18.6486486 L17.47921,6.33056133 Z M49.9116424,71.2577963 L14.516632,71.2577963 C8.57588358,71.2577963 3.74220374,66.4241164 3.74220374,60.483368 C3.74220374,50.4885655 7.40644491,41.008316 14.6101871,32.3076923 C19.1632017,26.8035343 23.7941788,23.3887734 25.1975052,22.3908524 L39.1995842,22.3908524 C40.6185031,23.3731809 45.2338877,26.8035343 49.7869023,32.3076923 C57.006237,41.008316 60.6548857,50.472973 60.6548857,60.483368 C60.6860707,66.4241164 55.8523909,71.2577963 49.9116424,71.2577963 Z M34.7401247,47.0738046 L30.452183,47.0738046 C28.8929314,47.0738046 27.6299376,45.8108108 27.6299376,44.2515593 C27.6299376,42.6923077 28.8929314,41.4293139 30.452183,41.4293139 L37.9989605,41.4293139 C39.0280665,41.4293139 39.8700624,40.5873181 39.8700624,39.5582121 C39.8700624,38.529106 39.0280665,37.6871102 37.9989605,37.6871102 L34.4594595,37.6871102 L34.4594595,35.0831601 C34.4594595,34.0540541 33.6174636,33.2120582 32.5883576,33.2120582 C31.5592516,33.2120582 30.7172557,34.0540541 30.7172557,35.0831601 L30.7172557,37.6871102 L30.452183,37.6871102 C26.8347193,37.6871102 23.8877339,40.6340956 23.8877339,44.2515593 C23.8877339,47.8690229 26.8347193,50.8160083 30.452183,50.8160083 L34.7401247,50.8160083 C36.2993763,50.8160083 37.5623701,52.0790021 37.5623701,53.6382536 C37.5623701,55.1975052 36.2993763,56.460499 34.7401247,56.460499 L27.0530146,56.460499 C26.0239085,56.460499 25.1819127,57.3024948 25.1819127,58.3316008 C25.1819127,59.3607069 26.0239085,60.2027027 27.0530146,60.2027027 L30.7328482,60.2027027 L30.7328482,62.8690229 C30.7328482,63.8981289 31.5748441,64.7401247 32.6039501,64.7401247 C33.6330561,64.7401247 34.475052,63.8981289 34.475052,62.8690229 L34.475052,60.2027027 L34.7869023,60.2027027 L34.8336798,60.2027027 C38.4199584,60.1559252 41.3045738,57.2245322 41.3045738,53.6382536 C41.3045738,50.02079 38.3575884,47.0738046 34.7401247,47.0738046 Z" id="Shape" fill="#FFFFFF"></path>
    </g>
</svg>