<?xml version="1.0" encoding="UTF-8" standalone="no"?>
<svg width="75px" height="50px" viewBox="0 0 75 50" version="1.1" xmlns="http://www.w3.org/2000/svg" xmlns:xlink="http://www.w3.org/1999/xlink">
    <!-- Generator: Sketch 3.7.1 (28215) - http://www.bohemiancoding.com/sketch -->
    <title>Combined Shape</title>
    <desc>Created with Sketch.</desc>
    <defs></defs>
    <g id="Page-1" stroke="none" stroke-width="1" fill="none" fill-rule="evenodd">
        <path d="M68.344898,13.8878571 C64.1733673,10.6856633 58.6498469,8.92209184 52.7914286,8.92209184 C49.2491327,8.92209184 45.829898,9.5680102 42.7575,10.7856122 C41.2218367,7.86260204 38.659898,5.27403061 35.4009184,3.39030612 C31.5639796,1.17229592 27.0019898,0 22.2087245,0 C16.3503061,0 10.8267857,1.76357143 6.6552551,4.96576531 C2.36341837,8.25994898 0,12.677449 0,17.4041327 C0,21.6612245 1.94739796,25.7129082 5.50040816,28.8852551 L5.56086735,39.2559184 C5.56392857,39.7971429 5.83852041,40.322449 6.32020408,40.5691837 C6.89204082,40.8622959 7.43739796,40.7921939 7.83734694,40.5835714 L18.5957143,34.5791327 C19.7885204,34.7315816 21.0010714,34.8087245 22.2087245,34.8087245 L22.2096429,34.8087245 C25.7070918,34.8087245 29.1388776,34.1667857 32.2297959,32.9453571 C33.3577041,35.1059694 35.0455102,37.082449 37.2378061,38.7653571 C41.4093367,41.967551 46.9330102,43.7309694 52.7914286,43.7309694 C54.004898,43.7309694 55.2243367,43.6529082 56.4234184,43.4989286 L67.1952551,49.1759694 C67.8065816,49.4872959 68.2597959,49.4112245 68.6957143,49.1346429 C69.1470918,48.8482653 69.4362245,48.3656633 69.4394388,47.8308673 L69.499898,37.8076531 C73.052602,34.6354592 75,30.5834694 75,26.3265306 C75,21.5998469 72.6365816,17.1825 68.344898,13.8878571 Z M61.7831633,21.1983673 L43.7992347,21.1983673 C42.9538776,21.1983673 42.2686224,21.8836224 42.2686224,22.7289796 C42.2686224,23.5743367 42.9538776,24.2595918 43.7992347,24.2595918 L61.7831633,24.2595918 C62.6282143,24.2595918 63.3137755,23.5743367 63.3137755,22.7289796 C63.3137755,21.8836224 62.6283673,21.1983673 61.7831633,21.1983673 Z M22.1799013,31.2338955 L22.1790226,31.2338955 C20.9864561,31.2338955 19.7883243,31.1457308 18.6181651,30.9723305 C18.1991632,30.9105273 17.7955388,31.0319369 17.4885733,31.2772456 L9.16433295,35.9233196 L9.117468,27.8413124 C9.11805382,27.8120219 9.117468,27.7824384 9.11600347,27.7528549 C9.09681813,27.341322 8.9054041,26.956883 8.58818697,26.6938534 C5.53830386,24.1628532 3.85834184,20.9011991 3.85834184,17.5099341 C3.85834184,9.94256267 12.0771361,3.78611916 22.1791691,3.78611916 C29.6635017,3.78611916 36.4300683,7.28224447 39.1899745,12.4271373 C38.2638059,12.9397227 37.3836236,13.5127932 36.5592398,14.14547 C32.4528449,17.2977238 30.1914646,21.5245029 30.1914646,26.0471171 C30.1914646,27.2779079 30.3604714,28.4865842 30.686915,29.6580615 C28.0724366,30.6911408 25.1587548,31.2338955 22.1799013,31.2338955 L22.1799013,31.2338955 Z M66.4749432,35.6578769 C66.1558541,35.9227032 65.9631325,36.3100632 65.9438161,36.7242597 C65.9423416,36.7510962 65.9420467,36.7777853 65.9420467,36.8044744 L65.8948616,44.6827608 L57.4869227,40.2516394 C57.1813993,40.0185156 56.7865191,39.904829 56.3761564,39.9655798 C55.197709,40.1404595 53.9915404,40.229079 52.7911224,40.229079 C44.4617761,40.229079 37.4055423,36.0717785 35.1226691,30.3818477 C35.1132321,30.3541264 35.1011409,30.3271425 35.089787,30.2997161 C34.6059925,29.0656788 34.345,27.7608639 34.345,26.4112231 C34.345,18.6430844 42.7495475,12.5935147 52.7911224,12.5935147 C62.8326974,12.5935147 71.2372449,18.7921597 71.2372449,26.4112231 C71.2372449,29.8255061 69.5458072,33.1094402 66.4749432,35.6578769 Z M61.7831633,28.1280612 L43.7992347,28.1280612 C42.9538776,28.1280612 42.2686224,28.8133163 42.2686224,29.6586735 C42.2686224,30.5040306 42.9538776,31.1892857 43.7992347,31.1892857 L61.7831633,31.1892857 C62.6282143,31.1892857 63.3137755,30.5040306 63.3137755,29.6586735 C63.3137755,28.8133163 62.6283673,28.1280612 61.7831633,28.1280612 Z" id="Combined-Shape" fill="#43575D"></path>
    </g>
</svg>