<?xml version="1.0" encoding="iso-8859-1"?>
<!-- Generator: Adobe Illustrator 19.0.0, SVG Export Plug-In . SVG Version: 6.00 Build 0)  -->
<svg version="1.1" id="Layer_1" xmlns="http://www.w3.org/2000/svg" xmlns:xlink="http://www.w3.org/1999/xlink" x="0px" y="0px"
	 viewBox="0 0 1087.48 167.312" style="enable-background:new 0 0 1087.48 167.312;" xml:space="preserve">
<g>
	<path d="M511.48,144.699c0,12.486-10.121,22.612-22.605,22.612H22.61C10.125,167.312,0,157.186,0,144.699V22.611
		C0,10.125,10.125,0,22.61,0h466.264c12.484,0,22.605,10.125,22.605,22.61V144.699z"/>
	<g id="PLAY_1_">
		<defs>
			<path id="SVGID_1_" d="M110.844,73.647L87.781,60.331c0,0-42.016-24.261-44.486-25.686c-2.47-1.426-4.931-0.562-4.931,2.418
				c0,4.965,0,51.8,0,51.8s0,50.615,0,52.851c0,2.234,1.759,3.197,3.905,1.959c2.145-1.24,45.512-26.279,45.512-26.279
				l23.062-13.315c0,0,19.568-11.297,22.169-12.798c2.601-1.503,2.351-3.563,0.156-4.745
				C130.974,85.353,110.844,73.647,110.844,73.647z"/>
		</defs>
		<clipPath id="SVGID_2_">
			<use xlink:href="#SVGID_1_"  style="overflow:visible;"/>
		</clipPath>
		<linearGradient id="SVGID_3_" gradientUnits="userSpaceOnUse" x1="66.9316" y1="32.2111" x2="66.9316" y2="145.5138">
			<stop  offset="0" style="stop-color:#2079B0"/>
			<stop  offset="0.2863" style="stop-color:#4A93B8"/>
			<stop  offset="0.767" style="stop-color:#83BEBF"/>
			<stop  offset="1" style="stop-color:#97CFBF"/>
		</linearGradient>
		<polygon style="clip-path:url(#SVGID_2_);fill:url(#SVGID_3_);" points="38.365,32.211 38.365,88.862 38.365,145.514 
			95.498,88.863 		"/>
		<linearGradient id="SVGID_4_" gradientUnits="userSpaceOnUse" x1="38.3647" y1="60.3312" x2="110.8442" y2="60.3312">
			<stop  offset="0" style="stop-color:#5ABCAB"/>
			<stop  offset="1" style="stop-color:#E6E99A"/>
		</linearGradient>
		<polygon style="clip-path:url(#SVGID_2_);fill:url(#SVGID_4_);" points="110.844,73.647 87.781,60.331 38.365,31.799 
			38.365,32.211 95.498,88.863 		"/>
		<linearGradient id="SVGID_5_" gradientUnits="userSpaceOnUse" x1="74.604" y1="88.8634" x2="74.604" y2="145.9259">
			<stop  offset="0" style="stop-color:#E53432"/>
			<stop  offset="0.1668" style="stop-color:#D73948"/>
			<stop  offset="0.5748" style="stop-color:#B33F72"/>
			<stop  offset="0.8619" style="stop-color:#9A4189"/>
			<stop  offset="1" style="stop-color:#904192"/>
		</linearGradient>
		<polygon style="clip-path:url(#SVGID_2_);fill:url(#SVGID_5_);" points="38.365,145.514 38.365,145.926 87.781,117.393 
			110.843,104.078 95.498,88.863 		"/>
		<linearGradient id="SVGID_6_" gradientUnits="userSpaceOnUse" x1="116.3493" y1="73.6466" x2="116.3493" y2="104.0782">
			<stop  offset="0" style="stop-color:#F18779"/>
			<stop  offset="0.1194" style="stop-color:#F2917A"/>
			<stop  offset="0.7128" style="stop-color:#FABC77"/>
			<stop  offset="1" style="stop-color:#FDCB73"/>
		</linearGradient>
		<polygon style="clip-path:url(#SVGID_2_);fill:url(#SVGID_6_);" points="110.844,73.647 95.498,88.863 110.843,104.078 
			137.2,88.862 		"/>
	</g>
	<g>
		<path style="fill:#F9F9F9;" d="M398.058,111.011c-2.145,0-4.104-0.396-5.877-1.187c-1.773-0.792-3.263-2.01-4.466-3.652h-0.36
			c0.24,1.924,0.36,3.748,0.36,5.471v13.559h-4.988V77.459h4.058l0.691,4.51h0.24c1.284-1.805,2.778-3.106,4.481-3.908
			c1.703-0.802,3.658-1.203,5.861-1.203c4.37,0,7.743,1.494,10.117,4.48c2.375,2.986,3.564,7.176,3.564,12.566
			c0,5.412-1.208,9.615-3.621,12.614C405.701,109.514,402.349,111.011,398.058,111.011z M397.336,81.097
			c-3.367,0-5.802,0.933-7.305,2.796c-1.503,1.864-2.275,4.831-2.316,8.9v1.111c0,4.631,0.772,7.943,2.316,9.938
			c1.544,1.994,4.019,2.99,7.425,2.99c2.848,0,5.078-1.151,6.692-3.456c1.612-2.304,2.419-5.481,2.419-9.532
			c0-4.107-0.807-7.261-2.419-9.455C402.535,82.194,400.263,81.097,397.336,81.097z"/>
		<path style="fill:#F9F9F9;" d="M423.293,110.409h-4.99v-46.78h4.99V110.409z"/>
		<path style="fill:#F9F9F9;" d="M451.986,110.409l-0.993-4.69h-0.24c-1.644,2.066-3.282,3.465-4.916,4.194
			c-1.633,0.733-3.673,1.098-6.117,1.098c-3.267,0-5.827-0.842-7.682-2.525c-1.855-1.684-2.781-4.077-2.781-7.185
			c0-6.653,5.322-10.141,15.964-10.463l5.594-0.181v-2.044c0-2.586-0.557-4.496-1.67-5.727c-1.111-1.234-2.893-1.85-5.336-1.85
			c-2.747,0-5.854,0.842-9.32,2.525l-1.534-3.818c1.625-0.882,3.402-1.573,5.338-2.074c1.934-0.501,3.872-0.752,5.817-0.752
			c3.928,0,6.839,0.871,8.734,2.615c1.893,1.744,2.84,4.54,2.84,8.389v22.487H451.986z M440.712,106.893
			c3.105,0,5.545-0.852,7.32-2.555c1.772-1.703,2.661-4.089,2.661-7.157v-2.976l-4.993,0.209c-3.968,0.143-6.827,0.757-8.583,1.851
			c-1.753,1.092-2.63,2.791-2.63,5.096c0,1.803,0.545,3.177,1.639,4.117C437.219,106.422,438.746,106.893,440.712,106.893z"/>
		<path style="fill:#F9F9F9;" d="M458.58,77.459h5.35l7.216,18.791c1.583,4.29,2.566,7.386,2.948,9.291h0.24
			c0.261-1.024,0.808-2.771,1.638-5.249c0.832-2.476,3.554-10.085,8.162-22.833h5.354l-14.162,37.521
			c-1.402,3.708-3.041,6.339-4.917,7.895c-1.873,1.552-4.174,2.327-6.897,2.327c-1.524,0-3.027-0.17-4.512-0.51v-3.998
			c1.102,0.24,2.336,0.361,3.699,0.361c3.428,0,5.871-1.924,7.336-5.773l1.833-4.689L458.58,77.459z"/>
	</g>
	<g>
		<path style="fill:#F9F9F9;" d="M305.609,80.521c1.584,1.311,4.892,4.065,4.892,9.306c0,5.097-2.895,7.514-5.79,9.785
			c-0.896,0.895-1.93,1.863-1.93,3.381c0,1.513,1.033,2.341,1.794,2.962l2.482,1.926c3.032,2.551,5.786,4.896,5.786,9.653
			c0,6.478-6.272,13.024-18.124,13.024c-9.995,0-14.817-4.754-14.817-9.858c0-2.48,1.235-5.993,5.307-8.408
			c4.27-2.619,10.063-2.96,13.163-3.172c-0.968-1.239-2.068-2.549-2.068-4.682c0-1.17,0.346-1.86,0.689-2.691
			c-0.761,0.07-1.517,0.139-2.208,0.139c-7.303,0-11.439-5.445-11.439-10.818c0-3.171,1.449-6.688,4.409-9.235
			c3.93-3.239,8.616-3.792,12.341-3.792h14.194l-4.411,2.481H305.609z M300.714,111.123c-0.551-0.072-0.897-0.072-1.583-0.072
			c-0.62,0-4.347,0.141-7.238,1.108c-1.516,0.547-5.928,2.201-5.928,7.097c0,4.891,4.758,8.411,12.133,8.411
			c6.612,0,10.131-3.177,10.131-7.446C308.229,116.699,305.954,114.846,300.714,111.123z M302.714,98.027
			c1.583-1.587,1.719-3.79,1.719-5.032c0-4.961-2.962-12.68-8.681-12.68c-1.794,0-3.722,0.895-4.825,2.275
			c-1.17,1.447-1.518,3.306-1.518,5.1c0,4.617,2.688,12.268,8.618,12.268C299.75,99.957,301.607,99.13,302.714,98.027z"/>
		<path style="fill:#F9F9F9;" d="M262.22,110.02c-10.939,0-16.788-8.533-16.788-16.241c0-9.015,7.361-16.718,17.824-16.718
			c10.11,0,16.441,7.91,16.441,16.238C279.698,101.415,273.439,110.02,262.22,110.02z M270.82,104.447
			c1.654-2.204,2.067-4.955,2.067-7.641c0-6.057-2.89-17.615-11.423-17.615c-2.27,0-4.54,0.896-6.191,2.344
			c-2.684,2.405-3.168,5.434-3.168,8.397c0,6.807,3.372,18.019,11.7,18.019C266.488,107.951,269.241,106.647,270.82,104.447z"/>
		<path style="fill:#F9F9F9;" d="M224.925,110.02c-10.941,0-16.79-8.533-16.79-16.241c0-9.015,7.364-16.718,17.824-16.718
			c10.113,0,16.443,7.91,16.443,16.238C242.402,101.415,236.142,110.02,224.925,110.02z M233.527,104.447
			c1.651-2.204,2.065-4.955,2.065-7.641c0-6.057-2.892-17.615-11.425-17.615c-2.268,0-4.541,0.896-6.191,2.344
			c-2.684,2.405-3.165,5.434-3.165,8.397c0,6.807,3.37,18.019,11.699,18.019C229.194,107.951,231.945,106.647,233.527,104.447z"/>
		<path style="fill:#F9F9F9;" d="M202.878,108.942l-9.894,2.283c-4.014,0.624-7.61,1.173-11.413,1.173
			c-19.096,0-26.357-14.044-26.357-25.044c0-13.419,10.306-25.868,27.949-25.868c3.737,0,7.331,0.552,10.582,1.452
			c5.188,1.453,7.609,3.25,9.132,4.289l-5.744,5.465l-2.42,0.551l1.729-2.768c-2.351-2.281-6.644-6.5-14.804-6.5
			c-10.931,0-19.165,8.305-19.165,20.41c0,13.002,9.41,25.247,24.488,25.247c4.432,0,6.711-0.898,8.787-1.73V96.766l-10.444,0.553
			l5.532-2.978h14.667l-1.797,1.729c-0.488,0.417-0.555,0.557-0.693,1.105c-0.072,0.624-0.137,2.632-0.137,3.323V108.942z"/>
		<path style="fill:#F9F9F9;" d="M327.474,106.949c-2.284-0.208-2.762-0.621-2.762-3.322v-0.762V64.473
			c0.014-0.149,0.023-0.302,0.037-0.446c0.279-2.42,0.97-2.835,3.117-4.082h-9.897l-5.19,2.491h5.289v0.031l-0.004-0.025v40.424
			v2.285c0,1.381-0.273,1.591-1.866,3.664h12.246l2.56-1.518C329.829,107.154,328.652,107.087,327.474,106.949z"/>
		<path style="fill:#F9F9F9;" d="M355.624,107.585c-0.753,0.413-1.509,0.896-2.262,1.237c-2.271,1.03-4.607,1.306-6.671,1.306
			c-2.193,0-5.631-0.142-9.138-2.681c-4.874-3.438-7.004-9.346-7.004-14.497c0-10.647,8.656-15.868,15.732-15.868
			c2.474,0,5.018,0.617,7.08,1.925c3.432,2.263,4.325,5.217,4.803,6.798l-16.141,6.529l-5.291,0.412
			c1.715,8.725,7.623,13.805,14.152,13.805c3.503,0,6.046-1.234,8.381-2.4L355.624,107.585z M349.168,87.11
			c1.303-0.479,1.99-0.893,1.99-1.854c0-2.746-3.09-5.908-6.803-5.908c-2.751,0-7.9,2.131-7.9,9.549
			c0,1.168,0.138,2.404,0.209,3.645L349.168,87.11z"/>
		<g>
			<path style="fill:#F9F9F9;" d="M362.255,77.552v4.533h-0.551v-4.533h-1.5v-0.47h3.55v0.47H362.255z"/>
			<path style="fill:#F9F9F9;" d="M368.435,82.085V77.51h-0.025l-1.396,4.575h-0.431l-1.408-4.575h-0.018v4.575h-0.5v-5.003h0.857
				l1.274,4.044h0.018l1.255-4.044h0.869v5.003H368.435z"/>
		</g>
	</g>
	<g>
		<path style="fill:#FCFCFD;" d="M168.954,48.015h-3.438c0-0.473-0.326-1.812-0.978-4.018h-4.963c-0.673,2.17-1.01,3.509-1.01,4.018
			h-3.233c0-0.279,0.836-2.571,2.508-6.875c1.672-4.304,2.508-6.675,2.508-7.111h4.061c0,0.408,0.757,2.744,2.272,7.009
			C168.197,45.302,168.954,47.628,168.954,48.015z M163.991,41.945c-1.225-3.695-1.837-5.693-1.837-5.994h-0.172
			c0,0.279-0.634,2.277-1.901,5.994H163.991z"/>
		<path style="fill:#FCFCFD;" d="M182.806,48.015h-2.653c0-0.294-0.985-1.844-2.954-4.651c-2.062-2.958-3.237-4.98-3.523-6.069
			h-0.172c0.179,1.568,0.268,2.986,0.268,4.254c0,1.769,0.05,3.925,0.15,6.467h-2.643c0.107-2.22,0.161-4.658,0.161-7.315
			c0-2.614-0.054-4.838-0.161-6.671h3.19c0,0.38,0.884,1.895,2.653,4.544c1.883,2.814,2.965,4.723,3.244,5.726h0.161
			c-0.172-1.597-0.258-3.029-0.258-4.297c0-1.94-0.05-3.932-0.15-5.973h2.685c-0.101,1.776-0.15,4-0.15,6.671
			C182.655,43.392,182.705,45.83,182.806,48.015z"/>
		<path style="fill:#FCFCFD;" d="M198.375,40.538c0,2.034-0.652,3.81-1.955,5.328c-1.304,1.519-3.13,2.277-5.479,2.277
			c-1.06,0-2.521-0.043-4.383-0.129c0.093-2.163,0.14-4.602,0.14-7.315c0-2.606-0.047-4.83-0.14-6.671h1.88
			c0.308,0,0.766-0.011,1.375-0.032c0.608-0.021,1.006-0.032,1.192-0.032c2.585,0,4.459,0.645,5.623,1.934
			C197.793,37.187,198.375,38.734,198.375,40.538z M195.443,41c0-1.375-0.401-2.533-1.203-3.476
			c-0.802-0.941-2.027-1.412-3.674-1.412c-0.308,0-0.73,0.032-1.268,0.097c0.071,1.433,0.107,2.929,0.107,4.49
			c0,1.712,0.036,3.409,0.107,5.092c0.465,0.093,0.931,0.14,1.396,0.14c1.54,0,2.68-0.479,3.421-1.435
			C195.072,43.54,195.443,42.375,195.443,41z"/>
		<path style="fill:#FCFCFD;" d="M212.732,48.015h-3.18c-0.831-2.535-1.468-4.1-1.912-4.694c-0.444-0.595-1.16-0.892-2.148-0.892
			c-0.416,0-0.813,0.004-1.192,0.011c0,1.841,0.032,3.699,0.097,5.575h-2.986c0.093-2.163,0.14-4.602,0.14-7.315
			c0-2.606-0.047-4.83-0.14-6.671h1.858c0.215,0,0.664-0.011,1.348-0.032c0.684-0.021,1.316-0.032,1.896-0.032
			c3.287,0,4.931,1.124,4.931,3.373c0,1.783-0.939,3.025-2.814,3.728v0.161c0.723,0.2,1.357,0.765,1.901,1.691
			C211.074,43.845,211.808,45.544,212.732,48.015z M208.704,38.132c0-1.425-0.917-2.138-2.75-2.138c-0.673,0-1.268,0.05-1.783,0.15
			c0.079,1.11,0.118,2.557,0.118,4.34c0.394,0.015,0.727,0.021,0.999,0.021C207.565,40.506,208.704,39.715,208.704,38.132z"/>
		<path style="fill:#FCFCFD;" d="M228.13,40.764c0,2.198-0.673,4.021-2.02,5.468c-1.347,1.446-3.012,2.17-4.995,2.17
			c-1.891,0-3.474-0.664-4.748-1.993c-1.275-1.328-1.912-3.017-1.912-5.064c0-2.198,0.673-4.022,2.02-5.468
			c1.346-1.446,3.011-2.17,4.995-2.17c1.891,0,3.473,0.662,4.748,1.987C227.493,37.019,228.13,38.708,228.13,40.764z
			 M225.165,41.075c0-1.497-0.383-2.711-1.149-3.642c-0.767-0.931-1.712-1.396-2.836-1.396c-1.046,0-1.934,0.469-2.664,1.407
			c-0.73,0.938-1.096,2.123-1.096,3.556c0,1.489,0.385,2.701,1.155,3.636c0.77,0.934,1.713,1.402,2.831,1.402
			c1.045,0,1.934-0.471,2.664-1.413C224.8,43.684,225.165,42.5,225.165,41.075z"/>
		<path style="fill:#FCFCFD;" d="M234.204,48.015h-3.04c0.093-2.22,0.14-4.658,0.14-7.315c0-2.614-0.047-4.838-0.14-6.671h3.04
			c-0.093,1.805-0.14,4.028-0.14,6.671C234.064,43.4,234.111,45.838,234.204,48.015z"/>
		<path style="fill:#FCFCFD;" d="M249.774,40.538c0,2.034-0.652,3.81-1.955,5.328c-1.304,1.519-3.13,2.277-5.479,2.277
			c-1.06,0-2.521-0.043-4.383-0.129c0.093-2.163,0.14-4.602,0.14-7.315c0-2.606-0.047-4.83-0.14-6.671h1.88
			c0.308,0,0.766-0.011,1.375-0.032c0.608-0.021,1.006-0.032,1.192-0.032c2.585,0,4.46,0.645,5.624,1.934
			C249.192,37.187,249.774,38.734,249.774,40.538z M246.842,41c0-1.375-0.401-2.533-1.203-3.476
			c-0.802-0.941-2.027-1.412-3.674-1.412c-0.308,0-0.73,0.032-1.268,0.097c0.071,1.433,0.107,2.929,0.107,4.49
			c0,1.712,0.036,3.409,0.107,5.092c0.465,0.093,0.931,0.14,1.396,0.14c1.54,0,2.68-0.479,3.421-1.435
			C246.471,43.54,246.842,42.375,246.842,41z"/>
		<path style="fill:#FCFCFD;" d="M270.43,48.015h-3.438c0-0.473-0.326-1.812-0.978-4.018h-4.963c-0.673,2.17-1.01,3.509-1.01,4.018
			h-3.233c0-0.279,0.836-2.571,2.508-6.875c1.672-4.304,2.508-6.675,2.508-7.111h4.06c0,0.408,0.758,2.744,2.273,7.009
			C269.672,45.302,270.43,47.628,270.43,48.015z M265.467,41.945c-1.225-3.695-1.838-5.693-1.838-5.994h-0.172
			c0,0.279-0.633,2.277-1.9,5.994H265.467z"/>
		<path style="fill:#FCFCFD;" d="M282.96,37.692c0,1.712-0.636,2.976-1.907,3.792c-1.27,0.816-2.83,1.225-4.678,1.225
			c-0.337,0-0.576-0.007-0.72-0.021c0,1.347,0.039,3.122,0.118,5.328h-3.019c0.093-2.069,0.14-4.508,0.14-7.315
			c0-2.578-0.047-4.802-0.14-6.671h1.869c0.265,0,0.773-0.011,1.525-0.032c0.752-0.021,1.403-0.032,1.955-0.032
			c1.36,0,2.51,0.308,3.448,0.924C282.492,35.504,282.96,36.439,282.96,37.692z M280.189,38.282c0-1.532-1.017-2.299-3.051-2.299
			c-0.509,0-1.046,0.054-1.611,0.161c0.079,1.353,0.118,2.886,0.118,4.598c0.179,0.015,0.387,0.021,0.623,0.021
			C278.882,40.764,280.189,39.937,280.189,38.282z"/>
		<path style="fill:#FCFCFD;" d="M295.844,37.692c0,1.712-0.636,2.976-1.906,3.792c-1.271,0.816-2.831,1.225-4.679,1.225
			c-0.337,0-0.576-0.007-0.72-0.021c0,1.347,0.039,3.122,0.118,5.328h-3.019c0.093-2.069,0.14-4.508,0.14-7.315
			c0-2.578-0.047-4.802-0.14-6.671h1.869c0.265,0,0.773-0.011,1.525-0.032c0.752-0.021,1.403-0.032,1.955-0.032
			c1.36,0,2.51,0.308,3.448,0.924C295.375,35.504,295.844,36.439,295.844,37.692z M293.073,38.282c0-1.532-1.017-2.299-3.051-2.299
			c-0.509,0-1.046,0.054-1.611,0.161c0.079,1.353,0.118,2.886,0.118,4.598c0.179,0.015,0.387,0.021,0.623,0.021
			C291.766,40.764,293.073,39.937,293.073,38.282z"/>
		<path style="fill:#FCFCFD;" d="M316.909,40.764c0,2.198-0.673,4.021-2.02,5.468c-1.347,1.446-3.012,2.17-4.995,2.17
			c-1.891,0-3.474-0.664-4.748-1.993c-1.275-1.328-1.912-3.017-1.912-5.064c0-2.198,0.673-4.022,2.02-5.468
			c1.347-1.446,3.012-2.17,4.995-2.17c1.891,0,3.474,0.662,4.748,1.987C316.271,37.019,316.909,38.708,316.909,40.764z
			 M313.944,41.075c0-1.497-0.383-2.711-1.149-3.642c-0.767-0.931-1.712-1.396-2.836-1.396c-1.046,0-1.934,0.469-2.664,1.407
			c-0.73,0.938-1.096,2.123-1.096,3.556c0,1.489,0.385,2.701,1.155,3.636c0.77,0.934,1.713,1.402,2.83,1.402
			c1.046,0,1.934-0.471,2.664-1.413C313.579,43.684,313.944,42.5,313.944,41.075z"/>
		<path style="fill:#FCFCFD;" d="M331.469,48.015h-2.653c0-0.294-0.984-1.844-2.954-4.651c-2.062-2.958-3.237-4.98-3.523-6.069
			h-0.172c0.179,1.568,0.268,2.986,0.268,4.254c0,1.769,0.05,3.925,0.15,6.467h-2.643c0.107-2.22,0.161-4.658,0.161-7.315
			c0-2.614-0.054-4.838-0.161-6.671h3.191c0,0.38,0.885,1.895,2.653,4.544c1.884,2.814,2.965,4.723,3.244,5.726h0.161
			c-0.172-1.597-0.258-3.029-0.258-4.297c0-1.94-0.05-3.932-0.15-5.973h2.686c-0.101,1.776-0.15,4-0.15,6.671
			C331.319,43.392,331.369,45.83,331.469,48.015z"/>
	</g>
</g>
<g>
	<path d="M1087.48,144.699c0,12.486-10.121,22.612-22.605,22.612H598.61c-12.486,0-22.61-10.126-22.61-22.612V22.61
		C576,10.125,586.125,0,598.61,0h466.264c12.484,0,22.605,10.125,22.605,22.61V144.699z"/>
	<path style="fill:#FFFFFF;" d="M664.336,28.613h-41.663c-4.992,0-9.041,4.046-9.041,9.041v92.303c0,4.996,4.049,9.045,9.041,9.045
		h41.663c4.996,0,9.046-4.049,9.046-9.045V37.654C673.382,32.659,669.332,28.613,664.336,28.613z M643.505,132.363
		c-3.325,0-6.021-2.695-6.021-6.024c0-3.325,2.695-6.021,6.021-6.021c3.329,0,6.024,2.695,6.024,6.021
		C649.529,129.668,646.834,132.363,643.505,132.363z M666.279,117.385h-45.547V49.3h45.547V117.385z"/>
	<g>
		<path style="fill:#FFFFFF;" d="M707.504,45.065l-2.532,7.669h-3.256L710,28.348h3.8l8.32,24.386h-3.365l-2.605-7.669H707.504z
			 M715.498,42.606l-2.423-7.02c-0.507-1.594-0.87-3.039-1.231-4.449h-0.105c-0.326,1.41-0.725,2.932-1.195,4.412l-2.387,7.057
			H715.498z"/>
		<path style="fill:#FFFFFF;" d="M725.377,35.223l3.437,9.807c0.58,1.626,1.051,3.075,1.413,4.521h0.108
			c0.398-1.445,0.902-2.895,1.482-4.521l3.402-9.807h3.329l-6.877,17.511h-3.039l-6.653-17.511H725.377z"/>
		<path style="fill:#FFFFFF;" d="M753.199,48.539c0,1.518,0.074,2.998,0.255,4.194h-2.858l-0.291-2.206h-0.107
			c-0.938,1.377-2.858,2.604-5.355,2.604c-3.546,0-5.353-2.495-5.353-5.027c0-4.235,3.763-6.55,10.526-6.514v-0.362
			c0-1.445-0.399-4.09-3.978-4.049c-1.667,0-3.364,0.467-4.596,1.3l-0.726-2.138c1.45-0.902,3.584-1.517,5.789-1.517
			c5.394,0,6.693,3.654,6.693,7.165V48.539z M750.087,43.797c-3.474-0.071-7.414,0.543-7.414,3.945c0,2.097,1.372,3.039,2.963,3.039
			c2.318,0,3.799-1.449,4.307-2.931c0.108-0.327,0.144-0.688,0.144-1.015V43.797z"/>
		<path style="fill:#FFFFFF;" d="M759.635,32.003c-1.191,0-1.988-0.939-1.988-2.062c0-1.122,0.833-2.024,2.062-2.024
			c1.232,0,2.028,0.902,2.028,2.024c0,1.123-0.796,2.062-2.061,2.062H759.635z M758.119,52.733V35.223h3.184v17.511H758.119z"/>
		<path style="fill:#FFFFFF;" d="M766.402,27.048h3.184v25.686h-3.184V27.048z"/>
		<path style="fill:#FFFFFF;" d="M787.024,48.539c0,1.518,0.073,2.998,0.253,4.194h-2.861l-0.289-2.206h-0.106
			c-0.942,1.377-2.858,2.604-5.357,2.604c-3.542,0-5.353-2.495-5.353-5.027c0-4.235,3.763-6.55,10.53-6.514v-0.362
			c0-1.445-0.4-4.09-3.983-4.049c-1.662,0-3.365,0.467-4.591,1.3l-0.727-2.138c1.447-0.902,3.584-1.517,5.789-1.517
			c5.39,0,6.693,3.654,6.693,7.165V48.539z M783.913,43.797c-3.474-0.071-7.419,0.543-7.419,3.945c0,2.097,1.376,3.039,2.968,3.039
			c2.317,0,3.799-1.449,4.306-2.931c0.11-0.327,0.145-0.688,0.145-1.015V43.797z"/>
		<path style="fill:#FFFFFF;" d="M791.94,27.048h3.185v10.961h0.075c1.12-1.952,3.144-3.184,5.966-3.184
			c4.344,0,7.383,3.618,7.383,8.9c0,6.295-3.98,9.406-7.886,9.406c-2.531,0-4.524-0.978-5.859-3.293h-0.077l-0.181,2.895h-2.745
			c0.108-1.196,0.141-2.966,0.141-4.521V27.048z M795.125,45.717c0,0.395,0.037,0.793,0.112,1.156
			c0.612,2.205,2.496,3.727,4.773,3.727c3.366,0,5.317-2.713,5.317-6.73c0-3.545-1.808-6.545-5.208-6.545
			c-2.17,0-4.2,1.517-4.814,3.904c-0.106,0.399-0.181,0.834-0.181,1.34V45.717z"/>
		<path style="fill:#FFFFFF;" d="M812.345,27.048h3.183v25.686h-3.183V27.048z"/>
		<path style="fill:#FFFFFF;" d="M822.436,44.522c0.071,4.307,2.784,6.078,5.97,6.078c2.282,0,3.69-0.398,4.849-0.869l0.576,2.242
			c-1.119,0.507-3.075,1.123-5.86,1.123c-5.354,0-8.61-3.582-8.61-8.827c0-5.318,3.147-9.479,8.252-9.479
			c5.711,0,7.197,5.031,7.197,8.247c0,0.652-0.037,1.159-0.109,1.521L822.436,44.522z M831.734,42.243
			c0.035-1.991-0.834-5.177-4.38-5.177c-3.251,0-4.629,2.967-4.883,5.177H831.734z"/>
		<path style="fill:#FFFFFF;" d="M853.187,53.132c-4.703,0-8.395-3.474-8.395-9.009c0-5.861,3.873-9.298,8.684-9.298
			c5.027,0,8.428,3.654,8.428,8.972c0,6.514-4.523,9.335-8.682,9.335H853.187z M853.294,50.745c3.039,0,5.316-2.858,5.316-6.839
			c0-2.967-1.48-6.694-5.244-6.694c-3.729,0-5.354,3.474-5.354,6.803c0,3.836,2.17,6.73,5.246,6.73H853.294z"/>
		<path style="fill:#FFFFFF;" d="M865.742,39.965c0-1.848-0.041-3.293-0.15-4.742h2.824l0.18,2.857h0.072
			c0.869-1.625,2.895-3.255,5.787-3.255c2.424,0,6.193,1.448,6.193,7.454v10.454h-3.189V42.638c0-2.817-1.047-5.208-4.053-5.208
			c-2.062,0-3.688,1.484-4.268,3.256c-0.144,0.398-0.217,0.979-0.217,1.485v10.562h-3.18V39.965z"/>
		<path style="fill:#FFFFFF;" d="M896.958,31.028v4.194h4.555v2.424h-4.555v9.443c0,2.17,0.615,3.401,2.385,3.401
			c0.871,0,1.379-0.071,1.85-0.218l0.141,2.424c-0.611,0.217-1.59,0.435-2.818,0.435c-1.488,0-2.682-0.507-3.441-1.336
			c-0.865-0.979-1.229-2.536-1.229-4.598v-9.552h-2.711v-2.424h2.711v-3.22L896.958,31.028z"/>
		<path style="fill:#FFFFFF;" d="M904.915,27.048h3.184v10.925h0.07c0.506-0.906,1.303-1.734,2.281-2.242
			c0.941-0.58,2.061-0.905,3.258-0.905c2.35,0,6.109,1.448,6.109,7.49v10.418h-3.18V42.678c0-2.857-1.051-5.213-4.055-5.213
			c-2.061,0-3.652,1.449-4.266,3.185c-0.182,0.434-0.219,0.905-0.219,1.521v10.562h-3.184V27.048z"/>
		<path style="fill:#FFFFFF;" d="M926.621,44.522c0.072,4.307,2.785,6.078,5.969,6.078c2.279,0,3.691-0.398,4.852-0.869l0.576,2.242
			c-1.123,0.507-3.076,1.123-5.863,1.123c-5.352,0-8.609-3.582-8.609-8.827c0-5.318,3.148-9.479,8.25-9.479
			c5.715,0,7.201,5.031,7.201,8.247c0,0.652-0.037,1.159-0.109,1.521L926.621,44.522z M935.919,42.243
			c0.031-1.991-0.834-5.177-4.379-5.177c-3.254,0-4.635,2.967-4.885,5.177H935.919z"/>
		<path style="fill:#FFFFFF;" d="M951.765,32.003c-1.197,0-1.994-0.939-1.994-2.062c0-1.122,0.832-2.024,2.064-2.024
			c1.229,0,2.025,0.902,2.025,2.024c0,1.123-0.797,2.062-2.066,2.062H951.765z M950.242,52.733V35.223h3.183v17.511H950.242z"/>
		<path style="fill:#FFFFFF;" d="M958.634,28.674c1.518-0.286,3.51-0.506,6.043-0.506c3.109,0,5.391,0.723,6.834,2.028
			c1.34,1.155,2.174,2.93,2.174,5.1c0,2.206-0.652,3.944-1.92,5.208c-1.662,1.775-4.377,2.678-7.451,2.678
			c-0.938,0-1.807-0.037-2.531-0.214v9.766h-3.148V28.674z M961.783,40.396c0.685,0.182,1.594,0.254,2.605,0.254
			c3.834,0,6.113-1.88,6.113-5.173c0-3.256-2.279-4.81-5.752-4.81c-1.373,0-2.422,0.142-2.967,0.254V40.396z"/>
		<path style="fill:#FFFFFF;" d="M977.412,27.048h3.186v10.925h0.072c0.506-0.906,1.303-1.734,2.277-2.242
			c0.943-0.58,2.066-0.905,3.258-0.905c2.352,0,6.113,1.448,6.113,7.49v10.418h-3.182V42.678c0-2.857-1.051-5.213-4.055-5.213
			c-2.059,0-3.65,1.449-4.268,3.185c-0.182,0.434-0.217,0.905-0.217,1.521v10.562h-3.186V27.048z"/>
		<path style="fill:#FFFFFF;" d="M1004.437,53.132c-4.703,0-8.395-3.474-8.395-9.009c0-5.861,3.873-9.298,8.686-9.298
			c5.027,0,8.426,3.654,8.426,8.972c0,6.514-4.522,9.335-8.68,9.335H1004.437z M1004.548,50.745c3.033,0,5.316-2.858,5.316-6.839
			c0-2.967-1.482-6.694-5.248-6.694c-3.725,0-5.356,3.474-5.356,6.803c0,3.836,2.17,6.73,5.246,6.73H1004.548z"/>
		<path style="fill:#FFFFFF;" d="M1016.99,39.965c0-1.848-0.037-3.293-0.144-4.742h2.822l0.18,2.857h0.074
			c0.869-1.625,2.895-3.255,5.787-3.255c2.424,0,6.183,1.448,6.183,7.454v10.454h-3.18V42.638c0-2.817-1.051-5.208-4.055-5.208
			c-2.061,0-3.688,1.484-4.266,3.256c-0.146,0.398-0.223,0.979-0.223,1.485v10.562h-3.18V39.965z"/>
		<path style="fill:#FFFFFF;" d="M1038.695,44.522c0.072,4.307,2.787,6.078,5.971,6.078c2.277,0,3.689-0.398,4.846-0.869l0.58,2.242
			c-1.125,0.507-3.076,1.123-5.861,1.123c-5.354,0-8.611-3.582-8.611-8.827c0-5.318,3.148-9.479,8.248-9.479
			c5.717,0,7.201,5.031,7.201,8.247c0,0.652-0.035,1.159-0.107,1.521L1038.695,44.522z M1047.994,42.243
			c0.035-1.991-0.834-5.177-4.379-5.177c-3.258,0-4.631,2.967-4.885,5.177H1047.994z"/>
	</g>
	<g>
		<path style="fill:#FFFFFF;" d="M722.493,69.251l-21.451,63.144h9.823l6.405-19.389h20.769l6.586,19.389h10.095l-21.544-63.144
			H722.493z M727.583,79.633c0.724,2.818,1.505,5.745,2.51,8.907l5.781,16.742h-16.453l5.701-16.851
			C725.991,85.699,726.814,82.748,727.583,79.633z"/>
		<path style="fill:#FFFFFF;" d="M782.479,85.62c-6.507,0-11.719,2.511-15.189,7.285l-0.38-6.281h-8.738l0.052,0.804
			c0.256,3.912,0.365,8.219,0.365,14.402v48.67h9.551v-22.713c2.964,3.547,7.698,5.611,13.06,5.611
			c5.584,0,10.728-2.188,14.477-6.154c4.184-4.423,6.393-10.78,6.393-18.376c0-6.712-1.918-12.515-5.552-16.778
			C792.96,87.917,787.977,85.62,782.479,85.62z M780.099,93.528c8.516,0,12.328,7.89,12.328,15.706
			c0,10.084-4.863,16.348-12.69,16.348c-5.344,0-9.968-3.637-11.254-8.864c-0.221-0.812-0.341-1.884-0.341-3.094v-7.683
			c0-0.695,0.156-1.539,0.305-2.357c0.047-0.262,0.098-0.522,0.137-0.776C770.007,97.342,774.737,93.528,780.099,93.528z"/>
		<path style="fill:#FFFFFF;" d="M831.674,85.62c-6.506,0-11.718,2.511-15.189,7.285l-0.38-6.281h-8.737l0.05,0.804
			c0.258,3.916,0.367,8.219,0.367,14.402v48.67h9.556v-22.713c2.962,3.547,7.693,5.611,13.054,5.611
			c5.586,0,10.729-2.188,14.483-6.154c4.18-4.423,6.389-10.78,6.389-18.376c0-6.712-1.92-12.515-5.553-16.778
			C842.156,87.917,837.171,85.62,831.674,85.62z M829.297,93.528c8.513,0,12.324,7.89,12.324,15.706
			c0,10.084-4.865,16.348-12.69,16.348c-5.342,0-9.969-3.637-11.255-8.864c-0.221-0.812-0.336-1.884-0.336-3.094v-7.683
			c0-0.699,0.151-1.547,0.305-2.365c0.047-0.258,0.094-0.515,0.138-0.768C819.202,97.342,823.933,93.528,829.297,93.528z"/>
		<path style="fill:#FFFFFF;" d="M893.304,96.006c-8.916-3.453-11.773-6.169-11.773-11.186c0-4.225,3.357-8.484,10.859-8.484
			c6.189,0,10.15,2.152,11.215,2.814l0.811,0.5l2.695-7.973l-0.533-0.312c-1.6-0.938-6.16-3.122-13.912-3.122
			c-12.184,0-20.691,7.193-20.691,17.488c0,8.303,5.328,14.105,16.769,18.264c8.106,3.031,11.123,6.136,11.123,11.457
			c0,6.023-4.654,9.762-12.143,9.762c-4.877,0-9.897-1.423-13.77-3.904l-0.828-0.532l-2.564,8.157l0.471,0.312
			c3.605,2.408,10.394,4.15,16.144,4.15c16.42,0,22.242-10.012,22.242-18.586C909.419,105.975,904.751,100.523,893.304,96.006z"/>
		<path style="fill:#FFFFFF;" d="M926.617,75.746l-9.371,2.941v7.937h-6.858v7.636h6.858v23.389c0,5.654,1.082,9.617,3.309,12.121
			c2.135,2.34,5.418,3.629,9.242,3.629c3.613,0,6.178-0.713,7.385-1.141l0.535-0.189l-0.457-7.649l-0.916,0.282
			c-1.207,0.37-2.449,0.514-4.443,0.514c-3.703,0-5.283-2.344-5.283-7.842V94.26h11.523v-7.636h-11.523V75.746z"/>
		<path style="fill:#FFFFFF;" d="M961.816,85.62c-13.367,0-22.701,9.975-22.701,24.255c0,13.852,9.033,23.523,21.969,23.523h0.09
			c10.935,0,22.701-7.618,22.701-24.346c0-6.803-2.104-12.645-6.088-16.898C973.779,87.881,968.255,85.62,961.816,85.62z
			 M961.54,93.162c8.596,0,12.506,8.378,12.506,16.166c0,9.577-5.338,16.528-12.688,16.528h-0.092
			c-7.246,0-12.506-6.835-12.506-16.253C948.761,101.421,952.712,93.162,961.54,93.162z"/>
		<path style="fill:#FFFFFF;" d="M1013.136,86.063l-0.572-0.146c-0.842-0.21-1.529-0.297-2.377-0.297
			c-4.998,0-9.483,2.942-11.979,7.69l-0.281-6.687h-8.572l0.055,0.804c0.254,3.782,0.361,8.027,0.361,13.758l-0.09,31.209h9.555
			v-24.349c0-1.325,0.092-2.579,0.262-3.702c1.08-5.85,5.025-9.629,10.053-9.629c0.979,0,1.748,0.08,2.565,0.16l1.021,0.105V86.063z
			"/>
		<path style="fill:#FFFFFF;" d="M1034.617,85.529c-12.719,0-21.604,10.161-21.604,24.711c0,14.012,8.838,23.067,22.516,23.067
			c7.193,0,12.197-1.579,15.127-2.901l0.574-0.26l-1.834-7.118l-0.799,0.321c-2.604,1.058-6.062,2.141-11.971,2.141
			c-4.15,0-13.721-1.369-14.309-13.852l30.838,0.092l0.123-0.609c0.195-0.971,0.289-2.278,0.289-3.988
			C1053.568,97.168,1048.605,85.529,1034.617,85.529z M1033.978,92.797c2.91,0,5.271,0.9,7.014,2.676
			c2.748,2.797,3.23,6.916,3.289,8.893h-21.785C1023.38,98.849,1026.832,92.797,1033.978,92.797z"/>
	</g>
</g>
</svg>
