<svg xmlns="http://www.w3.org/2000/svg" xmlns:xlink="http://www.w3.org/1999/xlink" preserveAspectRatio="xMidYMid" width="469" height="469" viewBox="0 0 469 469">
  <defs>
    <style>
      .cls-1 {
        fill: #dea02d;
        stroke: #000;
        stroke-linejoin: round;
        stroke-width: 5px;
        fill-opacity: 0;
        fill-rule: evenodd;
      }
    </style>
  </defs>
  <path d="M460.938,237.078 C459.195,344.103 443.938,410.078 443.938,410.078 C433.707,438.130 405.938,446.078 405.938,446.078 C318.508,461.888 232.937,461.078 232.937,461.078 C151.573,461.078 63.938,446.078 63.938,446.078 C26.808,437.138 22.938,406.078 22.938,406.078 C7.933,310.361 7.938,231.078 7.938,231.078 C7.938,194.511 11.938,148.078 11.938,148.078 L83.938,148.078 L83.938,147.870 L12.937,147.870 L11.938,148.078 L149.938,11.078 C195.819,6.941 236.938,8.078 236.938,8.078 C330.688,8.078 405.938,24.078 405.938,24.078 C435.864,30.774 444.937,62.078 444.937,62.078 C463.530,167.409 460.938,237.078 460.938,237.078 ZM148.093,14.078 L147.937,13.078 L147.937,84.078 L148.093,84.078 L148.093,14.078 Z" class="cls-1"/>
</svg>
