<?xml version="1.0" encoding="utf-8"?>
<!-- Generator: Adobe Illustrator 16.0.0, SVG Export Plug-In . SVG Version: 6.00 Build 0)  -->
<!DOCTYPE svg PUBLIC "-//W3C//DTD SVG 1.1//EN" "http://www.w3.org/Graphics/SVG/1.1/DTD/svg11.dtd">
<svg version="1.1" id="Layer_1" xmlns="http://www.w3.org/2000/svg" xmlns:xlink="http://www.w3.org/1999/xlink" x="0px" y="0px"
     width="25" height="25" viewBox="0 0 25 25" enable-background="new 0 0 25 25" xml:space="preserve">
<path d="M11,9 L13,9 L13,6 L16,6 L16,4 L13,4 L13,1 L11,1 L11,4 L8,4 L8,6 L11,6 L11,9
L11,9 L11,9 Z M7,18 C5.9,18 5.01,18.9 5.01,20 C5.01,21.1 5.9,22 7,22 C8.1,22
9,21.1 9,20 C9,18.9 8.1,18 7,18 L7,18 L7,18 Z M17,18 C15.9,18 15.01,18.9
15.01,20 C15.01,21.1 15.9,22 17,22 C18.1,22 19,21.1 19,20 C19,18.9 18.1,18 17,18
L17,18 L17,18 Z M7.17,14.75 L7.2,14.63 L8.1,13 L15.55,13 C16.3,13 16.96,12.59
17.3,11.97 L21.16,4.96 L19.42,4 L19.41,4 L18.31,6 L15.55,11 L8.53,11 L8.4,10.73
L6.16,6 L5.21,4 L4.27,2 L1,2 L1,4 L3,4 L6.6,11.59 L5.25,14.04 C5.09,14.32
5,14.65 5,15 C5,16.1 5.9,17 7,17 L19,17 L19,15 L7.42,15 C7.29,15 7.17,14.89
7.17,14.75 L7.17,14.75 L7.17,14.75 Z" fill="#FFF"/>
</svg>