<?xml version="1.0" encoding="utf-8"?>
<!-- Generator: Adobe Illustrator 16.0.0, SVG Export Plug-In . SVG Version: 6.00 Build 0)  -->
<!DOCTYPE svg PUBLIC "-//W3C//DTD SVG 1.1//EN" "http://www.w3.org/Graphics/SVG/1.1/DTD/svg11.dtd">
<svg version="1.1" id="Layer_1" xmlns="http://www.w3.org/2000/svg" xmlns:xlink="http://www.w3.org/1999/xlink" x="0px" y="0px"
     width="25" height="25" viewBox="0 0 25 25" enable-background="new 0 0 25 25" xml:space="preserve">
<path d="M7,20 C5.9,20 5.01,20.9 5.01,22 C5.01,23.1 5.9,24 7,24 C8.1,24 9,23.1 9,22
C9,20.9 8.1,20 7,20 L7,20 L7,20 Z M17,20 C15.9,20 15.01,20.9 15.01,22
C15.01,23.1 15.9,24 17,24 C18.1,24 19,23.1 19,22 C19,20.9 18.1,20 17,20 L17,20
L17,20 Z M7.2,16.63 L8.1,15 L15.55,15 C16.3,15 16.96,14.59 17.3,13.97
L21.16,6.96 L19.42,6 L18.31,8 L15.55,13 L8.53,13 L8.4,12.73 L6.16,8 L5.21,6
L4.27,4 L1,4 L1,6 L3,6 L6.6,13.59 L5.25,16.04 C5.09,16.32 5,16.65 5,17 C5,18.1
5.9,19 7,19 L19,19 L19,17 L7.42,17 C7.29,17 7.17,16.89 7.17,16.75 L7.2,16.63 Z" fill="#FFF"/>

<path d="M11.8063965,8.63037109 L11.8063965,2.85400391 C10.7315213,3.67920334
10.0078957,4.09179688 9.63549805,4.09179688 C9.45776278,4.09179688
9.3001309,4.02091542 9.16259766,3.87915039 C9.02506442,3.73738536
8.95629883,3.57340588 8.95629883,3.38720703 C8.95629883,3.17138564
9.02400648,3.01269582 9.15942383,2.91113281 C9.29484117,2.8095698
9.53393383,2.67838622 9.87670898,2.51757812 C10.3887558,2.27636598
10.7981755,2.02246227 11.1049805,1.75585938 C11.4117854,1.48925648
11.6836739,1.19091962 11.9206543,0.860839844 C12.1576346,0.530760068
12.3120927,0.3276371 12.3840332,0.251464844 C12.4559737,0.175292588
12.591389,0.137207031 12.7902832,0.137207031 C13.0145682,0.137207031
13.1944166,0.223957466 13.329834,0.397460938 C13.4652513,0.570964409
13.532959,0.81005707 13.532959,1.11474609 L13.532959,8.3828125
C13.532959,9.23340269 13.2430856,9.65869141 12.6633301,9.65869141
C12.4051908,9.65869141 12.1978361,9.57194097 12.0412598,9.3984375
C11.8846835,9.22493403 11.8063965,8.96891445 11.8063965,8.63037109
L11.8063965,8.63037109 Z" fill="#FFF"/>
</svg>