<?xml version="1.0" encoding="utf-8"?>
<!-- Generator: Adobe Illustrator 16.0.0, SVG Export Plug-In . SVG Version: 6.00 Build 0)  -->
<!DOCTYPE svg PUBLIC "-//W3C//DTD SVG 1.1//EN" "http://www.w3.org/Graphics/SVG/1.1/DTD/svg11.dtd">
<svg version="1.1" id="Layer_1" xmlns="http://www.w3.org/2000/svg" xmlns:xlink="http://www.w3.org/1999/xlink" x="0px" y="0px"
     width="25" height="25" viewBox="0 0 25 25" enable-background="new 0 0 25 25" xml:space="preserve">
<path d="M7,20 C5.9,20 5.01,20.9 5.01,22 C5.01,23.1 5.9,24 7,24 C8.1,24 9,23.1 9,22
C9,20.9 8.1,20 7,20 L7,20 L7,20 Z M17,20 C15.9,20 15.01,20.9 15.01,22
C15.01,23.1 15.9,24 17,24 C18.1,24 19,23.1 19,22 C19,20.9 18.1,20 17,20 L17,20
L17,20 Z M7.2,16.63 L8.1,15 L15.55,15 C16.3,15 16.96,14.59 17.3,13.97
L21.16,6.96 L19.42,6 L18.31,8 L15.55,13 L8.53,13 L8.4,12.73 L6.16,8 L5.21,6
L4.27,4 L1,4 L1,6 L3,6 L6.6,13.59 L5.25,16.04 C5.09,16.32 5,16.65 5,17 C5,18.1
5.9,19 7,19 L19,19 L19,17 L7.42,17 C7.29,17 7.17,16.89 7.17,16.75 L7.2,16.63 Z" fill="#FFF"/>

<path d="M13.4313965,5.32958984 C13.1520982,5.65966962 12.8400082,5.90828367
12.4951172,6.07543945 C12.1502261,6.24259524 11.7683126,6.32617188
11.3493652,6.32617188 C10.9515768,6.32617188 10.5802426,6.24894283
10.2353516,6.09448242 C9.89046052,5.94002201 9.59212365,5.72420386
9.34033203,5.44702148 C9.08854041,5.16983911 8.89493883,4.84611188
8.75952148,4.47583008 C8.62410414,4.10554828 8.55639648,3.71728719
8.55639648,3.31103516 C8.55639648,2.87516058 8.6325676,2.46150912
8.78491211,2.07006836 C8.93725662,1.6786276 9.15519064,1.33903139
9.4387207,1.05126953 C9.72225077,0.763507676 10.0597311,0.539226064
10.4511719,0.378417969 C10.8426126,0.217609873 11.2753069,0.137207031
11.7492676,0.137207031 C12.2951687,0.137207031 12.7818175,0.236652651
13.2092285,0.435546875 C13.6366395,0.634441099 13.9963364,0.92325657
14.2883301,1.30200195 C14.5803237,1.68074734 14.8046053,2.15787473
14.9611816,2.73339844 C15.1177579,3.30892215 15.1960449,3.96060834
15.1960449,4.68847656 C15.1960449,5.50098063 15.1135262,6.21720068
14.9484863,6.8371582 C14.7834464,7.45711573 14.5432958,7.97761834
14.2280273,8.39868164 C13.9127588,8.81974494 13.5350771,9.13289285
13.0949707,9.33813477 C12.6548643,9.54337668 12.1555204,9.64599609
11.5969238,9.64599609 C11.0467909,9.64599609 10.5686055,9.54126081
10.1623535,9.33178711 C9.75610148,9.12231341 9.4471853,8.8620621
9.2355957,8.55102539 C9.0240061,8.23998868 8.91821289,7.94059389
8.91821289,7.65283203 C8.91821289,7.47509677 8.98380468,7.31640695
9.11499023,7.17675781 C9.24617579,7.03710868 9.41332906,6.96728516
9.61645508,6.96728516 C9.80265393,6.96728516 9.9698072,7.01912383
10.1179199,7.12280273 C10.2660326,7.22648164 10.3781734,7.38199766
10.4543457,7.58935547 C10.5474451,7.84326299 10.7019032,8.04744389
10.9177246,8.2019043 C11.133546,8.3563647 11.3768704,8.43359375
11.6477051,8.43359375 C11.8889172,8.43359375 12.1174306,8.37223369
12.333252,8.24951172 C12.5490733,8.12678975 12.7331535,7.95328888
12.885498,7.72900391 C13.1901871,7.27620216 13.3721514,6.47640547
13.4313965,5.32958984 L13.4313965,5.32958984 Z M13.2854004,3.38720703
C13.2854004,3.09944518 13.2462569,2.83390421 13.1679688,2.59057617
C13.0896806,2.34724813 12.9796557,2.13671964 12.8378906,1.95898438
C12.6961256,1.78124911 12.5268565,1.64160207 12.3300781,1.54003906
C12.1332998,1.43847605 11.9185396,1.38769531 11.685791,1.38769531
C11.2837708,1.38769531 10.9431166,1.56013825 10.6638184,1.9050293
C10.3845201,2.24992034 10.244873,2.70588909 10.244873,3.27294922
C10.244873,3.83577755 10.3845201,4.28434078 10.6638184,4.61865234
C10.9431166,4.95296391 11.296466,5.12011719 11.723877,5.12011719
C11.9862481,5.12011719 12.236978,5.0513516 12.4760742,4.91381836
C12.7151705,4.77628512 12.90983,4.57633595 13.0600586,4.31396484
C13.2102872,4.05159374 13.2854004,3.74267756 13.2854004,3.38720703
L13.2854004,3.38720703 Z" fill="#FFF"/>
</svg>