<?xml version="1.0" encoding="utf-8"?>
<!-- Generator: Adobe Illustrator 16.0.0, SVG Export Plug-In . SVG Version: 6.00 Build 0)  -->
<!DOCTYPE svg PUBLIC "-//W3C//DTD SVG 1.1//EN" "http://www.w3.org/Graphics/SVG/1.1/DTD/svg11.dtd">
<svg version="1.1" id="Layer_1" xmlns="http://www.w3.org/2000/svg" xmlns:xlink="http://www.w3.org/1999/xlink" 
     width="25" height="25" viewBox="0 0 25 25" enable-background="new 0 0 25 25" xml:space="preserve">
<path d="M7,20 C5.9,20 5.01,20.9 5.01,22 C5.01,23.1 5.9,24 7,24 C8.1,24 9,23.1 9,22
C9,20.9 8.1,20 7,20 L7,20 L7,20 Z M17,20 C15.9,20 15.01,20.9 15.01,22
C15.01,23.1 15.9,24 17,24 C18.1,24 19,23.1 19,22 C19,20.9 18.1,20 17,20 L17,20
L17,20 Z M7.2,16.63 L8.1,15 L15.55,15 C16.3,15 16.96,14.59 17.3,13.97
L21.16,6.96 L19.42,6 L18.31,8 L15.55,13 L8.53,13 L8.4,12.73 L6.16,8 L5.21,6
L4.27,4 L1,4 L1,6 L3,6 L6.6,13.59 L5.25,16.04 C5.09,16.32 5,16.65 5,17 C5,18.1
5.9,19 7,19 L19,19 L19,17 L7.42,17 C7.29,17 7.17,16.89 7.17,16.75 L7.2,16.63 Z" fill="#FFF"/>

<path d="M12.6887207,8.69384766 L12.6887207,7.51318359 L9.50219727,7.51318359
C9.10017703,7.51318359 8.79866637,7.42220143 8.59765625,7.24023438
C8.39664613,7.05826732 8.29614258,6.8107112 8.29614258,6.49755859
C8.29614258,6.41715455 8.31095363,6.33569377 8.34057617,6.25317383
C8.37019872,6.17065388 8.41463187,6.08390345 8.47387695,5.99291992
C8.53312204,5.90193639 8.5944821,5.81412803 8.65795898,5.72949219
C8.72143586,5.64485635 8.79972284,5.541179 8.89282227,5.41845703
L12.2570801,0.91796875 C12.4771333,0.621743311 12.6580397,0.406983088
12.7998047,0.273681641 C12.9415697,0.140380193 13.1118968,0.0737304688
13.310791,0.0737304688 C13.9540234,0.0737304688 14.2756348,0.44189085
14.2756348,1.17822266 L14.2756348,6.09130859 L14.548584,6.09130859
C14.874432,6.09130859 15.1357412,6.13574174 15.3325195,6.22460938
C15.5292979,6.31347701 15.6276855,6.50813652 15.6276855,6.80859375
C15.6276855,7.05403769 15.5472827,7.23282822 15.3864746,7.3449707
C15.2256665,7.45711319 14.984458,7.51318359 14.6628418,7.51318359
L14.2756348,7.51318359 L14.2756348,8.69384766 C14.2756348,9.01969564
14.2036954,9.2619621 14.0598145,9.4206543 C13.9159335,9.5793465
13.7233899,9.65869141 13.4821777,9.65869141 C13.2451974,9.65869141
13.0537117,9.57723063 12.9077148,9.41430664 C12.761718,9.25138265
12.6887207,9.01123206 12.6887207,8.69384766 L12.6887207,8.69384766 Z
M9.95922852,6.09130859 L12.6887207,6.09130859 L12.6887207,2.40332031
L9.95922852,6.09130859 Z" fill="#FFF"/>
</svg>