<?xml version="1.0" encoding="utf-8"?>
<!-- Generator: Adobe Illustrator 16.0.0, SVG Export Plug-In . SVG Version: 6.00 Build 0)  -->
<!DOCTYPE svg PUBLIC "-//W3C//DTD SVG 1.1//EN" "http://www.w3.org/Graphics/SVG/1.1/DTD/svg11.dtd">
<svg version="1.1" id="Layer_1" xmlns="http://www.w3.org/2000/svg" xmlns:xlink="http://www.w3.org/1999/xlink" x="0px" y="0px"
     width="25" height="25" viewBox="0 0 25 25" enable-background="new 0 0 25 25" xml:space="preserve">
<path d="M7,20 C5.9,20 5.01,20.9 5.01,22 C5.01,23.1 5.9,24 7,24 C8.1,24 9,23.1 9,22
C9,20.9 8.1,20 7,20 L7,20 L7,20 Z M17,20 C15.9,20 15.01,20.9 15.01,22
C15.01,23.1 15.9,24 17,24 C18.1,24 19,23.1 19,22 C19,20.9 18.1,20 17,20 L17,20
L17,20 Z M7.2,16.63 L8.1,15 L15.55,15 C16.3,15 16.96,14.59 17.3,13.97
L21.16,6.96 L19.42,6 L18.31,8 L15.55,13 L8.53,13 L8.4,12.73 L6.16,8 L5.21,6
L4.27,4 L1,4 L1,6 L3,6 L6.6,13.59 L5.25,16.04 C5.09,16.32 5,16.65 5,17 C5,18.1
5.9,19 7,19 L19,19 L19,17 L7.42,17 C7.29,17 7.17,16.89 7.17,16.75 L7.2,16.63 Z
M12.8456702,5.94528618 L12.6262084,5.94528618 L10.6262084,5.94528618
L7.62620838,5.94528618 L7.62620838,3.94528618 L10.6262084,3.94528618
L12.6262084,3.94528618 L12.8230788,3.94528618 L10.2920062,1.41421356
L11.7062197,0 L16.6559672,4.94974747 L16.6528907,4.95282402
L16.6597251,4.95965843 L11.7099776,9.9094059 L10.295764,8.49519234
L12.8456702,5.94528618 L12.8456702,5.94528618 Z" fill="#FFF"/>
</svg>