<?xml version="1.0" encoding="utf-8"?>
<!-- Generator: Adobe Illustrator 16.0.0, SVG Export Plug-In . SVG Version: 6.00 Build 0)  -->
<!DOCTYPE svg PUBLIC "-//W3C//DTD SVG 1.1//EN" "http://www.w3.org/Graphics/SVG/1.1/DTD/svg11.dtd">
<svg version="1.1" id="Layer_1" xmlns="http://www.w3.org/2000/svg" xmlns:xlink="http://www.w3.org/1999/xlink" x="0px" y="0px"
     width="25" height="25" viewBox="0 0 25 25" enable-background="new 0 0 25 25" xml:space="preserve">
<path d="M7,20 C5.9,20 5.01,20.9 5.01,22 C5.01,23.1 5.9,24 7,24 C8.1,24 9,23.1 9,22
C9,20.9 8.1,20 7,20 L7,20 L7,20 Z M17,20 C15.9,20 15.01,20.9 15.01,22
C15.01,23.1 15.9,24 17,24 C18.1,24 19,23.1 19,22 C19,20.9 18.1,20 17,20 L17,20
L17,20 Z M7.2,16.63 L8.1,15 L15.55,15 C16.3,15 16.96,14.59 17.3,13.97
L21.16,6.96 L19.42,6 L18.31,8 L15.55,13 L8.53,13 L8.4,12.73 L6.16,8 L5.21,6
L4.27,4 L1,4 L1,6 L3,6 L6.6,13.59 L5.25,16.04 C5.09,16.32 5,16.65 5,17 C5,18.1
5.9,19 7,19 L19,19 L19,17 L7.42,17 C7.29,17 7.17,16.89 7.17,16.75 L7.2,16.63 Z" fill="#FFF"/>

<path d="M10.4924316,4.46630859 C10.7801935,4.12353344 11.0933414,3.86962973
11.4318848,3.70458984 C11.7704281,3.53954996 12.1491678,3.45703125
12.5681152,3.45703125 C12.9701355,3.45703125 13.3414697,3.53214443
13.6821289,3.68237305 C14.0227882,3.83260166 14.321125,4.04630395
14.5771484,4.32348633 C14.8331719,4.6006687 15.0310052,4.92756973
15.1706543,5.30419922 C15.3103034,5.68082871 15.380127,6.07437946
15.380127,6.48486328 C15.380127,7.08154595 15.2436537,7.6232072
14.9707031,8.10986328 C14.6977525,8.59651936 14.316897,8.97631699
13.828125,9.24926758 C13.339353,9.52221816 12.7860545,9.65869141
12.1682129,9.65869141 C11.4572718,9.65869141 10.8436712,9.48519054
10.3273926,9.13818359 C9.81111396,8.79117665 9.41650527,8.27807957
9.14355469,7.59887695 C8.8706041,6.91967434 8.73413086,6.08919762
8.73413086,5.10742188 C8.73413086,4.30761319 8.81664957,3.59245107
8.98168945,2.96191406 C9.14672934,2.33137706 9.38370614,1.80875858
9.69262695,1.39404297 C10.0015478,0.979327354 10.3760557,0.666179443
10.8161621,0.454589844 C11.2562685,0.243000244 11.7577283,0.137207031
12.3205566,0.137207031 C12.862226,0.137207031 13.3393534,0.243000244
13.7519531,0.454589844 C14.1645528,0.666179443 14.4755849,0.928546611
14.6850586,1.24169922 C14.8945323,1.55485183 14.9992676,1.85530455
14.9992676,2.14306641 C14.9992676,2.31656988 14.9336758,2.47420177
14.8024902,2.6159668 C14.6713047,2.75773183 14.5041514,2.82861328
14.3010254,2.82861328 C14.1232901,2.82861328 13.9582527,2.77254288
13.8059082,2.66040039 C13.6535637,2.5482579 13.5414229,2.39274188
13.4694824,2.19384766 C13.3721512,1.93994014 13.2176931,1.73575924
13.0061035,1.58129883 C12.7945139,1.42683842 12.5490737,1.34960938
12.2697754,1.34960938 C12.0454904,1.34960938 11.8222667,1.41414323
11.6000977,1.54321289 C11.3779286,1.67228255 11.1906746,1.84684135
11.0383301,2.06689453 C10.7294093,2.51546448 10.5474449,3.31526117
10.4924316,4.46630859 L10.4924316,4.46630859 Z M12.2062988,8.40820312
C12.6337098,8.40820312 12.9870592,8.23364432 13.2663574,7.88452148
C13.5456557,7.53539865 13.6853027,7.07731403 13.6853027,6.51025391
C13.6853027,6.12516083 13.6197109,5.79402808 13.4885254,5.5168457
C13.3573398,5.23966333 13.1774914,5.0280769 12.9489746,4.88208008
C12.7204578,4.73608325 12.46867,4.66308594 12.1936035,4.66308594
C11.9312324,4.66308594 11.6805025,4.73290946 11.4414062,4.87255859
C11.20231,5.01220773 11.0097664,5.21427277 10.8637695,5.47875977
C10.7177727,5.74324677 10.6447754,6.05322088 10.6447754,6.40869141
C10.6447754,6.97998333 10.7928859,7.45605278 11.0891113,7.83691406
C11.3853368,8.21777534 11.7577289,8.40820312 12.2062988,8.40820312
L12.2062988,8.40820312 Z" fill="#FFF"/>
</svg>