<?xml version="1.0" encoding="utf-8"?>
<!-- Generator: Adobe Illustrator 16.0.0, SVG Export Plug-In . SVG Version: 6.00 Build 0)  -->
<!DOCTYPE svg PUBLIC "-//W3C//DTD SVG 1.1//EN" "http://www.w3.org/Graphics/SVG/1.1/DTD/svg11.dtd">
<svg version="1.1" id="Layer_1" xmlns="http://www.w3.org/2000/svg" xmlns:xlink="http://www.w3.org/1999/xlink" x="0px" y="0px"
     width="25" height="25" viewBox="0 0 25 25" enable-background="new 0 0 25 25" xml:space="preserve">
<path d="M7,20 C5.9,20 5.01,20.9 5.01,22 C5.01,23.1 5.9,24 7,24 C8.1,24 9,23.1 9,22
C9,20.9 8.1,20 7,20 L7,20 L7,20 Z M17,20 C15.9,20 15.01,20.9 15.01,22
C15.01,23.1 15.9,24 17,24 C18.1,24 19,23.1 19,22 C19,20.9 18.1,20 17,20 L17,20
L17,20 Z M7.2,16.63 L8.1,15 L15.55,15 C16.3,15 16.96,14.59 17.3,13.97
L21.16,6.96 L19.42,6 L18.31,8 L15.55,13 L8.53,13 L8.4,12.73 L6.16,8 L5.21,6
L4.27,4 L1,4 L1,6 L3,6 L6.6,13.59 L5.25,16.04 C5.09,16.32 5,16.65 5,17 C5,18.1
5.9,19 7,19 L19,19 L19,17 L7.42,17 C7.29,17 7.17,16.89 7.17,16.75 L7.2,16.63 Z" fill="#FFF"/>

<path d="M11.6984863,3.88232422 C12.0878112,3.88232422 12.4231757,3.76806755
12.7045898,3.53955078 C12.986004,3.31103401 13.126709,2.98307505
13.126709,2.55566406 C13.126709,2.22981608 13.0145682,1.94946406
12.7902832,1.71459961 C12.5659982,1.47973515 12.2634296,1.36230469
11.8825684,1.36230469 C11.624429,1.36230469 11.4117847,1.39827438
11.2446289,1.47021484 C11.0774731,1.54215531 10.9452316,1.6373692
10.8479004,1.75585938 C10.7505692,1.87434955 10.6585291,2.02669178
10.5717773,2.21289062 C10.4850256,2.39908947 10.4056807,2.57470621
10.3337402,2.73974609 C10.2914223,2.82861373 10.2152512,2.89843725
10.1052246,2.94921875 C9.99519802,3.00000025 9.86824616,3.02539062
9.72436523,3.02539062 C9.55509355,3.02539062 9.39957753,2.95662504
9.2578125,2.8190918 C9.11604747,2.68155856 9.04516602,2.4985363
9.04516602,2.27001953 C9.04516602,2.04996635 9.11181574,1.81827921
9.24511719,1.57495117 C9.37841864,1.33162313 9.57307815,1.099936
9.82910156,0.879882812 C10.085125,0.659829629 10.4035625,0.483154963
10.7844238,0.349853516 C11.1652851,0.216552068 11.5905738,0.149902344
12.0603027,0.149902344 C12.4707866,0.149902344 12.8452945,0.205972747
13.1838379,0.318115234 C13.5223812,0.430257722 13.8164864,0.592121338
14.0661621,0.803710938 C14.3158378,1.01530054 14.5041498,1.26074079
14.6311035,1.54003906 C14.7580573,1.81933733 14.8215332,2.11979006
14.8215332,2.44140625 C14.8215332,2.86458545 14.7294931,3.22745617
14.5454102,3.5300293 C14.3613272,3.83260242 14.0979021,4.12776549
13.755127,4.41552734 C14.0852067,4.59326261 14.3634429,4.79638558
14.5898438,5.02490234 C14.8162446,5.25341911 14.9865717,5.50626489
15.1008301,5.78344727 C15.2150885,6.06062964 15.2722168,6.36002443
15.2722168,6.68164062 C15.2722168,7.0667337 15.1949878,7.43912581
15.0405273,7.79882812 C14.8860669,8.15853044 14.6586115,8.47908388
14.3581543,8.76049805 C14.0576971,9.04191221 13.7011739,9.2619621
13.2885742,9.4206543 C12.8759745,9.5793465 12.4200058,9.65869141
11.9206543,9.65869141 C11.4128393,9.65869141 10.9579284,9.56770924
10.5559082,9.38574219 C10.153888,9.20377513 9.82275521,8.97631972
9.5625,8.70336914 C9.30224479,8.43041856 9.10546942,8.14795068
8.97216797,7.85595703 C8.83886652,7.56396338 8.7722168,7.32275486
8.7722168,7.13232422 C8.7722168,6.88688028 8.85156171,6.68904698
9.01025391,6.53881836 C9.16894611,6.38858974 9.36677941,6.31347656
9.60375977,6.31347656 C9.72224994,6.31347656 9.83650661,6.34838832
9.9465332,6.41821289 C10.0565598,6.48803746 10.1284992,6.5716141
10.1623535,6.66894531 C10.3824067,7.2571644 10.6183256,7.69409037
10.8701172,7.97973633 C11.1219088,8.26538229 11.4763161,8.40820312
11.9333496,8.40820312 C12.1957207,8.40820312 12.4485665,8.34366927
12.6918945,8.21459961 C12.9352226,8.08552995 13.1362297,7.89404424
13.2949219,7.64013672 C13.4536141,7.3862292 13.532959,7.09212407
13.532959,6.7578125 C13.532959,6.26269284 13.3975437,5.87443175
13.126709,5.59301758 C12.8558743,5.31160341 12.4792505,5.17089844
11.9968262,5.17089844 C11.9121903,5.17089844 11.7810067,5.17936189
11.6032715,5.19628906 C11.4255362,5.21321623 11.3112796,5.22167969
11.260498,5.22167969 C11.0277495,5.22167969 10.847901,5.16349342
10.7209473,5.04711914 C10.5939935,4.93074486 10.5305176,4.76888125
10.5305176,4.56152344 C10.5305176,4.35839742 10.6066887,4.19441794
10.7590332,4.06958008 C10.9113777,3.94474221 11.1377752,3.88232422
11.4382324,3.88232422 L11.6984863,3.88232422 Z" fill="#FFF"/>
</svg>