<?xml version="1.0" encoding="utf-8"?>
<!-- Generator: Adobe Illustrator 16.0.0, SVG Export Plug-In . SVG Version: 6.00 Build 0)  -->
<!DOCTYPE svg PUBLIC "-//W3C//DTD SVG 1.1//EN" "http://www.w3.org/Graphics/SVG/1.1/DTD/svg11.dtd">
<svg version="1.1" id="Layer_1" xmlns="http://www.w3.org/2000/svg" xmlns:xlink="http://www.w3.org/1999/xlink" x="0px" y="0px"
     width="25" height="25" viewBox="0 0 25 25" enable-background="new 0 0 25 25" xml:space="preserve">
<path d="M7,20 C5.9,20 5.01,20.9 5.01,22 C5.01,23.1 5.9,24 7,24 C8.1,24 9,23.1 9,22
C9,20.9 8.1,20 7,20 L7,20 L7,20 Z M17,20 C15.9,20 15.01,20.9 15.01,22
C15.01,23.1 15.9,24 17,24 C18.1,24 19,23.1 19,22 C19,20.9 18.1,20 17,20 L17,20
L17,20 Z M7.2,16.63 L8.1,15 L15.55,15 C16.3,15 16.96,14.59 17.3,13.97
L21.16,6.96 L19.42,6 L18.31,8 L15.55,13 L8.53,13 L8.4,12.73 L6.16,8 L5.21,6
L4.27,4 L1,4 L1,6 L3,6 L6.6,13.59 L5.25,16.04 C5.09,16.32 5,16.65 5,17 C5,18.1
5.9,19 7,19 L19,19 L19,17 L7.42,17 C7.29,17 7.17,16.89 7.17,16.75 L7.2,16.63 Z" fill="#FFF"/>

<path d="M9.00708008,2.55566406 C9.00708008,2.13248486 9.12239468,1.73364445
9.35302734,1.35913086 C9.58366001,0.984617268 9.92219829,0.685222476
10.3686523,0.4609375 C10.8151064,0.236652524 11.3366669,0.124511719
11.9333496,0.124511719 C12.4369329,0.124511719 12.8791485,0.190103511
13.2600098,0.321289062 C13.640871,0.452474614 13.9582507,0.633381008
14.2121582,0.864013672 C14.4660657,1.09464634 14.6543776,1.35489764
14.7770996,1.64477539 C14.8998216,1.93465314 14.9611816,2.24251139
14.9611816,2.56835938 C14.9611816,2.98307499 14.8543305,3.35335124
14.640625,3.67919922 C14.4269195,4.0050472 14.1084819,4.2716461
13.6853027,4.47900391 C14.0450051,4.61865304 14.3433419,4.8016753
14.5803223,5.02807617 C14.8173026,5.25447704 14.9960931,5.51684421
15.1166992,5.81518555 C15.2373053,6.11352688 15.2976074,6.44465964
15.2976074,6.80859375 C15.2976074,7.34179954 15.1685397,7.82527452
14.9104004,8.2590332 C14.6522611,8.69279188 14.2735214,9.0323881
13.7741699,9.27783203 C13.2748185,9.52327597 12.6866082,9.64599609
12.0095215,9.64599609 C11.307044,9.64599609 10.7061386,9.52327597
10.2067871,9.27783203 C9.70743565,9.0323881 9.33081182,8.69490775
9.0769043,8.26538086 C8.82299678,7.83585397 8.69604492,7.35449485
8.69604492,6.82128906 C8.69604492,5.68293702 9.23347444,4.90218311
10.3083496,4.47900391 C9.44083225,4.07275187 9.00708008,3.431645
9.00708008,2.55566406 L9.00708008,2.55566406 Z M13.5583496,6.7578125
C13.5583496,6.42773272 13.490642,6.13997519 13.3552246,5.89453125
C13.2198073,5.64908731 13.0293795,5.4607754 12.7839355,5.32958984
C12.5384916,5.19840429 12.2634293,5.1328125 11.9587402,5.1328125
C11.5270975,5.1328125 11.1652847,5.27669127 10.873291,5.56445312
C10.5812974,5.85221498 10.4353027,6.25422919 10.4353027,6.77050781
C10.4353027,7.10058759 10.5040683,7.39151892 10.6416016,7.64331055
C10.7791348,7.89510217 10.9663888,8.08976168 11.2033691,8.22729492
C11.4403495,8.36482816 11.7048325,8.43359375 11.9968262,8.43359375
C12.2930516,8.43359375 12.5596505,8.36377023 12.7966309,8.22412109
C13.0336112,8.08447196 13.2198073,7.88769658 13.3552246,7.63378906
C13.490642,7.37988154 13.5583496,7.08789228 13.5583496,6.7578125
L13.5583496,6.7578125 Z M11.9714355,1.33691406 C11.5736471,1.33691406
11.2530937,1.46069212 11.0097656,1.70825195 C10.7664376,1.95581178
10.6447754,2.27424936 10.6447754,2.66357422 C10.6447754,3.02327654
10.7696114,3.32267133 11.0192871,3.56176758 C11.2689628,3.80086383
11.5905742,3.92041016 11.9841309,3.92041016 C12.1830251,3.92041016
12.3639315,3.88867219 12.5268555,3.82519531 C12.6897795,3.76171843
12.8294265,3.67391007 12.9458008,3.56176758 C13.0621751,3.44962509
13.1520993,3.31632564 13.2155762,3.16186523 C13.2790531,3.00740483
13.310791,2.83707775 13.310791,2.65087891 C13.310791,2.40120318
13.2547206,2.17692157 13.1425781,1.97802734 C13.0304356,1.77913312
12.8728038,1.62255917 12.6696777,1.50830078 C12.4665517,1.3940424
12.2338067,1.33691406 11.9714355,1.33691406 L11.9714355,1.33691406 Z" fill="#FFF"/>
</svg>