<?xml version="1.0" encoding="utf-8"?>
<!-- Generator: Adobe Illustrator 16.0.0, SVG Export Plug-In . SVG Version: 6.00 Build 0)  -->
<!DOCTYPE svg PUBLIC "-//W3C//DTD SVG 1.1//EN" "http://www.w3.org/Graphics/SVG/1.1/DTD/svg11.dtd">
<svg version="1.1" id="Layer_1" xmlns="http://www.w3.org/2000/svg" xmlns:xlink="http://www.w3.org/1999/xlink" x="0px" y="0px"
     width="25" height="25" viewBox="0 0 25 25" enable-background="new 0 0 25 25" xml:space="preserve">
<path d="M7,20 C5.9,20 5.01,20.9 5.01,22 C5.01,23.1 5.9,24 7,24 C8.1,24 9,23.1 9,22
C9,20.9 8.1,20 7,20 L7,20 L7,20 Z M17,20 C15.9,20 15.01,20.9 15.01,22
C15.01,23.1 15.9,24 17,24 C18.1,24 19,23.1 19,22 C19,20.9 18.1,20 17,20 L17,20
L17,20 Z M7.2,16.63 L8.1,15 L15.55,15 C16.3,15 16.96,14.59 17.3,13.97
L21.16,6.96 L19.42,6 L18.31,8 L15.55,13 L8.53,13 L8.4,12.73 L6.16,8 L5.21,6
L4.27,4 L1,4 L1,6 L3,6 L6.6,13.59 L5.25,16.04 C5.09,16.32 5,16.65 5,17 C5,18.1
5.9,19 7,19 L19,19 L19,17 L7.42,17 C7.29,17 7.17,16.89 7.17,16.75 L7.2,16.63 Z" fill="#FFF"/>

<path d="M14.1550293,1.76220703 L11.1398926,1.76220703 L10.7780762,3.81884766
C11.3789906,3.49723146 11.9333471,3.33642578 12.4411621,3.33642578
C12.8474141,3.33642578 13.2272118,3.41259689 13.5805664,3.56494141
C13.933921,3.71728592 14.2438952,3.92781441 14.510498,4.1965332
C14.7771009,4.46525199 14.9865715,4.78368957 15.138916,5.15185547
C15.2912605,5.52002137 15.3674316,5.91568799 15.3674316,6.33886719
C15.3674316,6.95247703 15.2299005,7.51106519 14.954834,8.01464844
C14.6797675,8.51823168 14.283043,8.91813003 13.7646484,9.21435547
C13.2462539,9.51058091 12.6485223,9.65869141 11.9714355,9.65869141
C11.2139448,9.65869141 10.5992862,9.51904437 10.1274414,9.23974609
C9.6555966,8.96044782 9.32129005,8.63989439 9.12451172,8.27807617
C8.92773339,7.91625796 8.8293457,7.59993625 8.8293457,7.32910156
C8.8293457,7.16406167 8.89811129,7.00748772 9.03564453,6.859375
C9.17317777,6.71126228 9.34562071,6.63720703 9.55297852,6.63720703
C9.90844904,6.63720703 10.1729321,6.84244586 10.3464355,7.25292969
C10.5157072,7.62955917 10.7442206,7.92260637 11.0319824,8.13208008
C11.3197443,8.34155378 11.6413556,8.44628906 11.9968262,8.44628906
C12.3226742,8.44628906 12.6083158,8.36165449 12.8537598,8.19238281
C13.0992037,8.02311113 13.2885736,7.79036606 13.421875,7.49414062
C13.5551764,7.19791519 13.6218262,6.86149277 13.6218262,6.48486328
C13.6218262,6.07861125 13.5498868,5.73160951 13.4060059,5.44384766
C13.2621249,5.1560858 13.0695813,4.94132558 12.8283691,4.79956055
C12.587157,4.65779552 12.3184422,4.58691406 12.0222168,4.58691406
C11.6582827,4.58691406 11.3980314,4.63134721 11.2414551,4.72021484
C11.0848788,4.80908248 10.8595392,4.9645985 10.5654297,5.18676758
C10.2713201,5.40893666 10.0290537,5.52001953 9.83862305,5.52001953
C9.63126524,5.52001953 9.44718505,5.44490635 9.28637695,5.29467773
C9.12556886,5.14444912 9.04516602,4.97412205 9.04516602,4.78369141
C9.04516602,4.76253245 9.06844052,4.61865368 9.11499023,4.35205078
L9.64819336,1.31152344 C9.70743845,0.947589326 9.81746339,0.683106294
9.97827148,0.518066406 C10.1390796,0.353026519 10.4014467,0.270507812
10.7653809,0.270507812 L14.1169434,0.270507812 C14.7771029,0.270507812
15.1071777,0.522295659 15.1071777,1.02587891 C15.1071777,1.24593209
15.0267749,1.42366469 14.8659668,1.55908203 C14.7051587,1.69449937
14.4681819,1.76220703 14.1550293,1.76220703 L14.1550293,1.76220703 Z" fill="#FFF"/>
</svg>