<?xml version="1.0" encoding="utf-8"?>
<!-- Generator: Adobe Illustrator 16.0.0, SVG Export Plug-In . SVG Version: 6.00 Build 0)  -->
<!DOCTYPE svg PUBLIC "-//W3C//DTD SVG 1.1//EN" "http://www.w3.org/Graphics/SVG/1.1/DTD/svg11.dtd">
<svg version="1.1" id="Layer_1" xmlns="http://www.w3.org/2000/svg" xmlns:xlink="http://www.w3.org/1999/xlink" x="0px" y="0px"
     width="25" height="25" viewBox="0 0 25 25" enable-background="new 0 0 25 25" xml:space="preserve">
<path d="M7,20 C5.9,20 5.01,20.9 5.01,22 C5.01,23.1 5.9,24 7,24 C8.1,24 9,23.1 9,22
C9,20.9 8.1,20 7,20 L7,20 L7,20 Z M17,20 C15.9,20 15.01,20.9 15.01,22
C15.01,23.1 15.9,24 17,24 C18.1,24 19,23.1 19,22 C19,20.9 18.1,20 17,20 L17,20
L17,20 Z M7.2,16.63 L8.1,15 L15.55,15 C16.3,15 16.96,14.59 17.3,13.97
L21.16,6.96 L19.42,6 L18.31,8 L15.55,13 L8.53,13 L8.4,12.73 L6.16,8 L5.21,6
L4.27,4 L1,4 L1,6 L3,6 L6.6,13.59 L5.25,16.04 C5.09,16.32 5,16.65 5,17 C5,18.1
5.9,19 7,19 L19,19 L19,17 L7.42,17 C7.29,17 7.17,16.89 7.17,16.75 L7.2,16.63 Z" fill="#FFF"/>

<path d="M15.2468262,4.93603516 C15.2468262,5.63004904 15.2045089,6.22672276
15.119873,6.72607422 C15.0352372,7.22542567 14.8786633,7.67822062
14.6501465,8.08447266 C14.3623846,8.58382411 13.9899925,8.96891141
13.532959,9.23974609 C13.0759254,9.51058078 12.568118,9.64599609
12.0095215,9.64599609 C11.3662891,9.64599609 10.7897161,9.46403177
10.2797852,9.10009766 C9.76985422,8.73616354 9.38582486,8.23258785
9.12768555,7.58935547 C8.9965,7.23811673 8.90022817,6.84985564
8.83886719,6.42456055 C8.7775062,5.99926545 8.74682617,5.53906498
8.74682617,5.04394531 C8.74682617,4.40494472 8.78068,3.82942964
8.84838867,3.31738281 C8.91609734,2.80533598 9.02189056,2.36523622
9.16577148,1.99707031 C9.41544721,1.38769227 9.77831793,0.923260061
10.2543945,0.603759766 C10.7304711,0.28425947 11.2985807,0.124511719
11.9587402,0.124511719 C12.3946148,0.124511719 12.7902814,0.195393171
13.145752,0.337158203 C13.5012225,0.478923235 13.8133125,0.686277932
14.0820312,0.959228516 C14.35075,1.2321791 14.5782054,1.56965945
14.7644043,1.97167969 C15.0860205,2.66992537 15.2468262,3.65803397
15.2468262,4.93603516 L15.2468262,4.93603516 Z M13.5075684,4.80908203
C13.5075684,4.0346641 13.4610193,3.40096275 13.3679199,2.90795898
C13.2748205,2.41495522 13.1182465,2.04256311 12.8981934,1.79077148
C12.6781402,1.53897986 12.3734557,1.41308594 11.9841309,1.41308594
C11.4255343,1.41308594 11.0372732,1.69449588 10.8193359,2.25732422
C10.6013986,2.82015255 10.4924316,3.6876569 10.4924316,4.85986328
C10.4924316,5.65544018 10.5389807,6.30712637 10.6320801,6.81494141
C10.7251795,7.32275645 10.8817535,7.70678581 11.1018066,7.96704102
C11.3218598,8.22729622 11.6201967,8.35742188 11.9968262,8.35742188
C12.386151,8.35742188 12.6908355,8.22200656 12.9108887,7.95117187
C13.1309419,7.68033719 13.2853999,7.29313403 13.3742676,6.78955078
C13.4631352,6.28596753 13.5075684,5.62581789 13.5075684,4.80908203
L13.5075684,4.80908203 Z" fill="#FFF"/>
</svg>