<?xml version="1.0" encoding="utf-8"?>
<!-- Generator: Adobe Illustrator 16.0.0, SVG Export Plug-In . SVG Version: 6.00 Build 0)  -->
<!DOCTYPE svg PUBLIC "-//W3C//DTD SVG 1.1//EN" "http://www.w3.org/Graphics/SVG/1.1/DTD/svg11.dtd">
<svg version="1.1" id="Layer_1" xmlns="http://www.w3.org/2000/svg" xmlns:xlink="http://www.w3.org/1999/xlink" x="0px" y="0px"
     width="25" height="25" viewBox="0 0 25 25" enable-background="new 0 0 25 25" xml:space="preserve">
<path d="M7,20 C5.9,20 5.01,20.9 5.01,22 C5.01,23.1 5.9,24 7,24 C8.1,24 9,23.1 9,22
C9,20.9 8.1,20 7,20 L7,20 L7,20 Z M17,20 C15.9,20 15.01,20.9 15.01,22
C15.01,23.1 15.9,24 17,24 C18.1,24 19,23.1 19,22 C19,20.9 18.1,20 17,20 L17,20
L17,20 Z M7.2,16.63 L8.1,15 L15.55,15 C16.3,15 16.96,14.59 17.3,13.97
L21.16,6.96 L19.42,6 L18.31,8 L15.55,13 L8.53,13 L8.4,12.73 L6.16,8 L5.21,6
L4.27,4 L1,4 L1,6 L3,6 L6.6,13.59 L5.25,16.04 C5.09,16.32 5,16.65 5,17 C5,18.1
5.9,19 7,19 L19,19 L19,17 L7.42,17 C7.29,17 7.17,16.89 7.17,16.75 L7.2,16.63 Z" fill="#FFF"/>

<path d="M11.0383301,8.00195312 L14.3518066,8.00195312 C14.6818864,8.00195312
14.9336743,8.06966078 15.1071777,8.20507812 C15.2806812,8.34049547
15.3674316,8.52457566 15.3674316,8.75732422 C15.3674316,8.96468203
15.2986661,9.14029876 15.1611328,9.28417969 C15.0235996,9.42806062
14.8151869,9.5 14.5358887,9.5 L9.86401367,9.5 C9.54662927,9.5
9.29907315,9.41219163 9.12133789,9.23657227 C8.94360263,9.0609529
8.85473633,8.85465613 8.85473633,8.61767578 C8.85473633,8.46533127
8.91186466,8.26326623 9.02612305,8.01147461 C9.14038143,7.75968299
9.26521742,7.56184968 9.40063477,7.41796875 C9.9634631,6.83398146
10.4712705,6.33357956 10.9240723,5.91674805 C11.376874,5.49991654
11.7006012,5.22591211 11.8952637,5.09472656 C12.2422706,4.84928263
12.5310861,4.60278444 12.7617188,4.35522461 C12.9923514,4.10766478
13.1679681,3.85376107 13.2885742,3.59350586 C13.4091803,3.33325065
13.4694824,3.07828901 13.4694824,2.82861328 C13.4694824,2.55777859
13.4049486,2.31551214 13.2758789,2.10180664 C13.1468093,1.88810115
12.9711925,1.7220058 12.7490234,1.60351562 C12.5268544,1.48502545
12.2845879,1.42578125 12.0222168,1.42578125 C11.467852,1.42578125
11.031984,1.66910564 10.7145996,2.15576172 C10.6722817,2.2192386
10.6014002,2.39273947 10.5019531,2.67626953 C10.402506,2.95979959
10.2903652,3.17773361 10.1655273,3.33007812 C10.0406895,3.48242264
9.85766722,3.55859375 9.61645508,3.55859375 C9.40486548,3.55859375
9.22924875,3.48877023 9.08959961,3.34912109 C8.94995047,3.20947196
8.88012695,3.01904417 8.88012695,2.77783203 C8.88012695,2.48583838
8.94571875,2.18115393 9.0769043,1.86376953 C9.20808985,1.54638513
9.40380729,1.25862759 9.6640625,1.00048828 C9.92431771,0.74234897
10.2543925,0.53393634 10.6542969,0.375244141 C11.0542012,0.216551941
11.5228652,0.137207031 12.0603027,0.137207031 C12.7077669,0.137207031
13.2600075,0.238768516 13.717041,0.441894531 C14.0132665,0.577311875
14.2735178,0.76350793 14.4978027,1.00048828 C14.7220877,1.23746863
14.8966465,1.51147305 15.0214844,1.82250977 C15.1463222,2.13354648
15.2087402,2.45621578 15.2087402,2.79052734 C15.2087402,3.31526955
15.0786146,3.79239694 14.8183594,4.22192383 C14.5581042,4.65145072
14.2925632,4.98787313 14.0217285,5.23120117 C13.7508938,5.47452921
13.2970409,5.85644271 12.6601562,6.37695312 C12.0232716,6.89746354
11.5863456,7.30159361 11.3493652,7.58935547 C11.2478022,7.70361385
11.1441249,7.84114503 11.0383301,8.00195312 L11.0383301,8.00195312 Z" fill="#FFF"/>
</svg>