<?xml version="1.0" encoding="utf-8"?>
<!-- Generator: Adobe Illustrator 16.0.0, SVG Export Plug-In . SVG Version: 6.00 Build 0)  -->
<!DOCTYPE svg PUBLIC "-//W3C//DTD SVG 1.1//EN" "http://www.w3.org/Graphics/SVG/1.1/DTD/svg11.dtd">
<svg version="1.1" id="Layer_1" xmlns="http://www.w3.org/2000/svg" xmlns:xlink="http://www.w3.org/1999/xlink" x="0px" y="0px"
     width="25" height="25" viewBox="0 0 25 25" enable-background="new 0 0 25 25" xml:space="preserve">
<path d="M7,20 C5.9,20 5.01,20.9 5.01,22 C5.01,23.1 5.9,24 7,24 C8.1,24 9,23.1 9,22
C9,20.9 8.1,20 7,20 L7,20 L7,20 Z M17,20 C15.9,20 15.01,20.9 15.01,22
C15.01,23.1 15.9,24 17,24 C18.1,24 19,23.1 19,22 C19,20.9 18.1,20 17,20 L17,20
L17,20 Z M7.2,16.63 L8.1,15 L15.55,15 C16.3,15 16.96,14.59 17.3,13.97
L21.16,6.96 L19.42,6 L18.31,8 L15.55,13 L8.53,13 L8.4,12.73 L6.16,8 L5.21,6
L4.27,4 L1,4 L1,6 L3,6 L6.6,13.59 L5.25,16.04 C5.09,16.32 5,16.65 5,17 C5,18.1
5.9,19 7,19 L19,19 L19,17 L7.42,17 C7.29,17 7.17,16.89 7.17,16.75 L7.2,16.63 Z" fill="#FFF"/>

<path d="M10.1623535,0.283203125 L14.3898926,0.283203125 C14.7961446,0.283203125
15.0902497,0.346679053 15.2722168,0.473632812 C15.4541839,0.600586572
15.545166,0.810057134 15.545166,1.10205078 C15.545166,1.27978604
15.4383149,1.51464698 15.2246094,1.80664062 C15.0109039,2.09863427
14.7675795,2.42130357 14.4946289,2.7746582 C14.2216783,3.12801283
13.9402684,3.56705467 13.6503906,4.09179688 C13.3605129,4.61653908
13.0949719,5.25764595 12.8537598,6.01513672 C12.7521968,6.34944829
12.6802574,6.6266265 12.6379395,6.84667969 C12.5956215,7.06673287
12.5490725,7.35237455 12.498291,7.70361328 C12.4475095,8.05485202
12.4030764,8.32356678 12.3649902,8.50976562 C12.2761226,8.94140841
12.1502287,9.2408032 11.9873047,9.40795898 C11.8243807,9.57511477
11.6075046,9.65869141 11.3366699,9.65869141 C11.0785306,9.65869141
10.8711759,9.56876718 10.7145996,9.38891602 C10.5580233,9.20906486
10.4797363,8.94352389 10.4797363,8.59228516 C10.4797363,8.32145047
10.5368647,7.95329009 10.651123,7.48779297 C10.7653814,7.02229585
10.9515775,6.46476562 11.2097168,5.81518555 C11.4678561,5.16560548
11.7905254,4.49910823 12.1777344,3.81567383 C12.5649433,3.13223942
13.0251438,2.45198906 13.5583496,1.77490234 L10.1623535,1.77490234
C9.80688299,1.77490234 9.54134202,1.71036848 9.36572266,1.58129883
C9.19010329,1.45222917 9.10229492,1.25016414 9.10229492,0.975097656
C9.10229492,0.683104009 9.19539295,0.49479209 9.3815918,0.41015625
C9.56779064,0.32552041 9.82804195,0.283203125 10.1623535,0.283203125
L10.1623535,0.283203125 Z" fill="#FFF"/>
</svg>