<?xml version="1.0" encoding="utf-8"?>
<!-- Generator: Adobe Illustrator 16.0.0, SVG Export Plug-In . SVG Version: 6.00 Build 0)  -->
<!DOCTYPE svg PUBLIC "-//W3C//DTD SVG 1.1//EN" "http://www.w3.org/Graphics/SVG/1.1/DTD/svg11.dtd">
<svg version="1.1" id="Layer_1" xmlns="http://www.w3.org/2000/svg" xmlns:xlink="http://www.w3.org/1999/xlink" x="0px" y="0px"
     width="25px" height="25px" viewBox="0 0 25 25" enable-background="new 0 0 25 25" xml:space="preserve">
<path d="M2,18.5555556 L22,18.5555556 L22,17.5388427 L2,17.5388427 L2,18.5555556
L2,18.5555556 Z M10.6658484,6.0157886 L10.6658484,6.35500098
C10.6658484,6.79773323 11.3313332,7.37263815 11.3313332,7.37263815
C11.7368062,7.95678591 11.3313332,8.04921436 11.3313332,8.04921436
C2.95277058,9.15188569 3.33187872,16.5221298 3.33187872,16.5221298
L16.9997727,16.5221298 C16.9997727,11.4995682 13.6659848,9.74435202
13.6659848,9.74435202 C17.8007182,10.5401609 18.3325606,16.5221298
18.3325606,16.5221298 L20.666303,16.5221298 C20.666303,8.90695032
12.6659394,8.04921436 12.6659394,8.04921436 C12.2741034,7.9161174
12.6659394,7.37263815 12.6659394,7.37263815 C13.3605164,6.94469446
13.3323333,6.35500098 13.3323333,6.35500098 L13.3323333,6.0157886
C13.3323333,5.00369714 12.0168189,5 11.9995454,5 C10.8467658,5
10.6658484,6.0157886 10.6658484,6.0157886 L10.6658484,6.0157886 Z" fill="#FFF"/>
</svg>