<?xml version="1.0" encoding="utf-8"?>
<!-- Generator: Adobe Illustrator 16.0.0, SVG Export Plug-In . SVG Version: 6.00 Build 0)  -->
<!DOCTYPE svg PUBLIC "-//W3C//DTD SVG 1.1//EN" "http://www.w3.org/Graphics/SVG/1.1/DTD/svg11.dtd">
<svg version="1.1" id="Layer_1" xmlns="http://www.w3.org/2000/svg" xmlns:xlink="http://www.w3.org/1999/xlink" x="0px" y="0px"
     width="25px" height="25px" viewBox="0 0 25 25" enable-background="new 0 0 25 25" xml:space="preserve">
<path d="M12.5922333,2 C11.8129232,2.10499706 11.4948064,2.91997423 11.4948064,2.91997423
L7.05791384,13.0180247 C6.99550815,13.18802 7.00007442,13.3363492
7.00007442,13.3363492 L7.00007442,13.4646789 C7.0487813,14.3429876
7.8752762,14.3596538 7.8752762,14.3596538 L11.1736454,14.3913196
L8.8098395,20.8161397 C8.73525709,20.9644688 8.72308037,21.327792
8.72308037,21.327792 C8.69872693,22.0444386 9.36540238,21.9994399
9.36540238,21.9994399 C9.61502515,21.9994399 9.83268403,21.7427804
9.83268403,21.7427804 L17.6851467,10.9430829 C17.8875847,10.6614241
17.8297452,10.271435 17.8297452,10.271435 C17.6516607,9.55978827
17.0413026,9.59978715 17.0413026,9.59978715 L14.5892155,9.59978715
C14.5283319,9.59978715 14.5602958,9.53478897 14.5602958,9.53478897
L17.741464,3.39829417 C17.8358336,3.21829921 17.8571429,2.91997423
17.8571429,2.91997423 L17.8571429,2.75997871 C17.741464,2.16166214
17.3487648,2.02999916 17.1539372,2 L12.5922333,2 L12.5922333,2 Z" fill="#FFF"/>
</svg>