<?xml version="1.0" encoding="utf-8"?>
<!-- Generator: Adobe Illustrator 16.0.0, SVG Export Plug-In . SVG Version: 6.00 Build 0)  -->
<!DOCTYPE svg PUBLIC "-//W3C//DTD SVG 1.1//EN" "http://www.w3.org/Graphics/SVG/1.1/DTD/svg11.dtd">
<svg version="1.1" id="Layer_1" xmlns="http://www.w3.org/2000/svg" xmlns:xlink="http://www.w3.org/1999/xlink" x="0px" y="0px"
     width="30" height="30" viewBox="0 0 30 30" enable-background="new 0 0 30 30"  xml:space="preserve">
<path d="M12 22C22 22 22 22 22 12C22 6.477152 17.52285 2 12 2C6.477152 2 2 6.477152 2 12C2 17.52285 6.477152 22 12 22ZM11.52381 13.42857L13.42857 13.42857L16.28571 13.42857L16.28571 11.52381L13.42857 11.52381L11.52381 11.52381L8.666667 11.52381L8.666667 13.42857L11.52381 13.42857L13.42857 13.42857L11.52381 13.42857ZM12 20.09524C7.529123 20.09524 3.904762 16.47088 3.904762 12C3.904762 7.529123 7.529123 3.904762 12 3.904762C16.47088 3.904762 20.09524 7.529123 20.09524 12C20.09524 20.09524 20.09524 20.09524 12 20.09524Z" fill="#ffc107"/>
</svg>