<?xml version="1.0" encoding="utf-8"?>
<!-- Generator: Adobe Illustrator 16.0.0, SVG Export Plug-In . SVG Version: 6.00 Build 0)  -->
<!DOCTYPE svg PUBLIC "-//W3C//DTD SVG 1.1//EN" "http://www.w3.org/Graphics/SVG/1.1/DTD/svg11.dtd">
<svg version="1.1" id="Layer_1" xmlns="http://www.w3.org/2000/svg" xmlns:xlink="http://www.w3.org/1999/xlink" x="0px" y="0px"
     width="30" height="30" viewBox="0 0 30 30" enable-background="new 0 0 30 30" xml:space="preserve">
<path d="M12 22C22 22 22 22 22 12C22 6.477152 17.52285 2 12 2C6.477152 2 2 6.477152 2 12C2 17.52285 6.477152 22 12 22ZM15.80952 14.38095C17.12449 14.38095 18.19048 13.31496 18.19048 12C18.19048 10.68504 17.12449 9.619047 15.80952 9.619047C14.49456 9.619047 13.42857 10.68504 13.42857 12C13.42857 13.31496 14.49456 14.38095 15.80952 14.38095ZM11.04762 13.42857C11.8366 13.42857 12.47619 12.78898 12.47619 12C12.47619 11.21102 11.8366 10.57143 11.04762 10.57143C10.25864 10.57143 9.619047 11.21102 9.619047 12C9.619047 12.78898 10.25864 13.42857 11.04762 13.42857ZM7.238095 13.42857C8.027074 13.42857 8.666667 12.78898 8.666667 12C8.666667 11.21102 8.027074 10.57143 7.238095 10.57143C6.449117 10.57143 5.809524 11.21102 5.809524 12C5.809524 12.78898 6.449117 13.42857 7.238095 13.42857ZM12 20.09524C7.529123 20.09524 3.904762 16.47088 3.904762 12C3.904762 7.529123 7.529123 3.904762 12 3.904762C16.47088 3.904762 20.09524 7.529123 20.09524 12C20.09524 20.09524 20.09524 20.09524 12 20.09524Z" fill="#ffc107"/>
</svg>