<?xml version="1.0" encoding="utf-8"?>
<!-- Generator: Adobe Illustrator 16.0.0, SVG Export Plug-In . SVG Version: 6.00 Build 0)  -->
<!DOCTYPE svg PUBLIC "-//W3C//DTD SVG 1.1//EN" "http://www.w3.org/Graphics/SVG/1.1/DTD/svg11.dtd">
<svg version="1.1" id="Layer_1" xmlns="http://www.w3.org/2000/svg" xmlns:xlink="http://www.w3.org/1999/xlink" x="0px" y="0px"
     width="300.96px" height="248.16px" viewBox="0 0 300.96 248.16" enable-background="new 0 0 300.96 248.16" xml:space="preserve">
<path d="M10 0C4.4775 0 0 4.475 0 10 0 15.525 4.4775 20 10 20 15.5225 20 20 15.525 20 10 20 4.475 15.5225 0 10 0l0 0z" fill="#FFF"/>
<path d="M10 19C5.0294286 19 1 14.969286 1 10 1 5.0307143 5.0294286 1 10 1c4.970571 0 9 4.0307143 9 9 0 4.969286 -4.029429 9 -9 9l0 0z" fill="#FFC107"/>
<path d="M13.705208 6.0860589c-0.2824 -0.1777337 -0.642621 -0.069824 -0.80534 0.2285149L9.12963 13.347753 7.0201832 11.253034C6.7973294 10.999128 6.4241377 10.986433 6.1865449 11.227643 5.9489521 11.462506 5.9365714 11.868755 6.1594252 12.12266l2.6954697 2.678702c0.2222642 0.253905 0.5954559 0.266601 0.8330487 0.02539 0.071926 -0.06982 4.2330434 -7.8774147 4.2330434 -7.8774147 0.162718 -0.2983388 0.06603 -0.6918922 -0.215779 -0.8632784l0 0z" fill="#FFF"/>

</svg>